<mxfile host="Electron" agent="Mozilla/5.0 (X11; Linux x86_64) AppleWebKit/537.36 (KHTML, like Gecko) draw.io/25.0.1 Chrome/128.0.6613.186 Electron/32.2.6 Safari/537.36" version="25.0.1">
  <diagram id="07fea595-8f29-1299-0266-81d95cde20df" name="Page-1">
    <mxGraphModel dx="1050" dy="595" grid="1" gridSize="10" guides="1" tooltips="1" connect="1" arrows="1" fold="1" page="1" pageScale="1" pageWidth="1169" pageHeight="827" background="#ffffff" math="0" shadow="0">
      <root>
        <mxCell id="0" />
        <mxCell id="1" parent="0" />
        <mxCell id="187" value="&lt;font style=&quot;font-size: 14px;&quot; color=&quot;#000000&quot;&gt;Deployment&lt;/font&gt;" style="swimlane;whiteSpace=wrap;fillColor=none;swimlaneFillColor=#9FD385;fontColor=#2F5B7C;fontFamily=Tahoma;html=1;strokeColor=none;opacity=50;startSize=23;" parent="1" vertex="1">
          <mxGeometry x="351.5" y="89.5" width="160" height="390.5" as="geometry">
            <mxRectangle x="20" y="20" width="80" height="23" as="alternateBounds" />
          </mxGeometry>
        </mxCell>
        <mxCell id="188" value="API server" style="shape=document;whiteSpace=wrap;verticalAlign=middle;strokeColor=none;fillColor=#12aab5;shadow=0;fontColor=#FFFFFF;fontFamily=Helvetica;fontStyle=1;html=1;fontSize=12;spacing=6;spacingBottom=22;" parent="187" vertex="1">
          <mxGeometry x="20" y="70.5" width="120" height="59.25" as="geometry" />
        </mxCell>
        <mxCell id="190" value="&lt;div&gt;&lt;br&gt;&lt;/div&gt;Trained model" style="shape=document;whiteSpace=wrap;strokeColor=none;fillColor=#12aab5;shadow=0;fontColor=#FFFFFF;fontFamily=Helvetica;fontStyle=1;html=1;fontSize=12;verticalAlign=middle;spacing=6;spacingBottom=22;" parent="187" vertex="1">
          <mxGeometry x="20" y="210.5" width="120" height="49.5" as="geometry" />
        </mxCell>
        <mxCell id="207" value="" style="edgeStyle=segmentEdgeStyle;strokeColor=#2F5B7C;strokeWidth=3;html=1;endArrow=block;endFill=1;exitX=0.5;exitY=0;exitDx=0;exitDy=0;" parent="187" source="190" target="188" edge="1">
          <mxGeometry x="-20" y="195" width="100" height="100" as="geometry">
            <mxPoint x="140" y="184.25" as="sourcePoint" />
            <mxPoint x="75.5" y="50.75" as="targetPoint" />
            <Array as="points" />
          </mxGeometry>
        </mxCell>
        <mxCell id="ARdxAuYbh6Wd4h013KnK-218" value="served&lt;div&gt;&amp;nbsp;model&lt;/div&gt;" style="edgeLabel;html=1;align=center;verticalAlign=middle;resizable=0;points=[];labelBackgroundColor=none;" parent="207" vertex="1" connectable="0">
          <mxGeometry relative="1" as="geometry">
            <mxPoint x="-27" y="10" as="offset" />
          </mxGeometry>
        </mxCell>
        <mxCell id="ARdxAuYbh6Wd4h013KnK-233" value="" style="shape=image;verticalLabelPosition=bottom;labelBackgroundColor=default;verticalAlign=top;aspect=fixed;imageAspect=0;image=https://cdn.prod.website-files.com/6340ceb04078362242dd4eb9/636131fe1f44d41e7af2eb78_terraform-logo.png;" parent="187" vertex="1">
          <mxGeometry x="8.5" y="300" width="58.34" height="58.25" as="geometry" />
        </mxCell>
        <mxCell id="ARdxAuYbh6Wd4h013KnK-238" value="" style="shape=image;verticalLabelPosition=bottom;labelBackgroundColor=default;verticalAlign=top;aspect=fixed;imageAspect=0;image=https://logos-world.net/wp-content/uploads/2021/08/Amazon-Web-Services-AWS-Logo.png;" parent="187" vertex="1">
          <mxGeometry x="89.35" y="310" width="54.22" height="30.5" as="geometry" />
        </mxCell>
        <mxCell id="ARdxAuYbh6Wd4h013KnK-239" value="" style="shape=image;verticalLabelPosition=bottom;labelBackgroundColor=default;verticalAlign=top;aspect=fixed;imageAspect=0;image=https://upload.wikimedia.org/wikipedia/commons/thumb/a/a8/Microsoft_Azure_Logo.svg/187px-Microsoft_Azure_Logo.svg.png;" parent="187" vertex="1">
          <mxGeometry x="78.50000000000001" y="358.25" width="69.26" height="20" as="geometry" />
        </mxCell>
        <mxCell id="ARdxAuYbh6Wd4h013KnK-247" value="" style="shape=image;verticalLabelPosition=bottom;labelBackgroundColor=default;verticalAlign=top;aspect=fixed;imageAspect=0;image=data:image/png,iVBORw0KGgoAAAANSUhEUgAAAwAAAACOCAYAAACG02+7AAAABGdBTUEAALGPC/xhBQAAACBjSFJNAAB6JgAAgIQAAPoAAACA6AAAdTAAAOpgAAA6mAAAF3CculE8AAAABmJLR0QA/wD/AP+gvaeTAAAAB3RJTUUH6AkDBgMhSq/B/wAAPXRJREFUeNrtnXl8VeXxuJ85NyE3IDvEXVCxbigu4G61LlXbam1V1GpF3EISjEKBJIi/3m9byQ1YaCO5ISqi1VqNe0XrhlZrXXAXxQrIoqIIYREh6z1nfn8E94XlnLtmns8HRSRz3jPzLjPved8ZoSNRV5eLu3Y30N1A+yHSD0+3Q+gF9EbpDTg40h1FvvxBXY8SR/gMpAFYBawA7wM0tASVJXiNCymNrMMwDMMwDMMw0hjJamffW3sguIfhyYEgAxH2Bjol5oGqIEtR5uLIm3jei7S2vMCoyFrrZoZhGIZhGIYFAMH738L06AF4chIOJ6A6BCQ/xa3ygHcQngIepanTM4we3WTdzjAMwzAMw7AAYGuorw+x6r1jgDNQTgXZLs2jlCaQJ4F7CPEgheWfWhc0DMMwDMMwLADYFHXR/XC5CDgLKMhM1WsLKo/hODP5pPERIpG4dUfDMAzDMAzDAoDPmRkJ05R/LuglwJDsMoN+DHIz0ul6ikYvs25pGIZhGIZhdNwAoHpiX3LkQmAkyPbZbQ5tA/knIlMpKptj3dMwDMMwDMPoOAFAXaQPbngUUAJ07oCmmY3D1Ywoe9m6qWEYhmEYhpG9AUB1pBs54bEbHf9tOrZ5VFGZBTKBkrJ3rLsahmEYhpEW1NeHWLW0N9LWBy+nN+r1wJEeqPYAuqPSA6E7oj1QegA9N/5kDtD1O34PoMDajb9vA9YDLbTXX2oAaUB1BSKrEP0Ix1nIx41L7R5lJgcAkYhDQfg3CJUo25ppvkYcuJm493tKx680dSSB2mgRyq9NEZuMUcdTUvGSKcIwjJQQm3QMeBN8SJhDcflVpsjvcfBXvrcr4gxEdUB7AVX6I9IPZQegd5q0tA1YCrIQ9eaDvALyEiub3iUS8bLOLtVVO5GjM31KcdMjAJheNRhXaxEG2Yj7wXBtNZ5cRfG4mxBRU0giF5XoVOBKU8QmA4BTKKl4xBRhGEaK5urZwHE+JMRxQz/i8rGLO7yz/8mifQjpoagcjnAQsBcQzuC3+hThZZQXUXmCnB7PUljYlvG2mjbxRzjOuz6lxHNS+hJTpuQTbp2A541GJGQz2aacLXohWktt1fnUTSyicPz/TCmGYRgppi7aHc8bCM5APFlFSdndppQkUFt1CKrH+ZSSQ8j9HTCyQ+uyYdEkQowGyaYSsd1RjgeOR3Q87ppPqY0+jsrDiPMQRWNXdGSTpy4AmDbxcKTlZpBds6m3JYkjcZ051E6cwIiK6+xrgGEYRhKoj3RiRXgPHN0HZV+Eg0H2wWVXcNoXMuFGwAKAZKBaFpCki6mZ9CdKxi3vsLoUhOz3JLqjnAl6Jup6xKJPgl5PqNf9WfFlIO0DgEgkh4K8UUAEJNdmsK0mjDrXUjvpFGZUXczFZR+ZSgzDMAKgri4XXbUH6gzE04GI7AvsRwO74RDKsl3SzCRWtSfo6YGtp+KVAFebYjsMDnACyAm4a5YTq7oFabuOognLOpICkjipTt2ebcOzQa4x5z8o9Hha9CWmXXO86cIwDMOvYxm9D3fNejznbZQ7Ebka+DWwB2BHVdNn7RsbsA9TwoyqrqbXDsl2oGVozkJi0Wquq9rBAoAgqYkehdfyAsrh1tcCpy+OM4vaqquJRBxTh2EYxlY7lrsBnUwPaUztn3YEzg9Yak9avctMuR2aMHA5IX2Pmsq/cuOUXhYA+CVWeRnCYyjbW/9KFBJC9WoKwn9nypR804dhGIaRlXi5o4C84GM/GUV9xII/I4xIKa2t71ATvcACgK0aTCrUVl0NMo1UXjjuWJxBuOVx/nKN1VIwDMMwsoupU3sgmqid+h1ZlXe+KdnYSAHCLcSis6iL7mIBwOZSXZ1HbfQfqNqlmqQjh5DrPEPdpN1NF4ZhGEbW0Km1hK9Xjg0WlXF2lNb4Bj/HZS6xqtMtANgUdZHO5Gy4G8QqqaYsBpBd8bx/Uxfdz5RhGIZhZDwzI2FEE52vf0+2zfulKdv4Bt1A7yVWFc2WADH4l6iJbIMX/ifISdZfUoyyLS6PMm3SQaYMwzAMI6NpDg8Htkv82illpmzjOxDQMgry7suGu5bBBgBTpuQj4ftQfmz9JG3og+M9Qm3lgaYKwzAMIyOprw+hjE7S0w6ltvJYU7rxPXHAaYRb72dmJGwBAEAk0on81n8Ax1jnSDt6oDKLmqq9TRWGYRhGxrFq0VnAgKQ9T2WcKd34AX5KU/juTM4aFUxmnkjEoW/4VpSfWZ9IW/oi3sPUTjmKotHLTB1JoQVozOo3VKfNzGwYRuLnGkYl+YknM33iPowYP8+Uv9m8DfIw6DpE1uF568BZh3jrgDXtdgy5iLvuaz/l5bo4bV/+WUi6gpOL6/bA0U540gVPuuBIL9D+QH/QXUH6ATuSugJ9P2dV+O+oDkVEO2YAUBCuAn5lfT/dkR3R1oeYGjmWUZG1po+Ecz3F5aWmBsMwDB/UTjwS5ZBkL5iocyVgxcE2O0jTpygpD+LLyZrN/pt1dbnop/3xvCEIh6AcAQwGJEmB6ZnEolcCUzPNXP6PANVUFgNXWM/PGPYhL3wbkYjVZTAMwzAywVW5MjUOLedTd20f038aU1jYxohxCyguv52i8ispLj8EV3ZCGAE8BSR+Z16kimkTD+1YAcB1lccicq31wIzjpxSEK00NhmEYRlpTW9kfTdkJg3zc+AgzQoZxedlHFJXXUVx+HI43EKgBmhP4xFwcuZPqSLeOEQDcULUTIfk7VuE3U7mCWNQqHhqGYRhpjJSSujPeAJdneraXDs2I8fMoLh9JXPYAuR5wE9RP+5GTV579AUAk0ok2vRPoa70ro7mO6RP3MTUYhmEYaceMqq4oF/mU4vcISAGN4aFmjAyntOxDissKETkC9M0EBQGjmHZtv+wOAArCvweGWI/KeLrgObdnQ0ELwzAMI8to1ouA7j4krEGY7N+v40ozRpZQVDaHUK/BwJ8I/n5AmJCbMcertzwAiE08GnS09aKsYR/y2v5oajAMwzDShvr6EIK/LGpKHYT+THtKZj8caIXBsojCwjaKy69G+A1B3w1QPYdpE3+UfQFAdaQb6twCErIelEWIdzm1lceZIgzDMIy0YNV7pwG7+ZDQihOfRtHYFaB3BLBQXmlGyTKKyu/Ak18ArUF6VEgoI1LHbtkF3pzwRGCnbOsDOY7DM7/8TU6f/M4Z0d645xF99Xnvb/Pf9gLqr4JqHZMnH8DYsRtsVjAMwzBSiorfkwZ3UDRh2UaX7K8ow/y1h1OJVe1Jcdm7ZpwsYmTZbGoqL0DkdoJIjQ8geiEzIxMYHmlO51ff/ACg/ejPpcmqrZBMztptT2dwwfYZ8WLvr1+nhU8/6v7n4w8CPrsm/egSvxootxnBMAzDSBmxyoOBo3w6YX/54vdFFa8Rq/wPyNE+JDqgJYAVd8w2SirupKZqCKK/C0hib5rCvwZuT+fX3rxop64uF3VqQCQbbX/5fgc7mdDO2xfM8w68a2Y8eOf/C66gLrqfzQaGYRhGylBG+XP+mU1RxWvf+LO/BtCyi7hxSi8zUBbi5l8FvB2cQDk93V958xxfb1URwl7ZaPOf7NhP0n33f21LMxfMnuVe+ORD7metrQl8koTw+LPNBIZhGEZKuK5qB0TO8una/OVbf/RJywOgS322rgstrReZkbKQ0tIWREcGGMUeTySS1pvLm27clEgv1KnIVptfOWhwWhto9odL9IC7borfsfAdLykPVI4lVnW6zQaGYRhG0snxioFOPtaw/zFi7EPf+vNIJE57RVh/iI6kvt4SoWQjRRX/Bp4KSFovtss/KK2H2ib/Rjh8FdA7G229Z4+ectJOu6ZlANAcj/OnV59zr319juepJvfh6lUSiczaOGEaRvpSM2k7cuI9UHriOT0QuqP61XLs3RGnCfVaQdaDtqF8BqHl5DgfUjimwZS4BUye3IX8th0RpwCkAHQbRMOIhPDogug6hHi7jqURhw8Jucu59KpPTHnGJqmuzkMbL/Ulw+EviHzfonkjEAF8ZPyQfjQsPhW43wyWhYj+AZWfBONL6QnAy5kZANRN3R63+ZJsvPgLMHrQoY6Thtca5q1p0Atmz3LfXLVSUzMAZHcK8n8LzLTZwEgp9fUhVr63K+IMBPYGb2+gP8hOwA7g5eF+JYZX+NZ8pfqVP5ONv/XA9SAWbUJZivA/4CXQOYTkJQrLP+3wuq+buBeu/BjkgHbdMxDcPl9+ONYvdfqFiuXrpXU8wAtBLNoK+jHwPshS0A/AeRdP5uKF36a0tMU6u0Go8WygwIeEBpo6/e17/29xxRpqorciFPp0EkdaAJCljCh/mtqq94Fd/AcADE7nV/3hAMBtuQokK6vEFuR34ZwBe6XV7r+qEnv7Na/shX+7ra6b4tZ4E6iuvt0WZiOpzv7qhXuioYNBD0ZlMA2LDkCky9eczWDJ33i/aS/gdBBwUWLROaD34ObczeVjF3cI/c+MhGnOOwWPMxA5DpftA5TeCaQf0A84ut2OCo6C0xgnFl0A8iair6O8Qbz5v5RG1mWkHlW7EavcLS3aEm9pyDA9Xu5T97WMHt30w0GGV43nXOZrMlGOo6Zqb0rK3rGJO8sQUWqj96Fc4V8WaV0Q7PsDgBlVO9CiF2arjYv3PcDJz8lNm/Z8uOEzveiph91/L3tf02QU7Eyo6Xxghs0IRoIcJaFu0sF4ejLCiTQsOgicbb509lM2FAQ4FORQQu4kYtGXEJ1OU94/NulcZCI1kw7A8a6giV8D3VLwwTcH2Bt0b5Sz2/8k7FITfQ2R2aj+k5XNLxCJeBmhT2EoyNC0aEtuuBiozQi9TZ94OJ6vHdMWCMU2+bdGjJ9HTfQJhBN9WVm0BBiJkY1r0ywQ/wGAMoBIxEnXuev7d8Bb9XL8XMRJY8KhHC7Z54C02f2/d/F87+C7bo6nj/P/+RTnjU73W+xGpjqd0UuprVqApy8Bf0T5MbBNmrZ2CCozCLd+QKwqyrSJ2XEnqrbyWGLRxxHvNZQLgW5p1LoQwmDQMoT/UhBeTix6E3XXbG+DJ0vxHH/OtPJ3SsYt30z3PYiUoBdQHelmhstCQrmvByQpnz7b7Jyur/ndzl1VVVeUi7PVtsP2HOgU5HdO+eH/T1ubGf7kQ+45jz3grmlJx4JxsgfbhX9us4ERfNfSo4HdM6zVvUHLcJwF1ESvoK4uNyN1Xzdpd2qi96LyFHBChrS6LzCcFrHEBNlIe2B3pr8Agr9s9t9d0fwv4D2fre5KTniYGS8LaU8OsTwQWY7XP7MCgG28YUCPrPQ7gJH7HZTyXe1/L3tfD7xrZvzvC+al92dtz6oeGgkZiQszuPE9Ef6Cu+Z1rsugwnmqQk30ClzvbYRfZaDeF1M6fqWNnSwk7hTi78TBs1xePnez/3Yk4oHe4H9MUYyqmAGzkv8FM+96afuV6LsdYZGs3f3/Rf8BsmeP3ikbsG2ey59eec49+aH6+Ifr12sGqOwY6ibuZXOBEbAzuiAL3mIfQrxATeWFad/Sumv7UFv1IMJfgLwM1feLNnCykPpIJ0R8ZuWR6Vs+B4VuAdr8PZe9qJt0ghkxK1kd0GKXrkdbvyMAqIkeAeybrRYdtf/glBXw+N/aVXrUfbfF//Dyf5Of298PnmOfOY2gWZgl79EZkZnEopPTtoXTJ+2BG38eyOzjfKpzbNhkIQ3hM4Ht/EigLf/uLf6p9vsCD/pfHz27CJyNCAFlz5IMCgCErC1zPbhgOzlq+52Tvvuvqsz435veYffcGn+tYYVmnOKU32bseWcjPWkNL8iyNxpDbbQq7Vo1beKheN7zwICM17BjAUCW4i/1JzJzq9NVawDHgJCfc93kXc2MWYanAQUAmfIFoLo6D/hlttpz9KBDkn72f0VTo/7q0fviRU8/6jbG2zJVdQV4a46zGcEIjFGj1gLZVYVXGUdt1e/Tx/mP7ovjPEx2VHKP0xR+1QZOllFTOQQ4zI+bRkjqtvqnV7Y8BrrU51uECHlFZsyswwlIipMZL5jTdBLQPRstuUvXrnJ6/z2Saoj7lyzwBtXfFH946Xua8QpUzrL5wAiYhVn3Rqq/p6bqzJS347qqHQjxCNArSzQ7NytrMHR0xO/uP09QOG7rs/lEIh7iBFDrRi9iypR8M2g2uf9BHd2R9RkS4XhnZqstS/cb4uQ4yfH/17W2UPLMY+7QR+93VzVnzZp1GpFIJ5sVjAC95QVZ+FKC6M3EJu+fshZEIg4hvRVlp+zpKtjxn2yjdnKB74JpotN9t6ONmYDrU0pv8lvONaNmFR0oAKivDyHy02y0YrdOeQzbc9+keP9zVnykh937t/gN77zhZZkae7Bt3lE2JxgB+soLs/TFuoB7C5FITkqe3jc8BsiuI3t2/j8L43/3EvxlpFrGJy3+L/GWln0IPOxbjid2DCi76BmIFFfTNgD4coFauehwJGs+F3+Ny/YZ5HTvFE7oM+KeR/S1F9xrXnnOc1WzdDzIScCTNi8YARFEAPAZyFpE16K6FqT9MqBKK442ovRA6ITSHdglsEl90xzAtnlXAH9Oqkavq9oB0UTfQ1gDvI3yNsL7G22wHrz1ILlfXHoTuqKyHUIflL60X0TeDdjyhAKuWArQbKK+PkTDe5e1V+bZ2gBCbyQSCagwnNwIeqo/EQwmVnkwxRWvmIGzIUDVAb765+eE9LP0DwCEk7LRhrmOQ/HAxBb+mr92tV741EPuyyuWa5YPiJOBMpsZjID60wJksybYxcBbKG8D7+Do+0hoGXmNHzA8smUltGOVPVHZF+FY4Hjgx5CgS1oq/8d1Vf/g8rKPkjejawSlc8BSPZDnUf0nyIOUlL2z1ZIikRy267wr6h2Mp0cicjSw3yZs8BkFu/3PBkwWsXLRzxDp50NCHNe5MbD2rGh6mILwMmBHf0GAFAKXmYEznLpIZ1zZORBZcUnb4oU5X1mMj9/MxTijGLr7Xs5OXbom7MVuXzDPK/nPY+6GtrYOMCpkb2ZU7cDFSXRojCzuTt/5BeBj0JdAXkJ4CdU5FFesCeyZ7bKe3fjrT1w3eVcc9zKEIoJPgNCFEFcC45Kiz+qqnVAdHqDEVuDvqEz25fR/PQCIAws2/rqjvd0T+5LjnITIz1D9Kd/OWvQyQ4e6GdOvlf8h8kx6tEXmpengHwG+9stmbTy6Q2D9MhadCUzwaftzqY6MoTSyDiNz8fL2JJiNIY+2Tml71LU9AJg8uQsSH5SNdrxy0JCE7O6tbG7UwqcfdWctWagdamC0cQRwt80QRiDOeCzaACwF7kXlvsAczc3l8rGLgQpilZNAxgBjgAAvu2shddFrKCz/NOHvkstwlIDuHcidaNtYSiZ8kPB2l45fCdwG3EZ9fYjVCw/BC10Aej6wDUhmnf8XeZbiskIb4N9DrHI30JN9bh5MD95uOgOV8T4dv23IyfsNJKB9RjIJ6g7V++mcvax9sQjHh7Sf3cwyC+7UTwb1Lgh89/+xDxbrZU8/Ev9ow/qONyxULQAwgiOUszeFY1JfD6D9y8BVTI/W48ltoAMDktwNl4uBKQkel0Jt9OIAzqy2olxKSdnfUmKH9p3+54HnqY6UkZt/ASpzbaBkE85loH6c7Pf4pPnxwJtVVLGEWPRx8HscWgotAMh0P0d+FpCkd9N6JLb/Uw7LRhteuX+wu/9N8TbGPPeke+rDd3dM5x9AOdxmByMw0sH5/yojyt8g3nQkwuwApZ6d8HbXVO0Dvs5Ut49ulfMoKf9bWtiiNLKOorJpFI972gZKllBdnQd6kc9uegORSGKy7EkQlYE5gGkTDzVjZyixyp5AMBkPhbS+u+Rs7PQHZJsN9+zRU366U//AAoBXVi7XIffcEq+e+4qnHXp06EDq6nJtljCyltLIOto6/xzkvwFJHEJtZf+Etlk4IQAp0ykps697RuLIaTwL6OtDQpyQl7gAtXfLg8AK/+PRsYvAmUr7Re5gjoF6+nz6BwDI/tlmw98dcKjjBHCpOe55XPv6HO+YB26Pz1+7Rm10SB7xtQNMD0Z2BwGlLcTdX4EEcQZe8PhVgmdyvztWTeS6/2eGNxK8fozwKeBRCq/6OGHNGxppReXWAEb8OUyd2sPsnWHURzqhvqtTf46L6hPpHQBMntyF9tzMWUNBfhfO2X1v37v/769fpyfNqo+Pf/Fpt9V1bXB80Wt0P1OCkf1BwPiVqHcJPtOVbHQIjk1wa/f09dPKI1x61SdmdCNhTI8OAj3SnxC9JeHtDLk3BSClM+HW883oGcbKcCmwQ0DSXmbk+FXp/Lo5dHUH4OFkkw1LBh7ohHP8JcO4fcE87/JnH3c/a221QfFtb2ZP08Fm0b0940WG4+W6jByztENasKTiMWqr7kD1XJ9j5khUBZHgvyJGIg7KHj6l2Dl7I8HziO/Un6uJd/lnwts5Yvw8YtHngCN8BiuXAdPM8BlCTeUAhCC/gj6a7q+cA/TPJht2zsnl0r0Hhbb259e2NFP67BPuHQvf8WxEfN+8pruaEjaLC0AuyPi3cOIN+Du3m9m4bgTHGQqEfEjp3X5Rl7cDb1+vTr0Bf6XOQ94CG65GwqiOdAM9z6eUf1Ba2pKcNU5uQtRfAKDsR030CErKn7MOkO79szoPabwFAiyiKHp/2i/teF5WOXMX7Lmv0yd/62w4+8MlesBdN8XN+d8k/U0FRodh5Pj5oP8KYLZNTK0Vyd3Gt4y4s94MbSSMUP75QFd/40duTl6Dm+4E/I8JwepBpDuqQm7TTHx/8fkaz1FU8Vq6v3oO4uxCllxtdUQo3W/wVh1nmrX0Pa/27de8fXr2ZZ+efZNWEvnDDev435rVmWUBtQDA6GiLhDMT0V/4lLJ3Yhrn+g8AHOlhRjYSRnulbT8C3mJE2ctJa29JZD2x6J3AxT4lncWNU0ZxyejV1gnSkEjEIRadisi5Aff36zLh9XNQts0WW57ab3dnQPeeW+W8/6Lf7s4v+u2e1LsQ9y6e7xU9/Wjm3S4WChJ2ntkw0pKmxyDcir/0cIkJAHJx8P3N0tvObGwkhJroUb4L64l3c9Lb7Xgz8By/AUA+La2/Bf5qHSHNmDIln/zWv6GcGbDkj3F63pMJKnCA3tliz1GDhmTEZeZPW5u58MmH3HMee8Bd09KciaruxHX/1xXD6CiURNaDvuhTSmLS57q6IYCofmczspEQBJ+Fv4iT492W9HaPGP88MC+A97/UOkGaEZu8P+HW/ybA+QdlCoWFbRkSAGifbLDn4ILt5IjtdpJ0b+dTy5bqAfUz47cvmJfZ9wxy83rZLGJ0KBS/Zzq3T0i7crwAAgA9xgxsBE5NZBvgLJ9S/pXCFLUzApCxLzXRI6wzpAF1kc7UVv0e3JeAAxPwhPn0ba7OFHU4QPdssOvvBh2S1rv/LW6cCXOecU956K74sg3rs+HoTE+bTYwOhSN+dwP7UF8fCr5hfRqAuD8ZciTTru1nRjaCHTN5QwF/d1Q0mZd/v0HcuxXwnwvcsa8AKWVGVVdilWW44cWoRgiq0u+37OyNYmgkY3LHO4h0ynTb9uvaTX7Zf4+0DQDeWbNKj77/tvik1170PM2SY/OudsIwOhKe7xSeDiuXBJ9Otf1z8xLfbXPcyWZkI1BUhvuU0EDfplkpa3/p+JXAg/71wFDqot2tQySz76kQm3QMtdGZtOhHIFGgIIFPfJAR4x/OJBXloGS8I3fF/oOdHMdJw/6n3PTuXO93/33SbYy3ZdnocvJshjE61oLivYP4nGdEuwPLE+BozUfU5x0DPYva6DkUld9hxjZ8M23ijwB/lX9Vb0+DHdUZwBk+ZXQmLucBMesYCe1zvQk5x6OcTG3VycD2ScpyuYxcN+O+8uQAuZls726d8rjgRwPTzvv/pGmDXvbvR9x/vb8oSzPliAUARseioXUNBWEFfNw1SlDgLDwL/Mx/IMF0plctTGrKRSNLlwhnuL+xAmjolpS/R5/dHqNh8Qeg/i7Ki15qAUBQIVlVVxq1Pw79cfRH4ByM6hBgQArS2rfieGel8J6KrwAgoxmx7wFOt07p5Yvet3i+V/zMY+6q5qbsHYCOZylAjY5FJOIRi67HT0Ej8cIJaZt6TyAyMQBJ3fH0cWoqf0pJxUtmdGOrqK8P0bDIXxV0YS4jx72a8ncZOtQlFr0FmOBT0gHUVA7J6nElzgBilVt26VtEUO2x8b96fjEP4Tig3UBCqPZF6IvSB2E7WrTHF3XZVSCVxaxURm3MGJVx5BDEBZcUkes4FO17YNrs/q9rbaHihafdG955owNUEtYWDKPjsc5XAKAJ+nK2suUVCvL971K20wORx6mJjqW47Ear92FsMQ2LTgZ28LfE6K3ps9zpLYhchd8vGo5cCmRxYK0ng5y8ZT/C96hVv/y3fBEUphsTKSnL2K86DmjGHk4/e8Dezo5duqZFl3jxk4/00HtuiXcM5x+QkAUARsdD+cz/nJsAIhEP9PoAJXZHuJ7a6NNMn7iPGd7YQvxe/vUQ9/a0eZuSioXAfwOYP87ZmBrVyHx+T3H5VZn8Ag5Kc6Y2/or9B6d89z/uefzplefcYx+4Pf7euk87zk6Z2BcAowMipG/l7lz3BqAx4Bc+Gs95g1jlzdRUDrAOYGyS6ol9gVN9SnmSognL0iv4DyQdaVcIn2udJNPRcorL/5Dpb5GDsAbYNdMafvxO/WVQ74KU7v7PX7tahz35kPvKyuUd7xO5m7vaJoFNOk+PgHdT5r+Hk7nB3oyqrrR4OXjqkOt0wdXP0Ja29sq+WcalV31CLHot8P8CXyeQYQjnEav8O45MZUT5Gza+je/uLaHzwG+aaLkt7d7LbbqLnHA10NnnJsKlwA3WUTKST1G5iJLye7NiqII0ZGLDr0zh7v/n6T3HPPeku6GtrWMOg5zPVtlcsMmesoDiirtMDwniuqodcLyBCLuB7A7sBmwH9AH6Aj1p2Zi0xxHa9+4FJAyxaBOwDPRjkGUIH+PJQhz3Ddpa51IaWZeROtkQmkQX90JglwStF8PwGEas8j8oNeT0ujdTyt4bydr30It83slsJI/0c7BKI+uIRe8FzvcpaQg1kw6gZNzr1lkyildAh1JSvihr3DjQ1el4s+KH2KtnL/npTv1TEgCsbG7UwqcfdWctWdiBL8ZpE4WRRpsPjKRRXZ1HTvNh4B2HymBEDwLdzsfclQ8MAGk/1qKAKKgDOWGIVS4F5x3Qt0DmIfGX6L3HOzSk+dw/duwGaiuHoTKbRN03aPfyjkY4GnfNcmJVt+K4NzNi/DzrqB2c6VWD8XQ/n1Lu5+Kyz9LzBfUWkPN9i3HcS4ES6zAZQSvIX4nnX01paVYdfc4BZ3lKUyhtBaMHHeKIJD9oeXDpQq/w34+6Dc0d3feVT2xOMBLOtIm9ceQskF9B41F8/uk9KUlppB9oP+BkUNAQNCz6DDKgcGJRxb+pqbwGkauT8LTtQMfiOWOJRecg3IzqHRRXrLEO3AFRb3gAG4q3pe37rWh5koLw+/j9wqbyG+oiY20jLe079D9xQmMYMW5BNr6dg3rvZ1KDC/K7cM7ueyd1978p3saY5550z3jkPnP+AYQlpgQjIUQiDrGq04hVPojjfAxSC/wUv+dug6ErkBkF8IrLfw8ku6LvISgxkGXEordQO/FI69AdiJmRMCr+Lrgqn7Ci+fE0np88JJD0pD1w88+yTpO2zAE9keKKX2ar8w+Qg8jiTGrwyP0OCoVzkle/7OUVH+uwJ2e5Cz5da7mwv5ikdbEpwQiU6uo8chsvRBkFumemHUtMvyBdlOrqC8nZ0BnktCQ/PR+4AHUuIBZ9G5HrUe9W+yqQ5TTm/Qr5opDTVvZb/kEkEk/vsRW6BfXG43eSEr0IuMU6TtrgAfejTKWk/NmO8MIOXubs5nbOyeWSvfZPyu5/3PO49vU53jEP3B435/9bLDEVGIFRU3UmOY3voEwH9jSFBERpaQsrWs6AlBZU2hfVv4IsozY6k9jk/c0wWRt0XuRfiN6W9u85YtwCkOf8vypHW2rdNPFnhEmge1BcfkZHcf4BcmhoXkBBuJUMONs6bM+BTp/8xJ8EWPrZpzr8qYfdZz/+0Bz/7wwbxS77GQE4/pUDcGQGqj82ZSSISCSO6jCmR99AJUp79fdUkI9yIbjDqIk+AXotxeWPW5XhLGHatf0gfpxPKfMornglM17YuxnE7xE3weFCYIJ1oKTzPip34VDPiHEvddR5yCESaQXmp7/PKZTuf3DCd/9vXzDPO/Cum+Pm/P/Q3KdzTQmGL2JVwxB5FcWc/0QjohRV/Bmc44BUH98ThBMReZTpVW8QqxpGfaSTGSnDCbkX4jvrlNyWMe8bb6kniKJ76lxAJOJYB0o4HyHyD4QRhLy9KS7vR0nZGIrK5nTkTYjPd4PmAgPTuaGn9Rvg7N6tZ8IOBjc0N2nR0494DyxZ6NlY+UE2sKJlianB2Crq60M0LKoDvdiUkWSKx/2HGVWDaNEqoJCEpgndHOeH/UBvpiH8B2qqqnDzZ2Rbmr0OQSTioDrMpxSPkP49Y965NLKOmsr7EDnP5yDYmb55JwCPWUcKBBdYBMxF9W2EuTih17P5Iq//AED1dUTSujz1qEFDErZYPfHhEr3k3/+Kf7RhvfWITU9YbxCJWJBkbDkzI2EaFv0DON2UkSLa86sXE6ucgTrXIXp4GrRqF0RryGkso6ZyHMXl9XY0KIPYNu9YlF19SnmGwvKMykiIcDNwnn85MtwCgM2iGViz8ddqVJcivA+8D/IBHkto7bSI0aObTFVbFgA8h6Rv1o0hBdvL4dvtGHgDm+NxJsx5xr1u7iuerTabPVv913RgbDF1dbk0rbkfOMmUkQa0n7U+gljVaeD9ESQdLufugsgd1EaLqJt0MYXj3jNDZQAeFwWQtKuAWFV9Zr24OmwsIehT0OnEKntmR5YseQS8m7b855wW8NqPVHnSiqMbNv6+GZU1tOWuMcc+UQFAbu9Xcdc0kh65tr/FmAMOCXz3/+3VDXrBkw+6c1c1mO+/ZTxnKjC23ElYU2POfzoGAmX/RPVBYtETcaQY5RdAKMVOxDG43uvEKn9HccX1ZqQ0ZurUHkjLrwOQtA/oPh1Ui2HUOReIZfybqLeQkoq7bGBkBu2OdWFhG5CWt+/7de0mp/YbEFgAoKrUvPWqd+i9f4ub87/lbhyh5hdNDcYWUVM5CuVSU0SaIqKUVDxGUfnphNgN0WtQUl3texuQOmLRG+2ScBqT13wO7XUfDH+eyXDTgZFscr7i2s3G4eh0a+CV+w9xcpxg/P8P1q/Ti576l/v0R++b4791vEZhpMHUYGw206L7IlQm6WnLUObhsATlY4TlqCzDYwOOtxbBQ/kUnFzwtsHRTnjSBUc74Tp9cGRXVPsB/YBdgf50tIpk7eewJ1Af+QOrwr8GilKcqeliGvIGUB05jdLIOhtQaRc9muMaiBoZzHXR/bi83DLsGSkIAHAeAS+STo3rmRdm2J4DA/H+71083yt6+lF3TUuzWX2rJyl5xJRgbDbtGX9uAvIS9IQNwAPAQ6jzJCXjlgcqfUZVV9rcgaizP3AKyskJfJf0YmikFbgDuIPaawaioWLgfKBrCiaeY8gJP06s8mSrJpxG1F4zEOUQU0Rg3thwYLQpwkh+AFAy9jWmV32Msn26NO6yfQY52+T6+/r7aWszVzw72719wTzLXOMX5VFTgrHZrFp0CSTEQXgXdAqhltsojDQmrP3tGXOe3/irjrpod1xeA98ZTzKLoqveAoqZUVVGM79FdCSwd5JbcQjwAPWREzYGJ0bK14OQ7f4Hu76eR11d2cYj2YaRcL7cXRdRlIfSpWG5jkPRvgf52v1/atlSPaB+Ztyc/0Bmp+X02fUl04OxWdTXh1DGBCpT+BDV4axo3ofiiusT6vx/F4XlnxJE8Z9M5eKyzygpi1FUti+enIByH+15t5OEHM2q8DQbXGlAXV0u7V+EjOAowF37c1ODkSy+XhZe9G5ULkmHhp07YG9nhy7bbNX52xY3zh9fec699vU5nqd23D+gxfcehg51TQ/GZrHqvdNBBgQXf1JPS14ho0atNeWmeioQBWYDs5l2bT+c+EjaC4sl/niQcimxqlkUl/3TDJFCvNW/ACkwRQSu2OHA/aYHIxl8fYe99+5PIynP/gBA6f6Dt2r3/501q/To+2+LT3rtRXP+g114LbWXsQX9RS4LTpb+kZLys835T0NGjllKcflYOnXqj8j/AxKfJEC0hupIN1N+SteDi0wJCencP+OGa7Y1PRjJDwCGDnVR7k51o07ceVfZv3fBFu3+qyoz/vemd/i9t8Zfb1hpnn+ws/1SVja/YHowNosZVV2BYwKS9gdKKv6fKTXNuWT0aorK/siGUH/gdwkNBJSdyAlfaUpPEXXXbA9ysikiIeTQGvqtqcFIfgAAIO6MVDfqyv0O3qJCNJ80bdDTH7k3XvT0o25j3O7PJGDBvZlIxO5RGJtHMycSSLYcuYuisogpNIMYO3YDxeVTCDEAtJLE3Zm4InFfAcTnBpKXm9U2jofO45vHh40Au58MMyUYqQkAiq56C3ROqho0sFcfOWGn/pu9+3/f4vneAfUz4/96f5Ht+ifG+3eh099MD8bmzyre8QFIWU6n3BEbz5sbmUZh+acUV4xH4j9CqU/AE3qRm39BYqY8/O0iiXTJcq/hAuvgCV1zBzJt0kGmByP5AQCASsrKr48adIgjsmn/f11rCyXPPOae/dgD7qrmJrNk4rYjHqHkdx+YHowt6DMDAxAykUtGrzZdZjhFE5ZRUn42KmcAwdZpUE1QFhrxFwB40jlr7Tlt0kEo+1nHTjAhz4IsI0UBgNv5ToSPk92YbTt34azd9tzk5d8XP/lID73nlvgN77xhx1ISjjfFdGBsmWPGPj4lNNGSd6spMosoKbsXzxsIPBGg1EOprewf/KqoPr8AeNn7BcAc02TNob/ZmGrVMBLGd5/jKy1toSZai/CHZDZm5MCDQuGc7z9aGPc8oq+94F7zynOeaxl+ksErFI//j6nB2Gzqru2DG+/jU8oLlvEnCxk5fhWRyCkU5N8OelYwjpJzDLAkYOfLX6ExzdIjQHV1ubhrzg1Av/ch+mL2dnS5GvDbB/rirj0FsHS3RpIDAICW5usJh8cB2ySjIZ1zcrlk70Hfu/s/f+1qHfbkQ+4rK5eb55+0eUyvNSUYW0Zrn+/7sLgFDsKLpscsJRKJU1d3Hu7aHUCPDGCOOhK4JeAA4DPET5vIziNA8TUnIxT41q7oGIorFmVtH6+tGoTquQF0xAssADASyfev1KMjqxFNWtXF4Xvt5/QO5397CGxM73novX+Lm/OfVObxSct9pgZjy5wE8V8MSnSpKTKLKSxswwudRxAZgpRBgbdPWOtTQvcs9Rb8H/9ReSGrnX8AT/8RkKRfcOOUXjZhGMkPAACaW6YAaxLeCBEu3+/gb7VlZXOjnvHY/fGipx91N7RZes8k94zfW+pPYyv6TQABgKw1RWY5I8csRakOQNKuCWid3zVvu6w7v33jlF4opwYQ3P896/t23+ZHgSASGOTR1nq2TRZGagKAUZG1qFYnuhGn99/D2a1bj699dH3sg8V68F03x2ctWWi7/klHX6WwzD49GluzwId9y/Ck1RTZEYjHAL/ze18mTw72zL3/ADSEu3rnrDJVuyPqt7ZHG3GvPuu79dBIK8I9wSzFWE0AI0UBAEBL3hTg/UQ2YtSgIV+0oynexpjnnnR/8fDd8eWNG8xCqcCTcZZ/3di6BUv8H+sQ7WyK7ACUTPgAeNW3nG5u72DnP/WfrlT5UXaN60By/z9G6fiVHWQivCMgQYcSq9rTJgsjNQHA6NFNCBMS1YAhBdvLodvuIAAvr/hYB999c7x67it29CRl85bezcjyZ0wRxtY5T/iP2kV6mCI7CvJSAJ0u2IBR+NC/DOfArDFRuwN6WACSbu8w3fqTln8DHwW0KFvqVSNFAQDAiLI7QZ9LRAPGHnioE/c8rn19jnfMA7fHF3y61naeU0cjOVJuajC2mpAG8NlOdzNFdpiI0f+F0LacgAMAN4DChzo4e2wUiAO6ng2hBzpMt26/PxfUcafziUQcmyuM1AQAIgpOIWhLkA/ftVs32b9XX/nprDvj41982m3zbOM/tfO8/pHC8vdNEcbW96HcBv8y2NcU2UEQWZd2bWru/GEAUn5CJJKTBY6sAwRRcfl+xo7d0MH6dlDZgHZh27xjbbIwUhMAABSXvQsyOciH9w13YfDdt8Sf/fhD2/VPvef2Jjm9qk0Phi+Kxq4APvMp5fCscJ6MzfGS8nyLyPHd377OqFFrUT7xKaUnBZ0Pz3jztDueu/hfXjpA9p9vMmLcS8B7wSzPYpeBjRQGAADxzlXA20E9fM6Kj3V9myX8SAPnvw0NXUJhoeVaNYJgoc+f70rfvONMjR1h6mEH/zFE2/rg45Ig1rksOLsdzOXfFaxseaLjxbaiQFBfAX5NTWQbDCNlAUBpaQuOdx7QbKrLKiKUjHvd1GAE5DQs8L94OpeYIjtCX9GDfEqI07NtVQLa9VYAQs4hVtkzY20zeXIXkDMCkHQnkUi8Q/Zvj6CyAW0D4V/bhGGkLgAAGDF+HsrVprqs4T/02X2KqcEIDJHnA3CeziA2eX9TZhZz45ReCMf4lLKIoZHgPyM7vBGM0yZjMtY+nd0z2t/BrxPs/b3D9vGR5W+DvhlQn7RsQEaKAwCA4rJqhIdNfRnPCqTTBQwd6poqjOBmFX0qkLlJvelZV1HV+JKWllKgk08p7yamD0tQR1auZPqkPTLUOwjC4VxIScWcDt3Pg7oMrPyEmj/tjGGkNAAQUZqbL0T1PVNhpqIungynaPQy04URKMub5wL+swGJHo675q+oiil1M6itOoSpU3tkRFunRfdFZJz/aUxeTEj72rOhzQtAUmc87zamTMnPqL5U86edUX4SgKTbraik3oH/itft/prk/NYmOiO1AQDAqMhaHO8swMr1ZuScxHhGlj1uijACJxLxQO4NSFoRtZNi1Ec6mWI3Naa1jryW5dRE76W28gxmRsLpGahU9sfRhwD/TnGIRxPY0kcCknMI4db728/UJ4nqSDdqo4XURO/cuuA793xf/sHndOTjP1/MYBVLgOcDkmbHgIw0CAAAiq56Czgf1I6QZBZ3Ulz+F1ODkTCEGQF6tiNoCD/L9ImHm2K/h7pIZ2AgkIfwK1Tupim8nNroTKZXnUh9fSgt2hmL/hyVOSD9ApC2guVNryasrZ4TpPP6U7p4L3BddL+E6rcmehS10ZnkhD9CmY4wlBuu2XYrgskgHM2XGDl+vg1OILgqyHsybeKhpk4j9QEAQHH5Q6AVpsqM4WninS+xz7JGQikqmxPY5bd2huA5zxGLPsn0qhNNwd8gHj4I+GbthO4oF+LpYzQs+oDa6F+YPvHwpAcDqkJt9CRi0YeBWUDfgKLMWzZWXE0MI8e9ihBggKEDCfEqNdHp1E3cKzinv2pvYpVl1ETfQfgPyoXAl18b4s5RWyRv2sRDEfy3T7Hd/88J5dwJBJNmOyT2FcAIhGCK7RSP/wu10V1QRppK05q3CHEmxaUtpgoj4YhUooHlwf6cn+DpT4hVLgV5GMebRWP4KUaPbkrou0yd2oPclv1BugVznDdoXXPIJv7G9ihXoM4VNCxaTaxqNniP4YVepUvjPIZHgk3tXBfpjJt3BMqPqa06G/hRwG/sgTc9CcHLDSC1ga65QiGucxmx6MvAoyhz0Jw3aXVW/GA/jlX2RJ3twNsZYRDI/sBRoP1B4HtvysiRwD1b5GD67+IuOHditFM4poFY5b9ATvPfJ+UcqqtHU2rruJEOAQDAiLLfURvNB7nY1JqGqL5Hq/dzRl31qSnDSAojyu6ktmoMcHACPN5+QBGeU0S4tYVY1QLQd0Hng/MuqqtRacTx1qJOI+K1L5ae5uBI1y/EONoJT77cLZVQGHV3aC9QJTsjsgN4e0PLxiMr6frhTA7Zgrb1Aj0L5CwcD5rCLrHoeyhvI3yIyErU+xiVT77QIUBIN+BKK6GQ4Lo9vtClhMJ4uguO9kOlH+huuBwA5JKw69tyF8XlixKu1ua8Wwi3TgB2DDxkgyHAEASQOISBWLQZWAM0bvw7AvQAOgN5iMKWKlXZ/C8A1dV5aOM5AbzfbErGLbdJ8Kt2cG5F9LQAJPUid8MvtiioM4yEBgAiSn39SBoWbQOcbapNp4mHD9Hckxk15mNThpE8n1SUmqqxiM7ecq9li8gDHQgMbH+MbnSdNjpLX3WanG80w/vGf6vH13dTNcFND2yQ+zkXHAJ+hGzcpVf9Ugdf1Z37+b836uhzXar3hdqTFCA1EtJxSVHr6NFN1Eb/iDI9SYYMA9sHLPNAJk/uwtixm07YEWr6eXuA6HvNseM/36Rz0yyawms3BnR+9XuBBQCGX5xApQ0d6hLqeRGq9abadPELdDGOHsfIMUtNGUbSKSl7CtUaU0QCqZ1cAPTvQJHlnzam6UzSKtnzJhJVbyA55JDvHbZ5qvWGBRKgheU+G5jfYHikGeGugMbAKVRP7GtKNdInAAAoLGyj7+7DUG4y9abc+38XJ++4jWnIDCM1dG4ZizDXFJEgPLfjZAURZtNn10lJfWZhYRvIhUDmZrtz9MhN/p3qiX1BTgngaf/k4rLPbGB+15Ls3BqQpFxyQ+eaQo30CgCg/UtAcVkRwlRTccp4ibgeZ4W+jJQzPNKM650JrDBlJMSrGNJBXnQRrnd2SiqXF5e9ADopg3W36QCg3aH0X3lbA0t5mX0UjX0WWBzQuB9mCjXSLwCA9vO/ReVliI4A4qbqZPoDPECo+URKx680ZRhpwcjx8/GcU4B1pozA59pDOsBbvkeInzBy/KqUtaBPSwRhdobqb9PpX4PJ/b+KnJ6P2KD8Ab+IgO5HKAdRe81AU6qRfgHAFxFvxU143pm28CdrguHPrGw+m8JIoynDSK8gYNyrON7JgAWmgQX7+nk2mWzmbTT+k6Se+/8uhkZaaWv+NfBGBuqwKyuWDPre/zstui/BZOuqbz8yZXwvnndrcOM/x2oCGGkcAACMHP8wqocBb5nKE8Z60PMoKq9IaHEcw/DDiPHP44YOBeaZMgKgpnIPgsjakr7cgTYfRsmED9KiNaWRdbjys4y80xLS708H6kgwx0ns+M/m+EPzgRcDigDOS5sq34YFAN9LScVCtPnHliEoEei7qBxJccVdpgsj7bl87GLy5DBUpwEWrPqawZ1sPf6zBuUyisvPpSSyPr36b9lHtDUfBZJZR12877kIXF8fAj0vgCcsobjsvzYoNwOR2wKStAMr37PK6EaaBwAAJZH1lFScj+i5wFpTfxC+v/6dDTmHUVL2jinDyBguLvuMkorL8bwjgJdMIVvrSOi2WRZEKXAbue7elJTfkLatLI2sY0XTqYheA2TGkRdhl+/881WLTgB2COAJt288425s0vMK3RFYv3EcOwZkZEAA8DlFFfeQGzoU4XkzwVazAoczKKkYvlkFXgwjHRk5/kWKyw8BPRGYYwrZ4rn0z0h8F5QrQTJ599UDnYXnDKa4/LdcetUnad/iSCROUcUEXA5O4yDWA54AHcqK5qO/JzIYFtCT7PjP5lI4pgEI5guS6ulMndrDlGpsKTkpe/KlYxejeiy10YtBokA3M8dmcw+h5sspjDSYKoysoLjiCeAJaiceiedchDAU2CbD32o98DbCmyhzUXmLzo0vBv6UognLgL8Cf2X6pD3wvFOBnwNHE0Rax0QifIjyN1RnUlKxMCOtfHn5XCKRw9g2fCaqV4Hsn+IWtaAyG/EeINd74AeDqepIN1R/GcAzX2dk+ds2kW2J4y5/Q/TUACTl06n1DGCGKdXIjAAAPk+JdSM3VD1Cq05F+KWZ5AeZj2gpRRVPmioS7pjMR3nCp5R3TZFb6syO/y/wX2oiV+DknYTKKcApBHNEIfAlHPgYWPLFL2UJIVmC571HUfnipB+JGDFuATAFmEJdtDseJ6H6C5Dj00iH7wL/wpNZNDQ9lRVJC9rfoR7Vu6it+hkwFPgZ0CdJLViB6uMID5DnPLLZhbhyOh8I3nMBjIRbMbaMzk2zaAr/K5AgXXQ3/zbU+SD+1jzHsTUvGXihRhz165+4klYvdV3lsYS4Ng12UNKNtaCTiXepprS0xdRhdChUhesr98R1BqM6BJGDgB8BBQl64jpgOdCAsLLdueITdON/iy7H1Q/xtlmaUeOxpnIA4hyN6lEI+2zUYaIzCK0DfQORl0FeIe48x+VjF3eIfltfH6JhyRHgHQ0ctPHXrgFIjgMLUOYivIjDbArL3rTz94ZhbFHcmJaT5qr3hqEyHr7n0lLH8XyaQK4n1Fxlx30M4xtUR7qRk7cHODsiXh+QAlR6AD03jp8wSD7oepA2VBWRtRt/+lNEV4M24DmrCelqWmUV5K/sUEF23bV90NY9cGUXRPog0gfV3kBvkF6g7V+JlR7It9aLJqAZtBFkFbAKZSXCRzjee7Sy0IoRfoOpU3sQbtwJDe0Msh3oziCdUS8fccLg5YPTCfj0i/4qbMDzPiCkK2hzPmCb5gUMjzSbMg3DyK4A4HMikU4U5F0ElIHs2MHs0gzMoMWdxKirPrZuahiGYRiGYWR/APA5dXW5eKtPQ2U02V/xsgGYSShvGoWjzPE3DMMwDMMwOmAA8FVqrvkJEroE9DSQvOwxg85BuAmn5Q4KI43WLQ3DMAzDMAwLAL5KXaQPXqff4Mk5iAzOUKd/GcjdeNxs6dMMwzAMwzAMCwA2l9rK/ngyFOFU0MEgofT1+XUxIg8j3t180vp8VqS/MwzDMAzDMCwASBnTJvYm5ByP6onAESB7pLhFDai+ADxJKPToxhzdhmEYhmEYhmEBQEKojRSg+YchHIh6+6Hsh9AfJBHv3QDMBd4CeRN4gaJx8y03s2EYhmEYhmEBQCqZMiWfLs39cJ1dQfshzrbfyHudB9r5G2pqA1mPaiMOq1BtQOUTkA9QWQLxpYwcv8q6k2EYhmEYhpHu/H+ikWtVNMfr+AAAACV0RVh0ZGF0ZTpjcmVhdGUAMjAyNC0wOS0wM1QwNjowMzozMyswMDowMFMDpX0AAAAldEVYdGRhdGU6bW9kaWZ5ADIwMjQtMDktMDNUMDY6MDM6MzMrMDA6MDAiXh3BAAAAAElFTkSuQmCC;" parent="187" vertex="1">
          <mxGeometry x="8.5" y="368.25" width="54.1" height="10" as="geometry" />
        </mxCell>
        <mxCell id="170" value="&lt;font style=&quot;font-size: 14px;&quot; color=&quot;#000000&quot;&gt;Data preparation&lt;/font&gt;" style="swimlane;whiteSpace=wrap;fillColor=none;swimlaneFillColor=#BAC8D3;fontColor=#2F5B7C;fontFamily=Tahoma;html=1;strokeColor=none;opacity=50;startSize=23;" parent="1" vertex="1">
          <mxGeometry x="10" y="90" width="155.5" height="390" as="geometry">
            <mxRectangle x="20" y="20" width="80" height="23" as="alternateBounds" />
          </mxGeometry>
        </mxCell>
        <mxCell id="171" value="Raw data" style="whiteSpace=wrap;shadow=0;fontColor=#FFFFFF;fontFamily=Helvetica;fontStyle=1;html=1;fontSize=12;plain-purple;strokeColor=none;fillColor=#2f5b7c;gradientColor=none;spacing=6;verticalAlign=middle;" parent="170" vertex="1">
          <mxGeometry x="17.75" y="40" width="120" height="60" as="geometry" />
        </mxCell>
        <mxCell id="172" value="Data cleanning" style="whiteSpace=wrap;strokeColor=none;fillColor=#2f5b7c;shadow=0;fontColor=#FFFFFF;fontFamily=Helvetica;fontStyle=1;html=1;fontSize=12;spacing=6;verticalAlign=middle;" parent="170" vertex="1">
          <mxGeometry x="17.75" y="141.5" width="120" height="60" as="geometry" />
        </mxCell>
        <mxCell id="173" value="Data Transform" style="whiteSpace=wrap;strokeColor=none;fillColor=#2f5b7c;shadow=0;fontColor=#FFFFFF;fontFamily=Helvetica;fontStyle=1;html=1;fontSize=12;spacing=6;verticalAlign=middle;" parent="170" vertex="1">
          <mxGeometry x="17.75" y="241.5" width="120" height="60" as="geometry" />
        </mxCell>
        <mxCell id="174" value="" style="edgeStyle=segmentEdgeStyle;strokeColor=#2F5B7C;strokeWidth=3;html=1;endArrow=block;endFill=1;" parent="170" source="172" target="173" edge="1">
          <mxGeometry width="100" height="100" relative="1" as="geometry">
            <mxPoint x="167.75" y="377.5" as="sourcePoint" />
            <mxPoint x="267.75" y="452.5" as="targetPoint" />
          </mxGeometry>
        </mxCell>
        <mxCell id="175" value="" style="edgeStyle=segmentEdgeStyle;strokeColor=#2F5B7C;strokeWidth=3;html=1;endArrow=block;endFill=1;" parent="170" source="171" target="172" edge="1">
          <mxGeometry width="100" height="100" relative="1" as="geometry">
            <mxPoint x="157.75" y="90" as="sourcePoint" />
            <mxPoint x="257.75" y="165" as="targetPoint" />
          </mxGeometry>
        </mxCell>
        <mxCell id="ARdxAuYbh6Wd4h013KnK-221" value="" style="shape=image;verticalLabelPosition=bottom;labelBackgroundColor=default;verticalAlign=top;aspect=fixed;imageAspect=0;image=https://upload.wikimedia.org/wikipedia/commons/thumb/f/f3/Apache_Spark_logo.svg/1920px-Apache_Spark_logo.svg.png;" parent="170" vertex="1">
          <mxGeometry x="40.730000000000004" y="340" width="74.04" height="38.5" as="geometry" />
        </mxCell>
        <mxCell id="183" value="&lt;font style=&quot;font-size: 14px;&quot; color=&quot;#000000&quot;&gt;Model Traing&lt;/font&gt;" style="swimlane;whiteSpace=wrap;fillColor=none;swimlaneFillColor=#C2D3B1;fontColor=#2F5B7C;fontFamily=Tahoma;html=1;strokeColor=none;opacity=25;verticalAlign=middle;startSize=23;" parent="1" vertex="1">
          <mxGeometry x="172.5" y="90" width="174.19" height="388.75" as="geometry">
            <mxRectangle x="172.5" y="90" width="80" height="23" as="alternateBounds" />
          </mxGeometry>
        </mxCell>
        <mxCell id="ARdxAuYbh6Wd4h013KnK-223" value="" style="shape=image;verticalLabelPosition=bottom;labelBackgroundColor=default;verticalAlign=top;aspect=fixed;imageAspect=0;image=https://miro.medium.com/v2/resize:fit:640/1*IMGOKBIN8qkOBt5CH55NSw.png;" parent="183" vertex="1">
          <mxGeometry y="347.63" width="82.24" height="41.12" as="geometry" />
        </mxCell>
        <mxCell id="ARdxAuYbh6Wd4h013KnK-226" value="" style="shape=image;verticalLabelPosition=bottom;labelBackgroundColor=default;verticalAlign=top;aspect=fixed;imageAspect=0;image=https://miro.medium.com/v2/resize:fit:875/1*OsB57V0FPteixDBD_BBN4g.png;rotation=0;" parent="183" vertex="1">
          <mxGeometry x="97.5" y="330" width="70.9" height="26" as="geometry" />
        </mxCell>
        <mxCell id="ARdxAuYbh6Wd4h013KnK-228" value="" style="shape=image;verticalLabelPosition=bottom;labelBackgroundColor=default;verticalAlign=top;aspect=fixed;imageAspect=0;image=https://upload.wikimedia.org/wikipedia/commons/thumb/a/ab/TensorFlow_logo.svg/220px-TensorFlow_logo.svg.png;" parent="183" vertex="1">
          <mxGeometry y="288.75" width="91.89" height="58.88" as="geometry" />
        </mxCell>
        <mxCell id="184" value="Model Training" style="whiteSpace=wrap;shadow=0;fontColor=#FFFFFF;fontFamily=Helvetica;fontStyle=1;html=1;fontSize=12;plain-purple;strokeColor=none;fillColor=#2f5b7c;gradientColor=none;spacing=6;verticalAlign=middle;" parent="183" vertex="1">
          <mxGeometry x="20" y="70.5" width="120" height="48.5" as="geometry" />
        </mxCell>
        <mxCell id="186" value="" style="edgeStyle=segmentEdgeStyle;strokeColor=#2F5B7C;strokeWidth=3;html=1;endArrow=block;endFill=1;" parent="183" source="184" target="185" edge="1">
          <mxGeometry width="100" height="100" relative="1" as="geometry">
            <mxPoint x="-10" y="5.5" as="sourcePoint" />
            <mxPoint x="90" y="80.5" as="targetPoint" />
          </mxGeometry>
        </mxCell>
        <mxCell id="185" value="&lt;div&gt;&lt;br&gt;&lt;/div&gt;Model evaluation" style="shape=document;whiteSpace=wrap;verticalAlign=middle;strokeColor=none;fillColor=#12aab5;shadow=0;fontColor=#FFFFFF;fontFamily=Helvetica;fontStyle=1;html=1;fontSize=12;spacing=6;spacingBottom=22;size=0.12408759124087425;" parent="183" vertex="1">
          <mxGeometry x="20" y="170.5" width="120" height="48.5" as="geometry" />
        </mxCell>
        <mxCell id="205" value="" style="edgeStyle=segmentEdgeStyle;strokeColor=#12AAB5;strokeWidth=3;html=1;endArrow=block;endFill=1;exitX=0.533;exitY=0.949;exitDx=0;exitDy=0;exitPerimeter=0;entryX=0.006;entryY=0.585;entryDx=0;entryDy=0;entryPerimeter=0;" parent="183" target="190" edge="1">
          <mxGeometry x="54" y="343.5" width="100" height="100" as="geometry">
            <mxPoint x="79.82000000000005" y="218.99650000000003" as="sourcePoint" />
            <mxPoint x="119.5" y="270" as="targetPoint" />
            <Array as="points">
              <mxPoint x="80" y="240" />
              <mxPoint x="80" y="239" />
            </Array>
          </mxGeometry>
        </mxCell>
        <mxCell id="ARdxAuYbh6Wd4h013KnK-217" value="Save&amp;nbsp; model" style="edgeLabel;html=1;align=center;verticalAlign=middle;resizable=0;points=[];labelBackgroundColor=none;" parent="205" vertex="1" connectable="0">
          <mxGeometry relative="1" as="geometry">
            <mxPoint x="-10" y="10" as="offset" />
          </mxGeometry>
        </mxCell>
        <mxCell id="ARdxAuYbh6Wd4h013KnK-219" value="" style="edgeStyle=segmentEdgeStyle;strokeColor=#2F5B7C;strokeWidth=3;html=1;endArrow=block;endFill=1;exitX=1;exitY=0.5;exitDx=0;exitDy=0;entryX=0;entryY=0.5;entryDx=0;entryDy=0;" parent="1" source="173" target="184" edge="1">
          <mxGeometry width="100" height="100" relative="1" as="geometry">
            <mxPoint x="274.5" y="323.5" as="sourcePoint" />
            <mxPoint x="274.5" y="363.5" as="targetPoint" />
            <Array as="points">
              <mxPoint x="150" y="380" />
              <mxPoint x="170" y="380" />
              <mxPoint x="170" y="216" />
            </Array>
          </mxGeometry>
        </mxCell>
        <mxCell id="ARdxAuYbh6Wd4h013KnK-235" value="" style="shape=image;verticalLabelPosition=bottom;labelBackgroundColor=default;verticalAlign=middle;aspect=fixed;imageAspect=0;image=https://cdn.freebiesupply.com/logos/large/2x/jenkins-logo-png-transparent.png;" parent="1" vertex="1">
          <mxGeometry x="328.76" y="495" width="97.83" height="30" as="geometry" />
        </mxCell>
        <mxCell id="ARdxAuYbh6Wd4h013KnK-232" value="" style="shape=image;verticalLabelPosition=bottom;labelBackgroundColor=default;verticalAlign=middle;aspect=fixed;imageAspect=0;image=data:image/webp,UklGRmZEAQBXRUJQVlA4WAoAAAAQAAAAtwIAUwIAQUxQSMjUAAABHAZt2wiK+cO+u/2eQURMQFNaXYEqJu5l4vshmnX53E47vWftNB70vwcjvRoizwxDKGcom11Cly7ki9W2Y9u2TTqy5s2bPwzz5g/btm3b5pRt27Zt291Ttm3b7i5XXee6LOt2XNfzV9VkRPiCJMmSJEm2NGdty7zVzZFFRc09IiOz6pse8f+jne74OK7rumZmZmZmZmZmZiYzkyRJJkmSJEmSJEmSJJEkSZIkSZL8JEmSJEkmSTLJJDNJJjMzMzMzc4173u/39/s9595+u/9FhCRIkuS2GUhrAV6C1b2DBYiT72f/yoNfR9EbVATWglzAgaBdAsox2DeQ3qX61tqdtLmTcijEy6UoW+70r9W1tIcf53MuY/KyRDlWzUskuG+r/jnIarLv6L9zjYYso2sPKpOmcSrLiNujdGlea59mlIaGkFhp0tS0RAVwPBBs1vYYVTEHm/DuwOfovWEeY/QyxJb4o3q3l1zoPSOGR6W1DIbSA0MV5lCUSjQYuyIRwAd5IR1qFwescqc0WJvFJulpklck5h61idRLIJ3nBSnJLJ3Hbu5HSgIel3m3xiCVAmQvrDQi5KMuH0cTCRRNVUXmQSpXWqqHIDwe86IUTIv85SJ5WAG8vi18jyPvSMMra5kMpc0WpmaITh11KNxr0ssI3U0Y2iAUkNm6k6pIe/1F+wgJnBHRLKYC5FyrOOK54wbTUg3RKcVQvCY5+x5lOzJt91Rb1Me6UiuIF5CtLRIKyUFCzKW1jIbzZlpOpGRsPs04ffYCSkpQwJeVZdjXHRCMDBwzLO0gLYGyfUy14zzUhn5KVoiyNaYlAmqDhUgUBBO1CfSw6QSJI6YEHh4/CnOLzAClEqJ87rh89igZVAIalpbMtpfKctWhIrIiCKmPkLX7RlZxx8ydEflk2fGbNJEBaCu/t7LSTVJHxOx5ILWHkLK1FjrqUxwjEGFxaB9xhJgsi6KfvNhdBTvoRGG1qOTlNMpnkMOyEBXSiCxCs7QhGucvIFRgQWIRSKOHGHdUsNK5F4o3bw9Nf399EfzcuOWy4GXEHGk/UqXlPwXPOIut1cFTiOEnSohIRNfyFJ2lW7pD10u9FLCFhX/x9j5ygSGN6Y8v7GQPJ+23kqzibpVYrsF6samIQ4Ion5IZzCPm3JGHgvzkQPWoGdFNEEl6qs0Ncqm8B3sW+PWVogEkheAsTJwkrrd0YW+64M2nvD4mKo3TY3GIu/QpwWWGJiAsm4UmtAGkkCjzOu0nkTkygntrSOXhLCV80dW14cQqlX53hoCPihr1iaE5/eunh1CtCEvXAAfRVCg5rrL4u30EZAik8ONH27ZO1RIJbQjUQvuljXABU6BHALRFcAwOmxjNZPhb43/MpPi8TEr5Ma8VNIyQkiSdVucpHIAikdh4l7Y2cU6EcE/S/qqGVzFIMWr5LImaZFUmfbAQ9WdPzF9419fXPx9MtBReYtShNBRoF5pqxHFazyuXMLytC9DzhC1W4HpnDiBpARx1xFkLoSOiOCX7+V9ll6AuYf4blcAIOjvF50iAmiJJAHDH6cPjN5hG/Y9BRuzvXpQfHLedTlyD53KllwXMiZeb4Owxys6UwXvHPnty+7T7Th9rXrrSiogi8gJpadPOldL/LVOyanyorEsC3O5swb3at8855KWQFkltB3IuikmM4X5hw3aUCCWzEA41Ln3gDtxsjYV7281bm4PPLceOOKqsECd6hk8XPIe0ilGAdjB3w9vKZiMikS6pSjQKkay0dPBKYkgrVt6Tj6xBQ9QTs0kRsyR8jszw8Z8diQ5qCKsK47Rq0cSHkR4Rs/icaZBywCIGwGZTDYb5ctkMDjc+PcIQ383xGOukGYrJ3AChOu5VAgGPrpdhL6BCqggw+cgjK3WKIDlWHLW8LeAhLtVU3Fy/uJNcb7mWXcMeiFaRg/4Q4UVnhj2iewqjDOBAtfSJEJwUUOh2NLGkeGCBNqvOpAIgieV5vmPJhD1g8eK4pKnDcZBWDIeIMDA0bWTuGHY07jK1QK/0jHpH1mL81AXfR6ACC5kb0oBHrD84SABJRSSzBAJWwUAhiCOo1ikJDZJEllDDNkkK+RkNUQoBsHYYWCqTKwRo9iUST4tuKm2nJqQRHe+yNa2vZFi3iWytrvGEO8grHt0invM8+4CMElAz2a1x6wCqo0aH76VtNQSyJCmhyAjB489PDsoXUmdxGByhL7RkQqUojWkLhVJjsAsoyGID8/SVACVPySUDj2smHkk1khWvPS/YDwRgsRdetY9a4qycGEEGVQXLSAGZynB/ZsS4501ZJjPCnapctT2kVDtbJlOgoij0vTQ/O8I+ggWZT7Fb5GWl9VCa74SsKHmVYqiymd8FzneETZc7w5h3RYhnaA+38ufx4nTXQlMM6sgQCiVQlzTDDEo5wSXJaJKeDHE5rwiHDx1fSF+CWVotYhpixvLIlXJy/OyJNIXJvUAkQQRQIjLl0ddSTWDPQ7Ji+eOii+igCdnFFWUeWWogmemQrhVQVsAiLdRj7ubukgroAbMIIVLmeTmeolFrmakCoqomLAPzBXRnl2nREQUucFZMchuUFy7Bi8dGKe73t6wrKeiE1CL/6MEhqhUXyq1AoQDxhXgmv/jHGJrYy/13m/ONPzICs/A117AY1n3uPwZs8Tf/MEhGsJH8jTiaPhOY14nv5VuG7/n5yVfhckAfkekAv4Cf5yHwMM4xcsT3bat0cS7cd9RWbnAbSY2bssGBoJ8n3A9n5QjUp4SkL9UwnUUBy+a1BgLMq8UWhL1VbXUiTg3mqsObTamA7Rew9xJjE4m4SOC0LF9zT3AiZezVoXO20C/g59BGOTxRqw40Myl8LchBEItg5lvpI5aIpQxwUqBZDSuWgswgz42vlu3z0VyQBdDx83FaKZrx8RhXMjrjC9YDzIjg8RyP7iZY60qtoq85UFJCCMEJgVYaqUhZLcn007fuo3nxnvDmVgPzzx5cEg+J3xQgB04Owhgjs2CbEefcK30QvcN+z3t2bqJzkGPN15UuMm/EU7s0IO3jlQpFWTs2WjURLOeFbsMqZLodgMivFqo39Dcs7ge3om0/fv34YDsjtbjVJFqvtPZqozrF+Ja7QF7NOrtGwfKKb657BKD9eYMi6T8C0WcZarQkc0kibkqtWsIwSaE+QiI/3vV9cdOmU1xCiunjp6Pt8MEQcQBjaSVyO8iH2QrxgKIewfs8SftRFe0Hf37S4QrOusgVsCGCYYFJAazVrIhr1PI87kG9invoS3kBWUnYPhrS4GUAExGp1M0ysBAv6T9EtYEgjlqsxnGhWEVhQwjksLRHIJwHemcEaFZ3lKoDm8oyr5q7wV9gRbIj6CmsxWmJWkSyYu2IyaGqX4KfHYxexyB0YGFNzDJv1o3i4y6yF5hVYiaoAHr3nni2PC8s7941fjTiBNVQ37cVAOMbqpcbFFf6tuLk+/KPkD//6zsj/OzD2cjPm7p8c91zhRzaMMfw5CXizK0fDtv/hRI5mpBdhgxexBGvQ/SelqkH0DktPVThWL4g7abG0nilsipa1TDOjprTqpIgKTKktLYgIIhWiMO16vSzB6niQ7iVUjSCbMEEgrFco8CqPzTnQ4F2GjuQsiZJvghWEljDQkXMApCtxAgAPhA8pamh5Bl4y8ZYjQFBgqmxC1ycookDKM1kBR9uaxB8KFQN00otGtUuEts3HJpwxBfLl2uFV4wYDxuQyJ8eqMihtLJoyIgkIhkjJBIiSsOFalqyc6aO9jm/SbQA8DSpJQqGBgx4EoNWBpxRL76HABgM/Et6rz4AdqgcCMidofuejDPFjR4THjXvsuZ11CCEQSSbSX5Rf87iWLFLaEqyefmZJsrKmpVywIaX3dxjalUyxUKfHA1xILYmHUHCpaMLpue1Fy9ACY5flnP9iTz2ZYt/WZ9sUYqfEr+e2uOPmj8fZKm49K0FfKv/Ft93lj8HyDeSviVO0PrALDv1jQvF8KlM3mgeEEurIpE0QrObMWIDHUl0XkPodQi4RYjW1nGeojOqlSln4Sff19he4ED6pQzTFmieY1mtAN/TvTm4l3IQGOogGN4FP/A9iHsvgpwFhAz3RTFLlvO+pChGlM7PAIk+7GllUVwQM5JDmFCbkRB4UUdEaY2KAvEsby6f2EaME6k1L7C/pJPknrvzXUtyrNNZ1DXPriGGe0alA9WxHl8lGXohlar1K061xR7kbmkz6AwUHeBBgn5cGQ1rgReWDlGCyWRlMDKMLRSJtDQ8rLxHQg5jlcG5LVCuhFo8qvOGySv5C8jj2xOO/OgwV04gTqQYwwOR1eiLfa7R9GB5riVG33yOYKuHIuUPjUgDSGVoV9rOmPRBlgOdI/ICH/t1+zzDLPMOvo6IedAYRF0ikMKteU2UbFqjzNCaDjCrBDl35Iq2DGUiDYIRP10llCiODZSANeOnT0jHLkgklpQUAvq80csCwCcEEXQ1rIffmENT9bGngqhR2jtShLTaXiBwfFDEPWAjYmMOCbCrcLQo3/wXM0SGicWSV/DJmPOm8Rfw65eaI98d5hfwtABB75c471fgZ9T5HI9NslqcEQE6pgh2iEnB5OMXqYxTJeNhPsJiUltgaIpHTGdhUb3ugEnmWIRdJ0Ii6EMAp4lBr2TaK/qZ6BslJwpE0ArlbQAQfnYEqL8nPnaZVMooXpWXbk+aCyTn4Nc4TVX5t1BfbN0ZpCVGkI1VQ6L6VAnZjBfVy5vycczKGRU+L+k5Agz3ldgiV3r6VXyA1OkjpNAy/D/8sDmMvfYxi2a6WGwpycFPiTNdaNBBzYke09wiHWtHqi52lu0S4xTnAx+J7veNA3vEDa40TODmnD1fLP2fdsRQfIw60inS4271TegBBbILnF2ST80a0KVrCUv54+MWaCF1NWRtrBBNGzV0QXOFtnrBhCBQxhJSnx/5BHTLcjfmGm9tCpUdkHD3MSSEL9BVJAseCOXxexFvrr2Cu6gKycCdwO8CRDPsx4cv01Hab/3AHufkF/DzPF7WPf4CGjFEiDa+FhS+s0QsmYuREWzcXMMIkfxiGbUILEbUAiWHEJCEZg5ionV0QjkhOtc6DnFT35RczYxrXozfhWZeO+5aRAvjK6CihhuXLtbJnR+MV+vFhiiUsIfjQCb+lzGMp3spbEjqe7UcevdlzMv1xn4JMZLFjVt4oE6YO8BswTBZBIWwf7/xS/oFT7sdAUDYlBGuHM3ZsLQL9HWmnGyLnMFDGiphhoF+hNAo0Y/KkmfizmpBdnf6wufHh2kJgBhnlaF9NIJBjNwxBWMRplVrB9z3NWPs88S0eIlEIKIf+4ZUdF4qLQCFSVNiKBzTiIh7V/txmGYTSMYbwCwsmXXW/FV32oR5wIqj4lvSj/66BnkHUeqtEpiXwpLww8M8Mkb68QSa1RwLInXXsnUCEhpEpNS1Ace7/uubaL6p/3P+yPqSlCGToHNtntS8Ubl0owNC4QeWrAE0wbC1pWyiQBDwGEQgbYZlNHQGRG3UiNfLCXBjjDdGWfsIHRnGA0JiLlx++M9Z+Cy7asmAIGYOljNklFMq1/5XLe2kF7eSq0Vj5Uf+TudvYx68SwMH4wfFEFsmg5S5FCtThJt+nBHiQfpMue5rhYFGGKmZsgvkOMo6CAn02wuYM1o5CPgCP35ioIBZBfFQpARWaW2MWE0AkQwD1zwa5YwCjdNIzqPnubWAB88BR2EFH5yD7FCAdraKTt6E9Y5ZLGjwM8sNGoktYktRntIW5LScBeschhwBEoGo+mzjlQaOkZFTQMsAmNDpevGuErowHCe0n/9zFgayPOdcCMOteXtptJ7GXLSoyoqfcqt9REiXgWZ7Aal8BBegzJJywfkJANxYQ2E2DypJu2qbDgERBQUySxfPCugVheaGsoTkpFRLvgMq7Ch6DqsMXx1hVar4os1HyiVAceRKX4JTtF5M9T2/hIeNdYli3T66heCYZSBlVc/KJY/DZLCIzMwLxsBCKSJ8EZyIho9aMktByEWbWSvoZ/01y27uac0QQWxwWQmbP6LXsO0djwmoeHmlrlfP+6g0teYB1SolZ6gi+WmMOAFpGfmdoxlzRQ5vAAJHrp/++0sRXLJmXcnmZVcBWhMJz+keLKKjClJfvdP9bls0whFHVzzGDPUi7Aanc2mUCAEgYvoEHhb8mLORq0qPM2l+WymVkx0SntnL4rwvRSyAKciQMuWX9fM/ybms4pI53fsF1CS/GGdehvjx+nxfsV0kTdMDgBJwj0TnNSytkq3lAj7O52U42ts+SOXx8AW+ofqEObDJHsQivFwSZ7+J9Fa2EwyuZhSDpgReol5yfu/SfJt6JN+Su+ynosYeb+QlkNnu6kxnX4lNjmOEFsZ4U5YAR+Z3bexYpm+qdq6KXQ/VHclDcGNhf5vxc5xWkSS+mc33B7ihhM2IwHyiG2Uj5wJS1upRObAyjKQZMkZuAVj0DLlAAqWF1isN2cfGANtJD4AMTKgztdXHJ1UIEswzNCqamIpnCT3CAAtJ8nV8FFJOAkgAA6nVIi7mFpHJqPuimWcM8VZ0nOFxCOgwDEUE0jHKVXfs88/fk78mJ6cmJ39P/tZvUKb5Mzn5h98ggfuTQH0+WUiotQMoyS2uMKx0ykIRjPnQqhaNYyooA/8WPCup07NsPi/Su2cBbFKc9p8EHCA0RZPQCAE9NLA83ON9hOYhgAqwRsyHUrgfmTchIIiVZt3bjqSRlhaY1lWuOLyNSImsXo11VsP1zOYVWzvbO9rau9vb6Q3aOsoE4g262stDF79BAlcQjSa0f+q11g+QWz24YkZObkKxJBtkCYXbdCKd3tALcRQALBLDs1UDIhUcj2ECiUlCg4BLy1svKIhJwTzCVxm8gItza8wrg0MFefsx8p1J/LIAUt93SR9fMIsHA0mKM4k5DGEmpHOo8rCdWfp2NZCNmqGNIcJD1QvUolOIqDRG9ULfFvrbIemzSzdEYXe9kjLuyMl4z/qoAEhR5jzihPK4rFGNIV3mecSnjxJDyEhiHtEVo8vVMIYb86wcallJ6Ke8MgxnE5tKMlUoK2Ov5SUYqkeAxhTudkZSJBCUIji0XEykhWJNYm8QlsS8qMkhTgM/IHOJAIowoDOPg6DxPIiNGygGmKZGLLWVXIyBNPARBrNWPAItVWmAlnnESPBeTee1hEXsK2kcXUhgjbG6Z6SsbIccFhJ2qs0p3LHMw1jIZ55J1YiwBBbIa4JYOilwPswj1lkfhotXwudK9tLuuPuMSzW8voLUivHGJwGkUCCk+wrFQ7B7bmtuMM0kOaUivr6+Q5XQ2vNHkSYZ7BrjSpjixR6+lyGyjfEUSaZMHFFJc1BikyoSUXiRIEiFaU6nBW1naquZHBo+LoCV+ZQoBOZFGvHFEihTZIJj8naqYiSCTwbiV50G0gnLFoeR88QXlVh4mU8a6WtQ5CCm4OPGYGqxmRQLNZMqZclZa0IUNYDXuqrN4EtNyp53gbhmlAkZkUDAutvLIidI5GTwRouFEJh0wNK060zS0s4CaZJ6vDkE3CDA8gUMQNlzIzptGB8FlBkAkdDckgLB3hxYhQ59e4olyOGlNR8FSELQcska3u9z7c16k5j5cCVzUm3ebcoh3PA6F5Jf+O+NebqQuY57iCzF98BjCwx1PsfP2Q6CBjChYsWnpLtlkLy3ssqxixReyfZp7RzOi80T5cd6IGg1YulT2eluohP8zN2RyshR5qV9qIjWw0xAYrfuYvFKLz9vrRfY0E3PwefGd+BZ8FKXbzMll9ReQNe4bVFor2ECWUkdZ2kknAuMYAgXCIo8N4YUHBGWlTCI1QFKr3ik0YUIiGwl4xYFXAHavHKsrenRA4DQoHCal0P4zdXADrEkTaGU4PQxFQUCinRFVGtHkPzQhJ0Kh7UnaAyCDANWYsw7+Vbrx0Hpqn9PRQj7ki3BvNKFAjYsx5vw2zekb6AsfcQQHOssAEnnJViggkBROFhqnji9VFGBxVaboemLEbGFxAESeUZqk+nymz/w3b9+86sQ3cl+yx/49l+/C0Ugv9icOnjR6Z1s7CoHDbp2p7aiCwRDfBxjhczj0UYs3wxkLVfOJNF6WVwL2KEqy2EJOt7I164dLE2J00QcCxG5UoMXyLzxOKEBLKJMYhBkJYiWU6XkBZI/6z/3v/Lf++5f/41/+Z8fYQr+q7/mv/e/8+3y/9Q/4PdoUfKH3o2nDv7+SEGCdxWCSq95Y9kpOFo+iAEX0NFiyycutYx26PBDBdfncYPQZWCJ0zloaVjHGSq4A42BGhUpTasdICF4tlQcsKwPEokxQ4kcw+c1wUi0CH3+ITnyOp0Eq/Fn/6/8ST/x63/2F40U91d/y//fj/w4zr/5t0Z+3VjNBPxyLKTLitTjDZB1axofh6h1DWnauk1nfHjTdhwrSezHYGdRK2tiVyKGSVoGJUiWF9lJMjC1KoJTSCNmz4sTRNh1bIVcBwIYmOPjtnm0tEx4RdIlMSdDfM88RBuAInWeX/0r/6Sf+fUf/rXk+v3/u5+B/3F/R1mA3tWMpA9AK7rrsaamKYjaYLpBlbvS3CRxoetSJLjQb51u45tEnEgGLhpn1Cx0EXcDrBtBH1uNqEkrQLMSxiJRQseKpA4XL/YbhxJUdHJkJPwD/60fGv+rP3sQIX/dP+mHfv1bWaOcyQr8YiJc5WMLPhQqvNrZVc8gkLsw2zV66aCLcNwnXIBE2WfKsxod9+8C5XM0wowWeG5Nfe54ebBB4/ERxIKvMJTEE2UnvDgyygy7g6+//sz/kx8aM/0szA5kFe/AFMv+uRKNt5pH+7FAjSGunXOpMiEDR5pgMUIhYVV2X9l8i3YYWHipaq8ICB+ZVnF8JIGMy7hSgSrhLtEvGNEK6MQ+5MzBnp8e7Iqdyi4MvLI4+/uXrtW5LEa82tNYrjfuITZfOtOKIO3UmEJ2BCWP9anVTghN5epQNUzN6DMzCehz9KKaDjISDh2qWCcTZISb0Jvh5HqPPEBv+PzgYBUZFtSUmRa6IPciD48jAyzGAf5+S5mm4uWEIIiEkQGRDAouLY+NsuepxpLmUDHBKcA+n42YDRPNrIWYE0v5CQoICB/fpIKurNZabSuyJxLSYyQAEEaULSapxT85hJhTGUeU5XMlpIRd6q4jmnCRYHggTbHGYkBImq4oZWU6Z5poQmQhMB8W/XaVsCqXpR5Y67JnaY3Iiux9u0gHWMnGPJwNAUTfcScxUZhNUUYTDkKBIrUF2USf9Ae1un7wwPQZT7as475sOS7zwL3oBCOdEGCVp1yvVBLyD4Vgz3iIqYRruZ+j4FZ/y1D8znBo0lDQFso/HpcnImkGkPCUg7x2PGIF0F6AGlI6h1wJcogLyRdoTBt+8kD6Mi3IgKzvcz6/Lc5q4EpzbQeGZiJc9kC7XaZXvVQyKTUpAXA9RVQMIfaApQEZCXA05qLHM9LSo3WypQRBh3JxpeWLkUIpQXWlmK8MxTDncgNpVwrpvsVEWnAyL7+zQtXPTgGZWU4m07INK226mB+CLWOqNA0BbECe9pFy+X0OCASToMWWJg6/rEJWjLZRMYhyJUgFNqk+OE9FClb2BQV1pAnht1qXg4ZZTjqpAoyjaa0x3Feq8lgnNGzEeOAjp210NUAozfv5KdlONmiIjKv4cmEeVoZL2ACl0UGL9kShRC0yBDaZiCbq4XTB4EZUbwBLw+oFupPK0EcKSFulaboFYBAOo0iWgCleIGP4l5/OtPtLUGchB4xS+abbK0sMwYWtxDN8iJadJ4iGS4Kf/b5x9pMT8ZVwv+gPvc5W09OSgtz6TQS6yOAQlTYZjgGGmcRVwFquEYcJIqeNoqggFLA6BnTKog9BPDUFXTmhS22IRAmFRqQg+gxWy1QO8IQmhfoQR/Uol1CxR/QF4g7GoIgla8zPD7MTmU4uy8/4fnpdR3sBqfR418UijaJzdWj1tSkhXqDlkrD1bAuBkCAByZgcjlanKOwOaZSWkyQur5KbijgcJVEhnJAJSJIT8kEAEAgCwOlKT6s+9aZAYMJAqMF63LcdLl7zRPmcQv74iSXTD2VXVM5zJb7ru+lz3ivXS3/8uPTrVIOT1EnvJo9mMedrYkw2BHHjjB/xHflDLJBVkgOjmzaMFAYh6zYvGjezMFrHaPXVpTawlQ7kT0+B8li2I5Fler/o/WfJkCMAsbzhWvCsEQ0rmg6EaKFmISo7uFI+B+7T7pgVEKvgEq/TBBJ0Cgg2swi0EDCSI7Ugp/l8HgVSUDS/Z2uady6RMWFmMztfXgAm9/mROUvxTAEHco17yQrSBo3yyzgcybTIPEAfxY8/j2dr5cCJGPJxDUtTL0Hap0Dz8pOBcms7sgVCsSgQpXhEeI4GwQohZtE4CCeiTLwVLgLo8UxrIzxDZ9IXMNdEBEIjqkallrsGgYCRK5TSnkxC+eGH2aQjVV2lwtuiXOoKSosO8xqUq2t0P3EUXgvjr7QkQgEZwaBEbNecnnklIIudR9+VvBA39gdltuBKU0oZfKzfh/fmpNkUqRbpRRTKPscjIggmZl5pMCMQCecMUswjA64fHMye4QibUwFVWNVmSHdwYQBqk4GagTGY0RB0EdVRqfvbjgISMp4j9xwwG5GBAFbYAoKXUBCOH4f5uKeKxTEvPtNpzh5WfQ6PnM9QU2gRTys1QdnkBaJF7qEJkB6C0SwdpMsljJ8/gLJMq2B6Zhv8shoJWPWut/4HHT6NMl5EQO+DBBC3VdYVIfpnHafc32spt55Ady5ujtSS7rOELRHxw2IJqkXNBAohxNoU2wewEOlzW8skHxu1BYuGOnxiAupjcqpY22Q1N0UDgPM6FIH45t12NSTNce2P/hxaBcwocTLbwqtJQFhts4jm1gcZGiFmoJin4YtT+uQWamxUkZByPSylJCUBBsqpHgw+kIFI+M+g85+KNrIIJH4WES6oSozJjAKwGnyOWr0piZezUbBIoTzGYVs8su0KKLYfngKCqv589fhqeE1TpmiRxdCcrMWEB6BYkA8GxuJTHtqXr+QSJNJFgZTmXg5DWaiB0hUXMMvBIsItCiljW7wMT1s/LiObAxSpRpQCNomRhekzidMojeyceNAmGB9a6OQduSkSoEXiEPSPnyTkp6r3vIiKPe9nXfUlaUJIUKxIDMGVsdUU8uC0j/jSqwakFTqkbAdDBJUUalBETfj9Sk/2HRniqFwUB+aA0NZjecdnpQYURD9o3CjS4JTQZhk7puAi4zEcSYpMm/LzIzIosz9fPYoyPg/tKzwLUKMXwBmFqNXwNnHzIzghw9I+Ysg/9ZT/dQMmU8JM4ISPxqqNe3LaKX1Vg1pHPaKVs6eoLXxAikeS58EGDkS2OM2QTDnvJimZkIohxEZJIQzYgFaSK1adpybnDPDooeb9+J8PKkem50+iC5bxdW2wY16snh9KJ2M864cGNc/myWqHPjQ0oexd9tX/Z3/MueZoYMERIiAIAKxTjEefnu13MsYZCQRrY2ghbWohQueMQ2ZzTChwqWnHaAdxVBjQbE3tx8ug9RLRBQeFxCvDL2BYxgVIr4CRj/9zRoMta2tYZeBkRYY6NAm8ULasTV/8DVg4m48EJethZUDiu7UkxFFRyg+ycQVrh+GIHQna0hmpdZyuAAWwVlaNIENSwNQ59BtDGAWgsYFeMtStKCNXCiMce2uDCvBW0sOSQvujQ0g5ldkIg2dbpeUoPpdbGCTpCyjjWbRSC1z94JwtBTiwdKEY6WbW7B4bo1dSjHvQnkkfgZgiIkWa6nPcFkUcSMsCCfA9RAEque4W5KhQn315BUhWjLmyBmFA/uGnkT7L9mWAnulk0h95AWNQ8KUzxpBK5eT20kZYuDyNb5kIsmD1br0Qw7g0J8GuY3HShFbQQpkarbnMLYlOKSPzPjTjfVzCrjhAWTgmdLMI7XGyv/zNoIlZxAQ6ROIhRogtkeJVZYY6NP/g01BKdV8fhBqGe0INVlhbBtoagiNcRA1Gq2DR/3q944M68z+tyyNZYoBXd0fJcTJGIH3M0AsKz3OGAS/UD1AATeh5keWhJlyYVhIGWUDy+46AnrKp7ypqSAwjL9BX+vmfQ8v8ZWXwjIOF1C5gHJS2H1+oAKZQDKAK173bxsbZUBNKD/PMK9o+EvRc/QjrYVpq20Bl/EocWshKANHo1WEMIDns3LHvZF4pzeoWEjtMSiKgseoRDYCRYYyVdtpb0tKunptQip//eZ7ITmZbxcyyfg67FFDmRTU5tEX2rVMa46MSrr13NOZSCjb8l3coA3wl4kGK274VSptP3Swk01ZZBCFKUaS0Etfh5fVIAyZ8Szw0XwPuUQqlQkSZ8FZC2o3YAAYjwXxSxp9/GIeDGb6sAr73wqh3heC8j8GrrsuZiEnIrVnrGEtiDX/T8OFxDpX4fRz3L/AqYqUDgkDWRSzj7sbbvgYjznJYvdJEbcOWcd5HWBQqx5UQCS9ApF4JGIk6MEUv9ekbFbaiTWhjQcpACMurHkAK+7NPM2iJ49nuN7Yo20AnRKpt/dUMlaF5ACDx8AIfkVCgL/9/Sk8qzrE8kaRSr79AjZYQwsCeOwzhcVrxFqJ5Ly8QBcsZFSUIj2ZJOQIHGJWkUwyThLEHnBWmkCsRBGnE9jT7gvxF/D7d4YzP58m68AKPNZEi5yHvEZAXH2tti1FA+KnP/03HiOVz+QSbUpODpYilbbiSkmgZlaLvlbZre9LTdfq60h83zQC0IrKsuNJHcPnVTi5ngQUh7LHsUDX3ImiwqEX1tPgX8Offy3G0iq9rW00gjDvnnesV7jtLu3zATG6kKgTlOCpjXs5lEE3bXrjyhtMtiHmtFxEG2l4Q7M4a0DzibWKjaAIsFq0ElvFBeAsKOi2RrATTs4v+s7/fAaZmG9QumV/X9tQxKhANBFwLKX4Oq/BBenc3GiwrfEzvbsSbLWJcr1+1ZEZtBZ83LG6OzdPKGesAjIUAQ0kiElI+FOd/VApq02BEuVBJabUFSitRQCbgctYqHzYjgGwD0zTTEZCf7fnqvP5CRb8QZMhSCaOJjzGKwEVgYGpw5GCqwZX0vPjeaRHCClEopDR4ARPFzlxBlUKtgU0liBzMpWneeq/QiIBk5DagBhRNDvO+TFS2Xc6+oOJzyMAoR30RgaYQXECe+fWYlmUVykfL/Lo2sHHPQ78GDOp8AaIG0ZSSQeVBfD9NM141GgoxThe1kDYkavnkKlI/DtjTFnH19cSH6hAyIuJKGIcrQdpUQMZnmWJXpLYBIF7w7Hm0yDsYzMJrhVRENDpvxCngF1GtigXYEhlZH6dL/Ml0RpQ8WV/XJkz3copFaM2bn2NaqkwCRDjGtLbZNGP1lsoEsYQIQHoqjmLHbkEN4Box7GL4DBFyHhkwCe05fVaysUBm+ARoSWZVYlpxBKWQ5SOLKa16DRQecSVy4Ao25Mm2IK0ns61iWd9PT/rMuofry9oKC8ziLoYCMcljCJP2BVDLh4zIRebuHs0WsGGH53M0mWm0wPdEoYBl9WWpKw2vyow/WNQeqkJWAdzbo2HXr1zTR0GyAgb3owGKjENIOFC1L7ttwsp8+7/895uZ9aMp2/Gnh5oWhIaoB+x4pSPzdZwdQLcrzuwFPgAHl7FAsWEa3Hhgh+XDAoL3pbZA0bzWtAA5WRKCGoJytZYSMwSSMBRZX/8Oek5lHJZpaHNZbSn1U5QFetoFhOgYEDioLZWIocW0/Xibi5zSVjdTceh55d4goIvtFdZF0D7AqWuKQnPgOHwT8Bf1b3nJJc2hGBLGzZtxGAwZ33c3ScsMw3Xo4oHgU9NWABOCiHSugxnIXODX0jfkJOgo66eSCqbD44/jjHVgYnzAhTqCH4N5gzHM5XnDL8JWNF3Q6Up1ctVBNEHFUARkBKDmvrc/epMpShEDmhRQGcc7TlX7dRZQsoy21CeG1N5Vhx4RmETWOJZ+zPWCOBAo9ZVD+qVI9DUDx6SBvFJRRm+KRVUPUKaKFNVcH1RXWySBrg2M0bCC0iSsxMX8wpQaRB+pzRbzIYdFaeT43icjmzASxyoisi0SjyrhurYu8OmbQIcvchYltDn4VFMBlQ3PZ+DIy4Jscta2lvuxN6lVEuJG58wEJQCuXIXD2eEDhYSKkJtX7GZgHhhpK12SvTmmaYANtUH9GSYAx2RUyQIgNzlCvWSCsaxHUNGpKo5EODloxQ8qiyaSmhP5cegSAYctJNCVFruciSV7mBrGHhiilBCUNjCtG4eDUGLSGHAu5seDeTiJ+8E0Rw1pm1ilGl/2C+ux7dzAkom4SKyKBxHMYxsBAoLcq5JFEbRNZhW9iSQY9mYVr0UvdCWruGqiP/uWr0Le4gIUWOFjJvGjxZxS1GHzXuV/VYkccXdo+uyiQTuDALNBQW2X0Xs06VbPtGCov8SKIFCkJICFYzM8sITG+GlG8TEnNDUvZhOl42BHMra1lFEMm4nuWuZ9HifDF2ZwEuPKlSJFrd9gaD4bT64kSrCRBcCpz7UmbMaFpTKK0YqN7j+lFIb5tIEdI5IDV1j5HA81ggmACHwQkkC3cWosEGWIJ1UyJFMO/MkkFnYIfRZfzCY+NIAvUO+/bH6eknMm6nWIxkgo0ISBF+CK4SioDYmZM7uzPub6y4LcuSVxZ3cI7rXFKiIld9/TFi/w1tuVbB6jqE8zfFpdCf5R/0Ph85ih4FOruscETmMBJNCjNB+2CJH6ns8ura2U1pbKB5nWlpM3KC2XCZI3WCnDlMdWV/ENVugN5l5uBPJESPJz5MusC5twPbETjau/bzaBN+hF4er4gjektxHLP84VjdoZ+HGGtce8D2laegkoHldCcHNiPslq4+l+nECTjF5qLRJI5XCSZG+S0WOW4x4CcQRjhceNFbgmdyyRETFikc/I+UTyRu6iFowm5pdcFq3X/UDpem6L4CNpAg/Z8k3NLc3lsZYWeAOCCHqDpgLbRSLqmoCMcVN4g+aGmPWDr3F9cyisB0x9bNq+aKGlNdIcWQ7XFassUJtGjgRv/WRWMbNBKpFK1JgfDkrnvI4sLOVQEZwdghVYs1FWGkGD1yKrSMsArJszfJCWb+iQRvilWwE2MpJQ5jUH85pFAtUjKKWWYYCK6TQr2Y20zEMQzsMNglXMScGSAnNACD4FEjGacAzhpUeCD0CAseO4XiAKfhYPEqrIQAJRNJsWsoq153Hiljt1cCVpXcM0aM0LmQoWQsQ3wGpr5CHeZ6hGQKGI6w2TgBIIZYGaIVKxfVDgJZATr89btwIADGVApJEUGcIxkqKLEJgdMIVkestQMmgCwq64735gEsNCQL9P9E2VObmWWcwMR5U45LuVNbLXKg1IA7ztaMuwNcbuNRJBAQiXYurdB9bpQKB4wNu7XeTAwjkRbcicXBvyDrWkwyXbzz9F7OBR0iRDlCBJGGeYk1vNyTqHVxNG4iLQPnYMi40SXHKI9r9yZPffJI9VgrHiVbhD7A2O+oTUZ/24lmvpQGoRPCXTFjbW52ySPmiYmDRkwPfIlcYHi5iEUaDi45MivjY0WbC4BTMNcgGKe/PAA5QREmBJ6IURRQIjIUGffDUAiENSQggIClRAujAq1MivjKmSx5txK63YRIp/ZRizvcIdD21H1PNLR5maWlqP65V4jKhEAqmbbW+2RUKY5rGdlj6CSthKBB1l2dlK9JFJZR7OA6nji4YZHrFADwVAEAeBUD1icVGBLEbX4ghB+YlcqFggKgZLgHRvLWF1PUbRmpxobgYjBZ6Ej6oE1prJPYARgfBaZzOM0nlSIZSk4qQwIiHCiFQQAxNkilDL4wpBjKWeH/RKVY+PJWoEO740QDR06h5lKRjcQ7BAhgI3CTThC9wEmBSrlUQUyCfnhFSABDgu+Uo1oGkRzINlJIQoHxgawRxohviE5tAqXFAIQk55SYHkJe0LgkCsmVEF8e7lDGPtT0G0EINq67ZEPVJi4tSDCrlzMDIAgjtEMHIEIcma8BFYIOuuoZErhfUgt326vuXiC6iseQAU37zP6/q7iBQroSK9ohFyGQCmIzCBAIpggShjEoNITAGl+KQnpIZoBDCF9gAxic934KrNI2aMVoJDUiQFC7DTa1nG6j7URlL2W91DkTiUKVIgDDI40FKaolNoVpfI2gfa9uq8w5qUJMa4iQy2/0Igeh6m+RhVQYNaOnNbJJGQiEQawAXoEIUqtP1iQXOReKL5gYajuaD8QPzQcrG+K8pb16NMY+2NRdU/RF4gtiryvFZVm0kPo9uIrU4EqSWgPCAc4gnEBCGKAiEGhCjEMiCx4w2AjgiZTtknlUA9By6PIabsAJCA+ZiIJfLCSBQO2YREDjAENqEQJtxBGuQSwFR1iPZIjg8Kx8lVjYeccnzMNlY6lCwT6KKawhzJYEYtyVDdBA8ev/RQmqCxYQvmiXWJtWOQqI+RkFhnkigSwcfyEVrOkvzWv+V/8H/w7b9e7cyplrLmK2Opc3+72YHW8Ak5T36mTv7hWAGZgT7e8yx17h9v98XQHgT/5/wX/je+Xf5f+kf9EQYXbWoeF1pMZRtrJw3xrWlwNghwUVNEQez33pjgkOWBAmJpV2/fqkSLyCCm5RBIGQpDhoIw1BbQuPkgKfnl3v/rf+wf8xMLuXjGjMk7s+nLvg0ob2zvYiYbnQ8LEaPbxeUswJfPm2rEv/R/72d+lO4PoTcs8q/XsJRxfMwZp6VcaWwKCuRKcIrFVKgycGJJ0ztUHdXMtpUogDTZGb2EoLQFKAgHQ5HkmIEuwKy6JvgQ/so/9NOL072EbfHtrA6f5hLtUVI2/c5o5b1PeNyzlBE43/GkPPxHf6h2/8RfQR6pDIE5CUHDKxnHSptrK1HzzU6bjHwQNE77c6YkShkuzxnRRB3e7CugmYsQJLSN2gAyHjWJ7IGskOT82A97H2ZBTWMZxXQ3t4ftykr5QyMT7XxW4GcJvDzt//RD47/2my82z6ieUeMauLp9NeNYO6Wy+fSlmrb/cfucSS45gA/W2NElDF7dV4+bAOVvRhMhBdWziRFXUtTGm//r/J//Y39IAckr4bq2qr4/v2iav+T/44fGf+8PvP4WgB0tZR3P8r6K8uabDvmZn47IUZEgYy8QFPxEnkfu1FqN1jCC8PB4HwO6fYOdHGYi6aMCtwhG+sHBijK8D6Qw61C21xFne38n5v7B8Ue+ovcxks2eUFDDXljLOmZaDFVZH0YiNoQuGYXpYxoEl/NGK1IsipGkAu+NRAGAukHaDrxQogsjzd8yEqSa8vUmHb4lpQ7/+p8bNGR7n3Mss7y/k4GpmRZQZhj/q68ny0JyPTGn5HWXM4+1LYkKDIRKQzqvB6dQG66gzm6BEDVLRCAJ0ZpAGY2qDbCcbWn0+JmcTrIkMd74iR4RkDco/9yf/MOMZfRsR5A8yvy5ElnG3bJwRP/Bk3Sr6nqRxniUfVywCMtPy0h/W1shIY4FMRwep6pggstM0CqB6c5qJSFJY8rlt3/k3Zoyjk9XossQvpVELhVmDzOdnPEIL7cZ3r8UubOMW9itZFq0UxeEeeTRrGaPs48XeRN5IwgSwz3yKmTzXkAyBhGkgA1fsUyg8NCrDLPpC9TZ4Iwj7wYBKGB50MN0HLuTWaCmSrjPeZb3i0bqKNNA77IsHN/MBkpuDQOcXAXERDMpQzE8XYS5w0TCuqE8tn4FVUG2/IDusw+wWVLzBrRCzPAVsGgxKYwGgwQM5BAEIvGLIoK6l2UVEFHlz5VInK2E50pkWXjvHOAmzr3KPkr9KgmFOvPKfw1igkUCGOM4WWCsVAPkI0IcdU0G9DOcC3OPAvZZ3yfVnmEzmaQQvEpJlkHg2X5fCyCv7uA2ybBwtKvwgcbM4nfZx9peYzniwxBnjkMkZbbTAgWiCBgBBRGUE0vZLBEPvwZBCUogurFrJVjEItJKFKOoLx8kK5GKjTgyHGFF2b4MDLHD1V3A9EwLgxaU9Rwbmi8rIK5xVhXqGls7egd27D9w8uTJUxfL9Q4f3DHc09HWWIzFZzqE5J6T5wToCIEwzCJQQG4Kedb2WwBgitIvMBXgtcBgJYMAQ0Q0gSlARkMKmG6WaZVkqJCR49UdkWVbJORMj3nlAIlfVEA8KxQb2jcdvPzgzej43xUfrqW58fdPrh0ebq3PY7LB6+ScjE0BgqRU1iCCDxnZbeQwJSyqrLqLSEMgwwc3XiAZtqctAtVdzsAkgGAznBEozPo4HVqT5XMlqA0znRGZn2WBLYkGcLMnDNjU+ccVENMvP02ltAE+8erKtsZc4oNzEU449BvIlCYOls46spDlgmBM2Ii4JT4KbxSmcGl054Io5QBAZBLgTJrd8Q7WkOFkxM74eAcYmvXxjgQ88wJK2XepNIgfr1Xb8P32waaIhJs7d5UfAKUgtOsJCWTqHRJSBZ4+Ch0uSWgFEFoOG7aPEYIgYGQizfZ4B5NX/3kRUeYvy3TynzYz88g0wCCCu2vVN5SWP5/owlQ0mlOE5nBvqnOXw8tlqkGJ0/Lipy2ijECbT4xGiOODkg8khmHqGg54QmH8DAtWm/VIts+VINuzP58ny2KC9xsbWxiRFOa4Uo5qnLDw8US7mXbDHFktwgQBkODIJwX/iEDByNAKIotw+t01cBs/7i+rHIc3kAC0bCcDd9Zh1V3cxlbJsvjdZphenAk0pnrUM+Wo0gl/H24rREZOUCka2mDMA6R8ha3BIoqvIfuf3ENJXJoHqWxeS1oFt+QTRLEwHI5kXiSKK+P5U9X9HJ+EOsoyJlupMV31iAW6gtJa9Q5Lb/fUieTl7SheDtQWA+ZusdpCW0H3bmBNo5TcLCZxFZ+ngYL8MU4hdJ5TpFFRveehkddZf/+rrIOlZxqMrkNhbF1Nonqrf9lepGR0+sEg5uZIDhypbPcyER9gK8c87DXiILf05Bnj+j0LwgARMBQBgj6u5uN0ZMepTKPKi98YCb7KIq4HpvYur1X3sPJ6MMc9rRlmPPuDEGTSqpj0bItkEETquKmrTmm1E0TwcF5bMY8u0mhoPaJEgg7syrhA4VVdYNNUczHRUpYe+Ikmt7hW7cPClWZ01/9ExIgBvIRZPhE2hUcaSgqif8wxQZGSFpQ1zRRGMCgQD6IBIQRZle3LEvhMQ4g/VbXH6W5XxIw4i0yFJrCJteofvmxwpBtkIIzJeg8lvktcwybzwlKyEK0EIUL/kgiHGnjopXBuVwZVq4zMj9MRe/ZR5d/fFdsm2+MdJvsyIEAO7rD+K0f1TzwciSYWACYWB8mSD/DQ86Y9XF48HzG4PSQBRudrnUoc93HIlmidQouYRiA9yvj8yco43nGiykcyPp+HG9J7v7/Z5X9BrK3eyqk1j15ylGvai6OGhVHh8adEByqekF8f6l/DQoRTctA8AnDNSYLfruLzeQxttUPZFpFle16ElcmzP74M8MAPRvB0RNq18k/4Kb1tk8nsldmExFW1KFrRoMABqllitfLj+IiS6fZN5cVv9lHtS4VMD7I8L6KMn/l1FhDHMp4cZRi3DH8r4PxJ7IjQBjATGIBpABT9C2YxzL5Qkqt63PzF6E7AGFfSPo4KDh19FkgE0xzn5cj0wbHsDt1fZfRKGDlStSO3uD2yLYKH/O9/RKxdtYzuAqnaaHO/CeG4ln/A9QI4NqMhcm8JceWATNUEExFTtmFkStYzyjgs+2DpmRas3SNl6A2e/itiIyYvZZ5ocnbq9jhJgRiSDGq619tzeB5AMg8UbBIYAdIzT4ULLkaiUFDcz26/MSnIcDLLz3CE7Mv6+qAEvgLOVzfjOYnSqF2O/SPiZx1kCXijHTKRycVhK1DVFL0T2Bk1hJNFQ5vtq7lCNERTfyR1pRccgQAEQkCmVSJgjzKuUgn3yYnsH1CQekd1gTE0/48YjzGTpSUKxJoAx6cZcSWz+ZZgB8PgJMUQ1oHa0VpjMcWKtYKRH4KJGTKcESqskBlVe2Q+mULVc22V5n7+G2IIPUFfkMA5lhPo07XW7OfP22eOOGP/F/La0Bx4cWa2kUaSGrJlf756lpOFdQeyC5Se5YwS0VHG9xuBNlRNiSWnCRJd/SfEj9ix+tEQlJwueMCouo0XSHPkLnz6LWvVMIKxC6sCfQGNjaQGdqsAriq+L5mQf+p/5WUcJjg2L/0L4rxhjomM895rNjjiDA2TGKaA6GLpXWbznsXAtnPENQXTEJxlf756mb7Kz59ED6t45DeeF+H8VQRQr/HHPyBW+syUJ8ahslNBN59gyIEDAkpFMkl2RiLc7XhkKzQNHJuHhIQuJDyu3uN05IFlWLCn2Z4XgeIzvD4Im083OLdwJERd+wfEa/SDU1BnvvHrnCMW2Uvj3u068scQ0kN/CgfisEQEIipgxGgIzOgs5Vb1vizxvsqL29kXv1pRuMgRfgMURCSbl6v/373Ontr9BqzWKhuxDZE+pg2rDhfmpYXtgjqmepolDKCYCAkgfaBxL0IUjzMLVJZ10ORqP58n6zDOLvk6V7260aqPzwXIaw+HTDDkwzoU7rSbxFJQqg+fY5SCEQYA1MpgDENG/OZQZkye6fnqRF7lkxNDMw1q8ixHksKgBV0TEIVVHa/2WN5nItd8PgS6PwcYMfICchYx317gADdAPme1RfQdwOeJ6YogIiDkgfFpy0/++XeWkvX99P4FhVnGVcqlR9aJrEKKjqkqj0/FdX8eiFZI+aSIAUdIka4FwaIog30+Iux5zHvYfOYg0ezzpX76aYie9fmTVv3XY1rm9zn3W04i0ywWX6v2/5dmyFrTojVz1izhYJD2rrtFEmPEQiUgEQLSmsaj2QInhND70w9nGwxuJ6u4CjZEps+VEK2o2xhLGMNhoLorP4vBj1PTyyhBO9wnxfsy0XD+yTPAFNAKkNOe6OLoz6ADjOMzpoIB7+GVTPTP/ckLJRL/6fd3uo3cmRfJWPCh1tyjao6ZfjImPleqNUxmiKsGkT0rtgRVBghnAEkOzSRmAnMtoYKKUPtYgFiFfvLvLyU52Y6Q9OOZTq6A698r5D7nrqRCOYYEwNBfzf9cjM26EdHIrAvavDwqIYae0ehW4AK1RZ0fG6XyvOAsYAGgJv6syAAso2XQPwS05If/vRJmWd/fCfUfzjTMMh0RrZBxIVvWkQwmkCz3uIrfgi5//45//Z/5slQmGTeEGGJCRhrAeZQk8jxBRW3FtLIeNB7hB09OJMwJf1tWl3hP9/CSb3uyipfirNKLWcUVobw/q5McvzcDd5Sw4+sikgINL/cndc5XayyOmPDlIIDhiQioIK9riSvF/h+qSQZjKKlAlx/8RUpzIjTxUNvplkt7NNcDz9/6j/mhr463kOwo/zKrK62Kwv7OjM54KZ0mr6PsvpfjSJIgIL7wI6P4L2/Y+/jN2sGSq9qZXM6RA5m36Rc1ilvYrXHstsbmXVD9T7a/0gMRBRYDAYL4+XBKQYHW4/k9/84f6bbSo2JZDoIPT//ImNuVICN7fCmbfP/aROQWxc8yeiRZriyapO/PZnRq0JhbtCYGschurm2mOuNLfVm0TNUuCzqRpGrNgplFKxluI1qIGgXuIETF9xtTJeBoUBJDwWoIwAoguQES3B/4l8/NLy4twuB6gyWPN6Bh6ma9EBLZlv/E/+0b2C6o+Z+79Zfyyl+YXAjE9oGae9mpTLTmmzNpYy8uzNypJ9n4M7YQQOsraf7rkLF35j/d+A3s2Go1xmy3Jb5Ie/UubIQoKfc/kq7A0G9sAbEXTOPzAlAJAHFASiCGy9iIniRNPf0b+/sG+zf0JW+woX8Q3mCgf6ivb7i/PAz39Q31D/T1DxNcfyPzo5Jf/Zk/XGf/pU9spa2vMydbIBnqe4VaxO4H7CE3ttDW4mhLswa3WYg9ANiDHtiDPQ2irZA+3+VpcYihHWya4gcFDjkKKP+pCmPlgJkJ6UmfUVAYFchZW4RDXR1f/yflEVt5tbVCAQgxEGIKNJGOBDbeHOgB7ENSMALEtaAjIKIyg7FXLYU1pGBeVCx1ISeU2jImkY6xgTzdQW2oyUUNMIKQjWA4gYW4LpVojOKKJCHxcz1Tih2Gq3pKTu7wdPVF6aaZTh+W79zsEzSQYVEFegrAVZCc9jiYBYsoykoQLjaBIj7J0jYSjMFcbJGnZB/GKIGFa4lV2ZyyIg+M1IAkfziaZjN//lCMcDOcXL4kLRcnqnHay7wFts23XCmjljHCGrG+zz3gRmFIGQLSmeFCPJSG4by1OHF88AdhsRbUvKISvpyUpSvDvOm8HFEkOvEs1cD5DF//W51zaAmwJJdq5dWnDj3T8b70sef1ZopwAwsRMIvEAFCGkaMDJIqZAiI1moZwEiBykQBpTlpGcRmKSIglhUHhMUAkJEgST4DIQQKvQ4DIX6QPgqBGAUJUuZ4gccouIwk2iRQPnPxYpfuMv/YlZkTSEzRFCbowgihFxCIC7aLcbjrQDMBlHtMKNQ8UZoTgYlJRLyAc1AUCyUQMAlOZBWhOucYgrL1ksMxikXBJQPUQy43BMEAAAJ4EkQcLoisMluAQE4XU02hlUheBS3WE9RIIjSFwEry6/kPvZ9eqdPg9VNbu6MVzfEMy2vENQNWoMQWtVKyQmtAcUiOL1a7mCEW6d4pEXyQUYKxSGEaBmURKAzglKvOAUfU8CLG9fAlTGBMLhiaJCMRBaApI80gWJwy0qpsEQRQPbZW0j1z9mkyp0viz2YQTZl2VF4JdTHKh+Qy50iMKQcQ0B4Dtg04oEGpQuWO1quD62NACUEoD8gpcZFNKBAhq1YDEgExigOc52ABE2q4B0RQHDQKa7kuAxXt9SLi6nhOE5TgYJIaQw0jCHkVH6lxKTOBZ3NS5/+q76r6R3tQm89rmvyiuughIDOwXe54sjAoV56OvBJYFhihiFoZAZILqo1ypaS10CGFRmmgQmYwJrrf1IhWrQgjLGElySREAw2ToGbMaKSNWndGMI3ATs50KidTJKskAV6NqNIdLDs2KIF/X2LPvwtPxqr8Cc2qjGZumvIpW1i0FMNa6bmRFZsEhaWXfIWGUx+Ng+W6l31ARi0Ho5QLKfvWne3/lcvl8Y+/uo7defplb+xcME72Uh5FRrheBiu5TQBQwbLYvyn99z4j5Bm1DNOiK5VZHRElZt+3szX/jv/lP7/769GnKfzmpznftEGnJ6RhrXEAIi+yGVqigHheIeAMfHcARskJG9gHcGVWQTkQkFDALe14slNZq7KH0vAlSTmQhQWhT+nZQTVGGdAg4Lw+UMcjYJD0Om0A+eYg6wgXXUc94/9fVtZp7WL5e4NQ3TEiMVJu3R1qVHV04KAtJoPa9GGwjuYixHmAtAp87UpsIoBCJ+FoeLK/V3sPU/rx57pqYElg26MQJh7uyBNEXSJ2BCkQebglQHszTSxNDd30t1eC/7wbiiDISxijHBfJa0X0cUWTYhAZfCRUUUCEQvaCA7GzZQsOy61sN/tf8tUZIbExoykYzzGJy/AOvbRAO+GDteX6DpoU6AsIx4tFIQkhNIxCayWGscawG//2+MY4o8HWckQkHOAP2UdUgqYTC+QybR3Tb2oOdQcz+J5OJ7cYzCVi4VXv/NXelHhPeIgqPfD38kJmaSJlI6e1KQ4Xkgyi8ElK7BWma1G5RM6rq9zeu1Nqx+n4D7HegZJZjiPFpzMvZZ5iohbCkXNS5tBxAlcTn3XcbAEGEWD1Mr2vqP9Xav+MjuchEplICijS11iyVtHLaZR8iFqN9dSVQ2voxHTwvfjI7MQHTTFMS22vsN/xxpGgmU9aRx5ydDjAbGGkTlSLuY3X5DOKZiKtRSOr0p6aNYPOoZLwoflZb1zjS4MhYYhALCaew9mZbBBfOI91YlBPEf7B5Lx3BvI53mBeZWhYTiJbxGnp7+sP+RqOMk7Nu1XEXF0yGj160uDwgvgLN2/oUtI0YYJtfQaQsjwIEhkFyt9TMtX/d31hnKqsTvMD3//uqy4rx4vf3Pl0tvoMtGpiUCqKqjzzQiCWh4dcdqY2nzHw82hlT/qEl84gCDljkcec0KSJ4pkCv9IhRc5JWIPmcXDoSGhBB8gV0/wEe0VyugU82m/56vj9PewC8thLQgwOzXmB7kSANzhmHPADwCMsiaXzurb2hCBBQN2rcWJx6dqwnV069sKVkGuIixxysAwaeSDKoWR91TAeIwGnOcAifOayGjdLyzLPTQ3WYeJhvkIAumFeKysTTAoFPT2uiW2F9kJbPwgIu16K1jiJiSQgJAspq15j9+PDizmaVjCKTOW0XpIGn27A1agN8XqlFR0Kpl1bV0DrJUnhiQR4SIHdNGMu//87CMDH29eOLh9dP79zckM/nXBvSjhT2nZHv/OtscoDn0PUrgALO3xoZJHs3SNkzoiiSWjEu1tc3wFBXVyzkkr0VlFGOdDMVi2QawShFzuAdlLjNwA4Q0PpfbAAdTdDz+M2OlggEw6wGjJUWUynqIAjB+S7WD8ThPm1L6vhgJxBRrnAePI0Vo9gDBhVJIFMtGM9zScjEcie1eREQsKgLmRN3Sw8xMzMf0gguDQg4+qMQ+gKPAQAMMIGh9ovSDk4mSkHucWm6QAoCgPHDFNJbwJfgJPmij3kT9Vi2FpCmuRXuJNEKwuh8zXfYOCdSzWssoizTHMOITlTOQGVTIv1qFOrWG0H4OM6Qix1PfoMJCiytUREsWALiuVovLnBSqQSj/OIMNsVhQUfd9GZaozkz0MelLZ6Pq30OE0/Mc/gE08NthIi1mZ96qZ7jRK13WWUH5JE7FxlCppp35ippSF1npAFSY0aS8WXjIBwQw917kRTseBIQi8is9ovnIu8wi1RuY3Y5phMUus8pYmyyY6WFA515G/HqW9P0vfyWcUZ4cFgZIurIwLVgLG0LOt0xBZDv+zcbfKsuolRAK8RVZ5gnAKB6ayjggyiGCQDE2l3bxecCZR/PyShFMVxjEm4bxBK3FILiiMXRLkwftdvdA0ggsHl+PSYQQLNykUU7ars5nzTDbKI5iYwS6Z9wMAsisfVKAKNvC7p1g8AiFLEIj9IUIad3iBMFzKGQ4ki0YoBlqt7Wmi5+t2EKOl+XxlNzvsGYG25IPGzUEXR7Y9LHCzwVjsCoirsZe6cgEkoBDS/XcnE7jsyVicjhpFEYFgJ3TXDRnONge0Bmhp7XTtKAg8mf15aRpR9pG1Ij2NBiDRcLG3Vv6lgiFI0Rh0IQ4OIpjuNNnIZQamFsXgxptmHUxwcygh5+fh3B9U7XcPEin9KeB/PCyZl4zrHmbcXbi4Kh1JSCCCPJjT28peNxkSg26/pTw8VOo0RLSs4+lVeCR9JEggdn7a0rkUSLGQ0gKDBEn8P/LUs8j2ycLIDME3TgajghAFbbRO0WXxoggzAPLaB7FhkYObJQeS++alyCmU4SHIII5FiMazQNJpsCgqaSFMaxpu+1W5w1d9KFJqcDzMy5ifND/+blrKyRs7EJlEfdF8CeVxL7H5+aR4UAq/9as8VkK6V2SO6ai0yzzPtqUyG7Ugk42D9isiXAMwUeVocC5Y9S2G/LQQmCERHC5EZrtrhanrN3cgIQTAcImXIMVhAYY8YeO87agzgDGwLiIBDrybBlSIoBhGwLWpoAaET4umabc2f2X6Ygz8tfP/bQp6fZ6fZOkTbJrhhH/VPuIEFgcTQSkdn9Wi0e5ajLw9dJAsbBtHIRANznOATPsHgIQm4hniFYH2eg77PxMoA12Ti0dkoIQqN/emG+i7XaKREbRCZBLkWQWzDdCUF9pYALYIIgQ5yKWGzL1USBCY4y5Tfz+95+sgyEkG4CzY7VaPE2J7LQcMxUdiIFYVDXzEwNAAKenie4j5NyYUBmV4ply7qVJ/S1UIESqq8kaEEUmzb5acnOglCEYAdqtH93l3NIjpmjqzUGCEoj6/CtiIYuRBTafU2Qa1URcEZCzTT4WpwOJsI3Z5EA2FibxZhrNY69JmXmofV4V/VmJyVigRpAR1PiV0of5z40Vtn2xw+azDkZGUwGWcEZpX+lJrtl+QFeIlSGinx6A8hqxqLckPm239uIS/popgHUJDRFMjZMLV3UYaVCgXXVZCf0/CgmfR9NRwLHJqsdC9AqRQgEgurHkvnH3faUSD0Nod688ptr4Mn/7a0gx6ti/A/lLR+RKILm8Zrs+gqVSZyTMKYISqUIEQ2B3/M7Cr+L6woCC91EyyaCflzzRKmH4DV8T4mkjv53opMhyRKGulrsQN2vJkoayFyR8ZxRg/OUABz7MGANaTzFZmAbWJwmNAcQr0FE+0AyrlsqrwkAY+saBRZqkYBZ4pc12L+XZUJTPVe6Wef6bdRQApgM00+noVzDR/DctIqE4ez4LQTgIaJIDaSq/GBIQCMKYrhbg/3bwVkTyTHMVZWfPW+YujkfNYUmC2CEu0VBnkWjUkCjgU14kLYvWcx0Lf1yhHGy9orLlFuOxDOVnW6Kmp4LdCiPcRzzLk7dgi+kyNHeEAAUZ5otW4//n3r1TcKI3vbXXlcPd2Ju4us4kwiCefydHZQv6RFnngyc5akjETEfBbZLPuS5/Zqy9pAJYG9iREyP4TGSN2CavporLhmEyqCIQMxEchGGxsOVTriGBPSiUEGiOiLYUhy6P4S0aboeiSE4LYUZD4IMM8O2z9Va/3boBYAQVBbp54W2HASKU5OB31wpdS9+E+zwe9Y97+tKciQIJG5CkbpYVP08hBWLrjX9qLX+P0c5ytkD+ZZQEMEzBcqkxSHD8sjzmkQZfCQe9fmR/6ba63tAiUYNWQ/Ui5h1H2q0f91pKqJcw1QQ7dDhVeRph+RoOrZ77V1FUKLU2Ly2CcMzqP7dNosf1FiP7YlNZIyV005DJBwKsRuoqxQFZhMd0sQMHyF5HFGd7iqhfkyMMeaNPC0TNirlUtlXCpGEXaitvmxYmzk2IRgimZPsWfE8HgE7YCKtallKQIQkiqDSjT7yNb0GEQ6i9bJHPHSJOjkNGKNkgsf211j/0o5TGZzZhALVQ59a5Le6INNf0uyPaLcb3S62tJSp03tivUFcPgM1FQiJObNo0eghPGWc9dZUD05tdiSh6jllN4vOYl8JQMDj0y/cu6/LpGLLJIjChlqMOhIxd0+5oGuqJbX/axSORJQ2AdNLeONiLbXP2JnhAEEp6c5NkHZHchjpYPPmVlIN3SbCbqF2um9MoDrSx3YtTLs/NNGAanInQV0NdcuRyTzmiuyrqfMjFk4nOkanP6PpiNYgOmxeuxdCUZbGrmTCAR2YjfOwSVtHsQiJCOGWI09qp8srjnB+J6XnnlgvEliVutQ3Ttx9SvgducPnYTeHEThvjfBxXhPeGIM4gBgxrtZSl1dEkRxzUEiINgmErQnHJLH9DiqxNKv7NAomp48lePu7G83lvFYOa+FdI7jJBzwbqZm+KcAeSkk5J1MjTPCYRQSAOQQtPMAj0SXYQ59Ly7N730NRA31AAkIoRVyQJUMexECOzprpXg1FyDW5NRCyWaBAlRxUF8ji3vJM2SUicsjZwWv7xzST+BFENmYzaExB5GqkSzIXRyiXMJMiUwQq4QjhYxmefaWs1qzjIwKZRzYHveIhJOD3KJNZ8u4Dy9hKYSAI2jDpgij+UBvFg7xOLXMkmOmkO8FeXukXEEdoBk1jUqqPgkfetEMLtry4+ozoBDQiY3B8gxs1UUxvKCcMZaUIH4645WD6HvA2fYdjDNkHrXioyMWbwcg6iuSRPcWlkLanVBM9cT02yCqjSKcEM80E+AUbRBcI88ULFM/OTp/loawgLZkwVRjQoMaCkKw2uFoLHepo52RRGWOcOQRRfp0zx3qsG7LjhX1wBfkwzB4ByFlUIrSBCdOMeRDZ4+mMIujkNg9JsR6MzdVAcdwodV0Zr0mcDBHBBZcJzQYt7FbeNGltRQgQdeSPDGkkORJBjogy0Ujj4rLci9onPtZDnnCyRIJCpirD4Eruety4EpyCsN25GzYuI4EbI0gQRAmKlYGUIZ+OlmWwNIRdr32+LdNmmWshBJUDdyNt8I1t82AYgV54BRnZqh9E+xtUJLnwEdK+muc/HhfE+NeVjn0+EUDOFt20RKEbd+3yV5kyEhhfrkQCP3A0koK2fKkIaML6ZhzgiDdoX6hxYq7DROLZ86zj0EIqOwj7TBTDImT2pnMYcYMLaPrLV6Jm8/iZbGgEa0NA6aMwRfN/r3HidJyESBw14CyPH9sCVbd6WwXirecko/Vo0pcA+2mxBSkqPP7EDSBErkSZEVUQ2EKEJBSyy0Bc73aNc1fzesgVMSad9nne7TPBA+fr7zc8iy+QaTwEywGikaTZiUhBbkXJiAteD+DUoHWpJedATfMfy9t1tjzSLjj7SKiIwESBx61B+Tg1ITIjTkVqyPrc0TDxNUY8YN5eoF1SBGPBXGVABEOwBGbGgFgCdM9sTfOINEo0Cuuv7YnTuoUboe1JTs0zlLfyuDMjjgFEtHs+dGcIB18gpM3g5Gbl0BHBGwiEfC3zH7/ak1BppVca4zu+4fUjf4FNlueIUkf18jcFNPyUHwLGbIYQEs1u1TDTDptxipjKLwhcclQdleHz3pips8cj5jxTqTfgYgUIEqJ09r14ct+o0+CLtL9Us8SrosmkgjS7/QQ3zhrSqEd47YOq7fY4+rdZ44wCjkCI8EPv3ZzhBEYC4kyoRWgojwRQABIAuJyLapfvyTIzaO4OriDen2xPpZngyM5J6DdTZZ/jXuN8aTxcBCAR2uPJF6e3gp6lweq/SAcxFsdqlWdIXDTPDI1cKUthvSeqR0SD+MQFuj2+fFTUW4WSKBDZAMQEQmxEY3CbBoHzbJRFNFlCx3N9JNrNGiXeN1j0Tx3ihOrwDyUHWXqeuNJOl4YC25AJFtWLBMa2pdrkwPJGk2loKhHZOewdilqRgSqYYEGIM3eceJwI7JA1wDLHLlL2I8VedB5B+YwmwwkP0Kk5mZDS+rNGubgi8ggY5Ew8d9UybuAr1VviQVHPSw8r1MfhO23LgkhUAxYx2VTkUssdAMSvapKzfYucPOZIW7YgPaHhsrumxQSljwmYiJEIQW/2kXTyXGoQp8BKnHIvFqknWVeci8AO1yJfz3XAzJVaFI9J4Bhtvm0xgehHG17CmWA7MrzKbySxpVX7C22LfvSjfPdM7RHnDHKNFwMo+YW8C54WKK45paGAvCU7CiLMGFgEJHJjMPXqYjAa1wixF0htkBSJmQBE1S2hiy+qTR4Q/L5QzghHP2j/uDlGCiON3VeCA6wifDkAMRE82KR9FgKAxd05IOapWiP+dMuTWChhiAIAtozhxCn9276Ib9FBUPrHO3D0FU7DPGbRc1CbNG/kz4vz4XqJdCHVJlfBLx8xR6qYxOh2BKoNMVEf0b2upaaAi/ioRfkKAIh4w427+6VSmUPgoSvQQVDRykEUPREAqTkRWv3n2iKeFMxEquCYyKIebC2B2Q4RTlNKJZ4IU0j+79tt3EdEGQR4HvVt1LBdkMMmCTaFUeRK+16eTxg5QtKBiEQtYYKu1ria+EdbZJh3nHEqD89v6/PswBoQV3z6feJyyBJjnlifI0mIcMzqkHcFjNCjYRSnhrX+muLBJyM6KQznJDvbhK3EW6NeqV9Ab5q8ElyiFVgZKVJpY4wLtkszQ7WhbHgBa3Wv4bn7M13pFF1ooHbQgNK6sRoirsSiVxVj5nfkTJtQXJkdOEFsPRCJa4VI4CCDvpVejEadRQkAUDStPcoxSliXJGDCocDQDSWhlhh91gBZQYkksskjWeEYnAzKgDGHsD8CjYYrHegXxlWezbzFiKKn8MBLsdsIEL70PbXDJUFdyf/JTNHLDkXKKogIaAnxYvnQ5QwY/7SBIaIIQgT6I4wip7HjfIgAHLbDiaCYDxcZgc+HgTACBWjIV6yXH60RYn4XJA2lBDFIij7r40X2SBPTjkHEgowdwBCWYQ7zTD322fe8P2QAWkx2BaRhEAkjIdNoaMLZGiHO5yhROENoepmGE0Yev30IURHJQyjmqIkAVVgOheeQUkiy8VCc5xvmxQT7+xQXSgiGNS/VBPG0XiaFOZLJEgyefSFwpOWjIE/YbTucSYb0mYFD+IcSG77DyBKvS8MX6NFG336jrKIKcc1OnCbqGQFpaLN3NcGdoVvM3Z2Zmn4gZWgyrsSO++Y/KvHNVzpUyEDMHJIGK1fA4nxGUFtzcbkA7HCpBqi02UyngkoMKHFWNlFQKhDRGEj8Q6omMSQH9zmlzJsbp71uidRwAz4CY9Jx28QS0dw89ev/kyiXjlLOuLLPVKTO0G8fxfis0ir1CUJc8mka7EBAHzP2aMSQPhZHBPMbEh/m6OqlmK4hljMEU47FMNKTItxY98e/8Ne4KT6Rua3A4ONiI6tN44aoTYyhiGFk+zHPaGwBr+4Vi0VIEV//jrIpCBlssQ8tPKyLK2tJhhfW+fHud3Zz2PMiLfHIWdCzwAEEjmmAhSyAGFObWFpfQCbUBvczi17cYBgrzA1N2ZJZlT427CvIqx8rvmwhdeQ/rfPvVNqGxuGVVjOnJXUlDlq+zuhBbxHZIOi88yybJBiqUghw4o1FqBFsN4VCEkbWDEC/WYn18zg2WxNoKERH0xvKwXV95b/DmAfoVjGgTbpRZnf6flqSd6pslUAu/PdgKRMKhiPmibYhIhmcVsrZ44ZmGCQjpLyltEyu55/8uzemLHguVwoVDUkJDJbAcbsSfXalt0TxCfKNkbQaDS0Qv/LsHmc9xfJhgVRIScGUbklOBYk7//T95NUTOWfmCEOvVCTpSfVox8JHYtTHs6ZPEhwmE8BFFdeLoxCCtNr1NvAXEMGuste1JQFQASfOOv7OercKkel08Bfoee2y1qwRc3yOFKhKMjhJQkEA0vMMMGlGFxWDPKNaHwwlSkCepi3BM2ANepSnO3ZFCyGdMP9svR7P4Uals8H0Znh9526Wj+Zcb6h0G3PFykWRCGWn30wngasb5IhNJNE3/AaizjOpEjYvrc/je4M582A2YeoojWjNtudFRd2xEVYMsHRGfnCrpckjKJzHVqBm9rwGXLfuXeKRCDHdN7DrPq7Pf9s5CXLoHwPt/lNWARSdH/77HH9IGgPERy4FahyZerTqR7Zouw3iYV2xZ11+k4YNtCHA9iACTdGDChvGAuQ0Ys6c0IuPsSDZQGgOJs3QpMBlVX2aooowivmVcMOYcwDr1+HHPGY2yr9KkG4J/0kGO0Y6qHVgESEBAIt078jTjeeRWkDcyFJnYFqckZwgXIld7i+gOpqEmkd/T+NypRjuk3Up2xAfXnfHwk4z3qtfAgM8QYNYR7UBlNFwQ5RxC6cOgXhGVYgWnHhg6xcoiMTR5p03XYsdKj6UuUnEsjeX8bbkIjKKNf1cb58yeTC2iPJY2zVPMz6Saok1L+w6oQzCifbuBZ47qU3vUjy3zfDhNaWPIoYIFiIIwGYyhNNdSsRKe2ydfcrk6VzYh7LsOyi75nIlba+m7Gb/GmSKisBjnBsvQviC7TrJTqdXMA5p1xZ3RWVLrWIajin6zGtgxal19Q3Izub1QnIwsFEW5dstO9kc+fFgvhk1ymUz+Tzf1qJI4rsA8wwHWwsAsqx2Zj39VSzO5SAhsIwAqCbbhI/BdGDYlQ5QOM7vHM1cvu+MM3QAdUdLFSFki4PR8CF4xH77VuALSC7zLPd3/XwyxI0CdFiuPIjOW80tW0tsogi6FT2LBMB5msQ0bSzeUCTt0J+/aUA0Y+8QUgBAImnhPgNinxDaBABErvrQFXAV6urDq+vluIGZIHIGLce+Mod1o/DQrxjAr56CzON4UzaONuGFKmUSKEz47Ixl2IXbhjhFBu2t+IxI/WxLGDJigwkB8t/Wyf973aCtRWpwthTH9smlEbeFauedmvMDNokmGvwzYkd4tEQdCFk8hgq+6QcfJiGDIwU4gYnhwMq6+CmUd3JeeZF3fzr92rmukPEuwsB9AydHHEtAS5Rhz8uODx+3moWYyHfVf1Wi/Pv18LueKxiliE6hbiJ92xfEyy+X3ql+8T8jYQUzbRVvz3tcwLcEuMZWmElaJ0AX7A9GtmVh/ft7vgg5k2o9NEW+rbOjSm++ATt7X407VotTriK05NuelW+gfcev3JN17+9Z/DudevkI5CgK9mi2ZQtoizPluxJKko/xsLXqI3EfVOpLTp3dWoj7BcwFVh8bI4YMnIiEGN9JhjGk6F3nvsPi2bwZ5RIHp533mAE+QFV2/6AF1w0YYBE1VUSGMSxkAu55LrtRm3J5vwFa5DkxhDCL8BGt/AR92MIPSMpkuefXt38fiDk5IsoDDfGMWy+FZZLeIVO4o7kpHN3k0tK4xMwUE6WcKsZocXgkg6bzyp2CGVoQg7O8zLvjLYyV8VrH17MHlXfE5twods9pOXJEVoccuicHH2AeQIQkty7GHJ0o+XcO5atcZAca+JZBZJ8jyIkxjBk4CEhjFU6qdiyvX8/zHcaMUm2Nze5aH8sLmKm1wQso0zQUuQrjoJDIi9xHIl0F3SYTmMFUd+jJiy/2LP78bcD2ihiM0jFSgnz8Do/XqzG1wURj85xMpc1Hsdoi0hjWmNZiAFmQRgEiOBVRT/Y0q/QSB4pTHLLsSiKIEBsEHWuq4oNics77zTSWdcyuT+NzF7Swfz3ujw36SOTTdq6Cxt59BvmlCJ7PGSoU9m18T4B32g+NU1OpAysILL+y0hYKOpex6K45B9el8bKN29g4XUx1bj1PYNaX+3ZKcCi8wYzg2le3TDO+v8Ue0hhWjn0mIPQ2BUCZJS0I/kEwrax/2YViTFJYLcXyr9ehJ57dakyam0rHoxgM0sQfL0CfibSQEDQiQ9ZtQ5xLjzhHUGXS5/kGKWXzfxouPE8shhFBfuC3DtOE4462vrn150UVvz3+YTC96qUYSx7h7V4QkGoONqryru1eZNqQ9wGGL2QiOWVKWgq5f3zOWvjRQFSCEsHGI7VqEERmx9eZJ1LO/q1/jaXHldb0eoF0ExHUgpZQ94HNK7mp5bhS7ley7nwTZ5ga+RxzcC/sXdTUvZ/WxlEnBEKr4VUoigviKBP0lnu7vnyQ3zDet/XuKWuuDdAyB7q2dM4WaDzSxahhLijCLyZzvP2ZhciIWmOyiz8v5xXg237gyENO19Q6Mj51wF99RypBvQAtU7NADwCUt0ME5WrbFEQEX0dCPhIKBJcJHgI+r3wUqBltWoKPQXAQEuJFAKMFVjuSKAjdFHzqIAJqWbpwc8/iunH+9+u5TeNtEpFk3Kuw7h+Soea8uGDcrg936w9LLad5LyTPRVmiqZ2cgX77lV0YIHXWjHKUpreDxoxGUwirMJx0bb14As8ZE63dfTHbIlxxNym0Jdo6Y3scLHSLiK14mVdOObN8BXOW1EyyiLCJH54Yy/Dyk8UbRec5ipz9MlXj+vCtJrbGQUmRc3e5xHzSpeYW5S2cKzMjR2URBnXLZvJYHPf4vwTlkjvCiAVoEXS57QmajHDTmcIwRun/vR78uivtkEmG7tA/oWsWttyiZdAePXMF0c6y1gHcGrCMm17MDSm40SlDJsSBpwlgycCxlc2QAhnCPiN/IILY/72yH2dTSTYEozCXxbvWfXVWLjeYyQTr5mqFLPLsLmsDKAloHZDiB8gxYF4oA4NygDKyywuIOhIF1GfuBqdBlYh0Tro87xf3X6SVu7S6ztvtNhLDgsGlnD3Q8EaWTaNKJGJUjDhaJSTXdqSed/I8jRoq49MiKmA+YdTCKn5VgfMCwvzk0ETdwLiZG9Z8SCqaFmwrmY6aFG7duu6m/aUX3ZhS2Pxr5bm+G9SSL4GCYndpYSunEftWh+dNYxZT8DNOoCzMIIp8hL59KBEzbI1MREcLQAMAoREobG3NUyPRJVzE0/h1HXeXx0t1jnZeS1uNY41lLdKSgSwHSLMvMD4AscIiABDqSIuRXllysqBezuI8WDFaIR6RiEGsahf0kghYUGIJOAbS+Xe9NvXbdsM2dbSlt4A3TNACQxUeSZnAZxpmx1WLex57fAkGloYtzVCMLUylwdtJSA64ecdPM+3DRuD5gALBojwCJGaElfxD67QZ3G3hBhRJIYb+WNiKWn3vGGApAVXbmWRTlFuZVJB2/3bejCOiiEnkakoLey+02A1ELp+kG4lDTUsAsRjDOUomCiRkPs1l+5bWY9cB7Y1l05lJhMubc53V5YQCBemj99ppgnIZeN9Rh/h5Vk+adYkPqkPqZOWImA/8EeRx78W6wgB7t815bgo7vbz+2lncItqM6+VZ86wllHHwOa4R6WOj0ntwCOpKhRIc9p5DGKWEkpAckAAe+T5CQaiRJFQPAENoETubmIRDwognmw4YhhUW0zCQIVKCkju/znq/qX0FTDTxOpnEtDxyJcMtxuPHw29TnT5LRxrRmvXG1MZaFEe2AjgnZaSfrKgnzX6+5wY9Mphl0BIDtAUQiegkK9xcT/2sPO3HlhXNRxBRSwgammdrsNHYezqvOR/SVNMVsS7SEFy7NIsEmW4CLQ2ulJ4H5YtoUdB997/x3IHO0ETFddTPj4NFw4zg8Mhp5YAYX359HCoxeH8ktIjGiQH4gPMq3OM8KpUAlxwrZIj2UM0aEqPHJa0hCgKCeITJ4CyL0mIOg4u3SuukfcWPO9TmiGsDtyANEhKFh3nPALFpDvMy7ndZgMJROnHkDNx2C4O4EWAkCyNUiCn40M3/4Qh87be+UgTif96k6HsBe57AcWASX+H2euinNDaSM0cmUT2JsD9dilAaQq5E6RCnj0sA1oHzqOAdKWRNXAbnQhJ3lCKxpHZW0syoY5N9SNd5uYGcYyFbL7m765//XLrSZNCGup6jkfNi3lj1jay7F2jecx+QYOxMKMD18S2uVY0o1sE3CgJYGbhxqFLdcJLRCrdWAFboZJbCr1t+AZhDTCdqiXFxdZ0z9U1X0lSGTUb1ZAv3GRqkXOwQfVtWJajw2zxLsFpVVMIKrN7p1lpichxVppAz8xLpwAEVfoZxW8PBheBiROiBIsPrMG0Wt5hgJTFnVtYz8W0kR43IJbWYIOGais2aRVstoqrRFAE9cqXRckbCcXC+IJO0tdyVrYRhpB9FUw0jCbe9Us9v/XugY4yjxiIRE5WbW4fisHj/wvrl8vZzjZbeXqRwLa/GK3+ikoUYjB1yonInBsSba5IWMVH5sWIhoBWaS9/opIBRaspFS0lkh+NKgk9pEAhIG2/7vU7Ze3GvM4a21PVkJkRqTsFSv2feVOjg65VSim/wgQbpt8XJ8kVgInEIXMlhUxIyBYTeYAJqmlmyIzk8gObSLINj65EDHK8GcibyAxvJc8xQxoyiplEMF5T2Ql5FzalLjRRgaFiEiINSV+w7eeb/dHjgAFhb6ZUryljUF/vLT0b78/XG7Esf9hZMNJOpdElYDEtDHlLAk8eFQNVk8Ej3ZzBNCe4qgcBVhBOzhKpqSOnOquZYKrP1mWhWK3+BmjAcMA5mXs4rpWmZQ8OgNEFhUeP1dcVpaavfDjXoDQ56A5jO+cMM0mjDSLX7jAEIuI8MIKTt0GbW2RmQHG6HaqAnTJU3N9HKNHKIoNTf+6UCWUiioSNnRbqIPKkAUI6YdlSQxPtm1w81fhxrhLaCNuU5uTMgci4mgNSQNjBwCdqh+6RMLliYmGBA0sTX9Gdg3OyQizk0sciAZh/Jvqm+MHMTeRGRzHjftCXNvaQjdu964Xu0/D3THJtHB0MkEZGo5ore18bN2OQHi7XERtEdHEk00KF7VGdOQ0oIS2C2IRxkc4wia+Uj88wtClP1MbYoIAhtCkILQzABMSOHAixrqLu7HtiDvHCmrtwe2J7cKtyehCGAnEjPRByYjCM4HbkK9meKi3Qiz9x8W0DNomgSj8myX6CwujKi+UCoCqEtG+YFDQiNFYKEiGzTxP/+6WZn87L5sEV6SVtRg45wuROBFQEC8jIiCI3pBLoafDmqR1RRPH/cyVH+QRDBnb4XfHzgUGSxeXlBpJI2f94tlAB/9octzVru/K9P/Ha43oyiPCdHPazdzVIGkC7zuPgHJFzhWT/etBYdzj6gzxgOdRnCLIcPB61rBOifsNv8vP+bqZu+t5YQoowDj8EyJeELTMHHIAo4IjIJX5ffNf6/vZ/43YF6kSomG2rM+7QbWb5wZ6Z9s+K43s/ossa0Z/Wg+/RK5x/5PjAH/fYC5hMwbxyo26qAmyNsz1JinrUBRmAer//HJDJycWxBI8gWsWZtuTb3fxxzr7bW0aJALRCwZ0lgr3owSlXD7NFJEAn5woEJODMJ86AXnvj6COZBP6q3ASBS38hDhhg/I4vlOCsiEfKt/w55D1nxpndL/7u7Lu5vKPg1mlG/IowcV42gdfsxbENiCPcoOCIvRfidEZXbPDdo62Ec4pAhGWJXsmCnggopFoUEucN0PM/nX3EEVpyR6eqmlLgFdlZ2UfXzCqdQGKT+wPfS/+m8xy/0iPZwNIRsPHZHoqCzkJbDPAdJ25XHd0BwpXd3uNwgmRDX3+Oc7UDrlb7t5ltOn5exLIJoYJhKqLYgUUl7gyuZKGIU9aJLf/4v/5h/tac+4kZRbcCBjjDU50x9jYNPZfb9IcjKIUSVmL2PJWnjtd1TWKIIGGR5HkU0Gl58MMQDFJm2cZtgimKI1LwRu++oISB4zXu1Ed/gzIPFrP3K9P/hceSpOwM5kWTiDcz82kVUWLy1jt6fFMyOFGpoDI0xnVkoaUTh2mS3PZi/B6yWAlPVYI1dKQxSul1riUiBNrkVFQQRDKVQJ5k4Z0RR/gJKgCZtuz//fzfvT/sbokj12gggMBAFK/wB4cwYW2P3RItDeWvAa1wJ5r40Mh24Ek0iTQN6SJXIW/dH4GIy7zE+7nxpRE8ZQQbYkksEuZL4CjdMwSAOOtO0kbRGkKAFUQzCfgXXeHXmfywmL/WUG4eNdnZTMj0Gjv18WEMI0VyCo6ihiFDCMmG4QOWCobGHJrE0MwKEYQIVsHjM0tKdMo3yUvBe0BWFtRGloMpyXGt6BX3o9gIU/NzfLB03X/if2o0883Bb0aBFVEO5283860k7KSAmmHSHXvq52627LBD08UMKcSARQUCAa0iTHsVhXrNnnBJQoz8p1xXCGR8PW1wxr78wJD/lPphyFIQRZ04nRoonMRMIgGHQuHH/q5X/nY+AL/c059BqqhdJBjNRTzZjHkW2Yc+LgISzk1jAjGZ423pZvUNGvol5C2XzXjAjCkdGqGYY+CwmSdXJEEhLty4c5sHzhr15wqAjCSIQXAxgdZvv/P0/mfLuSHde9GbsusQQBOYEosUYvmqL+byIIyAC0mvct9zCUdFHwkLR8UrwDWZWgINii0YO1q9pfcaSAi0SCiLrOZwZKyGIUk1GfNncdROm0EmYdR3/uPD/cDTu/eG+ok97mMJIqZFfMuAA58hYoG0WWQpASAD5tLkewTR2EQdEsEWa2LSNvtYJexdOMj2gybwTgB94QsLTgscEtFFpiLYZmtqDEhAVhPumOsWNtyaX//Fnof/5cHggL5qQPfaoB3676SgwYPtE8MWBgDCqTbDnpXvA7kqqKNZu1NHAVAqwbdBE+GVuaQ+cSdjT/cMyMJHnOtUjRoVLRBJfGSXBlYagTRFEbp/bCqkIBI6E1BWsaefTqX/2QZDlP48PtpuRv/gGPo2luIgNm+G0zIAIBfOehYK5ILSJCKt8a9fXX+5Py1UZId57bsQ52PtYZ4/cBAor5mI0rAyioojxPJl7BkIYux5bPVj+kpwTGg48nVv598536fvVna1JtywtphJIyGIggdbXtsMQGDYdniwNxR8OBCRJ+jKQltEMOfK9X0tlijqjpI1touqjYQg214tg2QVWq3qGLjlwCtzHpjUvXomykHNQPWQ0roVpPzEymCEEQzJAgoB81rjr/r91Z/LikxP9Ma3xqJ4wEr1HEqLy4DNZEzbtQ38f5zSvZb+I/8LGd/7vceUuiddHCKwkXJP74ai89PI4VwM3JWQAKEL6YJpBqwpREUK0ToA0pCIRWE8otvzmK5//kVslo+e25iyS7qKnaCWNiSZAIggiEv/dqnAtzIggAvI4EsmXDy0h0LiV4CxBq7Z2S4vVkFGcGES1zWzv4iwZ+AC2wm0QHarxC/v3U34z0JjWTQQ+59sPP/r5j7s+7f3VbfU5Xkq0nRbQAgLIHBBmjeoXXsZq1QGX49C0iHvrHvRxhEvJO8RpjdQ9NL2IE9dEBZRjnpi01GpxQMy1UNnEhRRCjs0hO1nw+qaBOQMlFRoHTj7/N/3Xyu83V7c1Fw08NF2KdVwCABCCIRIQah0pEcS5wmBlddGMFwc+hwRjDT1DYwwNS0auUilOwcaWxx2RW5wMhLnyGIX6PluNuZoz7gBBVRMT9S+FRYqISfBaiKRKZFNIbqJcy8Dp/8YW/iWf/eY+/3dkoLVA/oCNaa77EDOYdLlytk7/WUW0S99jc8n3jUVafFFMS4bVKGMbGUxYOaKLCkGZQaXJc/m8Ns54ciUztzTCEBJMsjKl9NosbhrY8+D9r8XqPxdy7tuL8yO9DdQnGZRsHaIwhQIz95w8wEzxKs67HGmFLSZg80rtrwgHRQYjLQ8UkBKDjD8Q55Aj+wZwi2A8he44YEboJYApLP8FKjQbXgNJxOtJyeZiMAeKALUo177x8MPR33Ol6uzcF/+MP7o0MtCgc5MIYAxLUzSKRXCJekHoD8FpwXTFXec4gzaXk4omDdfRtiBDIOpX/LzLKrfST8H0FqSCFlHtBS7OIdWpSM1dkT3LT30zxwKgzIMTe/y2wb3nXo//XVytnr59YWb8zeXDW9oLZsIPAzOQgNqXm5G5CNLc9YzQnSLEotzHW+RliM+VJkLKkS4HINKYQqGAtjHPLI/iTMcQHe4QjzXN6feCw5YCrQkkygLQQuIzAC00nc8DNcZSIwvzCI7QKh1oLAuRRD0TKrVTJsUSmLQQvW7asv/cky9/F5YrudNfWZr/++Xu+X1DbZgjyhZBgLYQjDDIQcB5wxSSQENI1XNahIdXIoICkffjDdlxvLnu8wRoiBvHdC75lOpIxrwJpRcuPA6Bh3RkD3lcBNFit+5h5R+h+EKIM+prph5HFDNB75Aj2TzZ0QFHSSBx6+aDZ+69+bxUqqjZlUqLU58fXzq2c6BOfsMI3UO53EQml7ERA3s5XaZ2QBD0SKd+Yh7jHn5AoqN0Nle6pUchmHU0I58HTsghdvznToDhrRuJOzI0RePjuO7areT4QBXxuFKQAVwEblvU+anrF/3LPCH8tqTo9Mue7cfP3vzvw9hMhucDLc18/fD07uXj23va4qR9VVOx+a56lDcOPoXpgBRcEklD0H9nDM1b5p73dHV6mAKCBkRUndHbso6ti5W7pRbHLKUwH0QlpsCwELUW4zubHGncFQH0GRIJMA4MHPI49js1CrQEimjV4iygQIsfIHA4SyDDNkKhkcW5fKHY2LVh155T56/fefrk1eiXsbFfv2dnlxeX1HKxsDw7Ozv5fWzsw7tXrx7cuXD+6MFdG7oaCoV8LhYdGb6OxlRKqTeQFH4sTKroI8GisMwl4AtAJHGF0eBHr0ImskbpBbnO2gRkzyNIzhoyTI+B2u1nhgNvyoJqMK9XILe5jGBlkhGtEGT7BhDYCRVWKotu7QQUbT3H+YIECyWQOKcLXkITmgAMERmKlRiL4iGXyxfr6psaG5uampubW3goMzQ1NTU21NcVi/l8jKwoi81IIFz1KCScgkAqPSdBoLgc9dKV89zjHEI8S8UE81aZfZ9US1x28zVtxTk5k2nKThMTBg6M1o7npR5n0y3roWC5vwe04Yd+67kKBu2VqOdIIjbAzJDBC1MDCQgHmhNIMDCrR70gqihUpxte4N7GCaoeExSIxqEKBBtXJHJ6ALbBID4accWBSQLQMrsTINGMPWqSNISYLAwtEST3XrPSnJitTHaGpRpDDPJQynKDE4iA49ehVAZ08JKpSK0kSCDNaOYBp5icQLIlJKyAcdEwnPvXPOBEbXBvGqnorqPrIJPCnDSPSK9kwS6NYgyUE24QHbfVniMwbI5o9g4i5QC0NRZGOVLa4gZQNQqCRqFb2RTEABPUGPEfSExZCtJiIBak7QA5PS2YEguD7asL4EmeUk1yJzlISvFl0XnAgAJBRgibB5BxRjq1i+JRihixwI+NtCDSbtdGj0nd9tzAhsuJl4DisXdWy/IpGeZNJCwQvv88oTTPdqAhS6bPXbcQL+aZEAxVYQhJiAf7FN9rqTmiuPECM8TBPHEqy8BdKzLiiMBwE+UI9vdxXkSe3iW0zIhNIkwDKEz4HCKxcqoC0KUQLxDf1O2KObTjIRRpXZ/PMV40VRp5WSzKigS+LssA5ON4HafddIkYnKQxUjBRyB1xVIBnfuN9pj4wCwSszvGRAS2efgFQNE5nMQzifHHI6AAwPOok4fLNWnmc+l1SstBOQ7GEAtm9bM9zcgd8Fec5xknp7g1qklO7fVnEFBZcMCoyTw/RCEKQX0KeMTE8sEjbkbYitkiQKNsSSVNbtwi+SSawM5bkaTiOFWmo9alR3HiBpTJmV3WEdKb6PrZjlRpFlR+lIF84te4qfWhaQ1m7UqyWdZV6HoZ89U9iHQH2XojFEQjiONs81pfC3YmUQJTif+D7Et9g9WAn5cjuihzxW5OBGvxAEoc8F0jZDrkz510kcUjgjTIlhZVgVAxiqEhrcxDCZK02vNMEAt/uwMDju7E0bfogiHkAWcnIFB6fx7oKroFRs0CESZs+LpHO/aw++ItOPj0kCZsuf4Euv8c4vUCcnBv/8HhGpAjvmWyjNVe8tNYRtq9RpIaAqDHcIcyWGPdxNlHKqWZoJiA0jvTugaNdYgMj7CNnajQ4JO6I3ZIWNAtJEInajwMw8L1p4DJBa1dBRkSpyAogIrrYz3J8xguI1oSlAGkU8+HzWhMxtAKwoomkzeusZQ3QaMIxHgGKm+naUMhJXWcPqgBI0xhwgQYULwAeKuwZC7nmPStEmYWeFcsgmo6MS9EegZSBKz7ShTiv9qrh5S0SvjYNmgYUxve+m1uNGu3OT9htLiXrcE05NblpImeV5VYhmMR+26g0KDKHMhnqAnS4KbaEGo3SjAj7ankjBMRVjdu0Jz8fx3wjzubSSubBdVNNWuwFQIxbMlRx1WOqZhBxArdtxskxTpjD5o0ebxwhU0O3uJJ+/LF5JUmilfgQRPYoU+Dib+9B0Bl73kr6QYjvUwuTjTsg54kFqgdxLlUeO9VcJsnAHW5tQj4pDrjnrMwox5AOzlki9hlXBGfuMg3AtmdyLMUl4CWO2pwh7jO5gTqvO7BBo3WJNCt5TaJArtTDyxqpiLKeod4leYyFoC3NyRZlREAv46zqfgWDIrbhHliE9CwSH6fvRI+ZvyFOfqlxnlOc500cLNJZMDr4BjtihvHnYJgnnogiQDoEHHBFkJEo3/k7ILF5L43fh8q30V/xgjpQAIa5DhDSIJggo78zT/qBMYXndMfKfTs9SvJdZ4LnIyjiwdxS8VDX4OdCX4J5JYa4mFt36BpihEanldQRgVK8h3mJGAspCvWxanIl3nEaFQiAUZ1f6YGsVBKbJmrcXbJIMInFlPIC6gHZcDmEbNLAtE5Ig9/IrgmieDmGNiS3xtdQMEKhmh7S7fGiSSiomhjI6A4ytNBG5gOm1QxK6xAQoCILzMA9ROSQTtFnJNho5YdJFcOxrvCVp4/tUKCU6SkC+fQQKV3DkiE5GcQ341HVl6NNoiYDBPqA9QqWlfPAi2qaXJQlLPWZUQbTK+nAGCGBKIYKQHMSXwCa58Z4hKEhO5moXjBQhC+OLpN1kzWyqi7P22ZAbsAM1Wec+JkyyQ7kJfTappqAIOEctCP0L+unJTV/XuNDxpU4gYFgJcvE3UhpBiRMAJCVaTabMckojZEQ4pU62g3kiTRAElK6pR4l9QJ/aAQal9UdfD1j7T3tUs0QZAiCQCuwhEUIkZ4b7EirIIsV0QoCOr1ruJcSzQamwwPCpR4LMaqtwnWlHL2hJa3gldx7u9L3Mf/ojxNh5jvjwET5QZHTDfHoE+3B9y7O6xwJXgAuYFDd+QBUqOYHl0bae+dH1VFIMxdZrmkejFIP+cOMwyzWUgrVYUEilTymtXgjGXi6Es1ERTTmF8SVoS8bDJWvFhe0SROOcAtOr6kExACM07RJ3CE908U4q9SJ4cCYDn+BnHwCYwaHDTjQKswJlgO0FKtWX5Zr5pyq8eIjxHvWnxr9yucsY8nFkjck1QK0JScpSdQ8g0ThFUyYgQ6tusG7CC/B4ZEOEE+7jg4hDFAiHJBDRzbwFOAkteLxBaAYFXQZj2JqBu9xXRJJ0LYPhKB2whhBjLO2Sq62lgR4CKRsZlOGntX93AGklwS8URLL15Q0sR+3ggcCoIvSfPGBU3WD0GiSzZeN1ueQ87HyldGDcQXGl9WktBC6LkGjMNIC4gzDx7VuKVUJNBPnaUbEQrnWu3BXsH2QlXvEEV86FBE89hkIfqVwFF9EE8AMPPswiREvQZ8hKggYDt4jhoiLL5JMXBsHjy3bI5JLiDnvEdB9Hl/gk0oMahYcSe+SoCJnlYLqn76tIs9MkoMvTZtJFO1vA8sQOSuH10RxfuY4s07Zd4StaD4senUUVO2BkTWnBUorlFuU8eZ/zeAM0YEUE1zdWeZzvuu1D7ilifBispt2+A7EV0mnZrhmFQ9mwA+476nSDZY+SqDxvO7JMgiGLD22rY8RECXkHI6V/BSDlucZqazfwcqQP6Iwk4khaDQZvJ82p2WwtwfR4DiXVTZtcmFBwisprZNKPJCIMpZks5WwljZJma84zAPId2wOuM0WaVEOuH5cocrIuUrP91TpeV+l2+3FmUa6CxYkb3DZkUTw6jabPhObsdPiz5nqnpyckcBqeVE0kUgYCIwjoDTvBUjiDNCnVgpp4MSJtxnLHV6Ju7VBDZsyBbVqXOkb4ghsygREYp4fjTNTie6jOMbhIu9mfPPt2pjvBe4aZ4Elh81T05bxdtqQkrzIkkEh7w65sF99G2EI8kv6DkV05Y6wmvCuHO9M0WAkWPt94Nfam0gtkkIaQYxDSXSg3QJx0XIXKsO48bQNwco4ziowpHKlUXmqwfw6UpVbc6s5kzQ64li4DIlFDhiJEx79ghUU7cRmPKq1X2KEnzSBTJ7zNRiiHfIM/+MZXUvCQfwix2RdKqkWF97jCFSTVc4hEeRKcZC47xHUAcCVA5KGlkGDZgOpHbDUsWgglUNJ1dB4fNGjlkfimAFEDyY2v5IiVsrTDVxIzIR4zbJqBwoAA0WKDIPkMaM5KhPQmjekfUAGMYeIFUaQQVGBHkhhEKZQV+UHJNPVIEBGyriv6QGDnhW4ucOnzBsjLPi7sqUopiLHfJSv8G3+id8EkKzkaZgJ2bBXsRKeWeWYZmcd7ENwReUeM99R49y0MU+kYMP1TVRGu1JFmyuOLhUcyzr8S0qD07KC3fwz26Q7aMcYYUPkIZ2pc6hDQC6dUYAE4WmZWJh2uEkRRBPT2HRokMxSMGAwT3hK0PTAjWKTLTYPkbmcSKJBokaRRKQOvfTAacHHVDFO25Bf/EIaVHij8nyOnDeymdDcCzzjPIhAVbbmrf+g8nrQpyQaX/m/bEP1R93vj/4EM7bu03IIZEJT1nudHCP7uCANMxywYrock9w0/bgQDsSYwixuuAkkTr2Al12Oz6jTWA21ZR1JQxgHCU9st2h+nBJykGwUe0bImypFDXTNKhlbCulXiuYahI/42KiuFYIJYRjYmMMDiKlcMV543MtJzy9vj//ic+S7xbmt9KbEXN9reS6Wa7Cb/1Cb15bsaC8tE9THsuigJTGe+wxhllDjKDlSUlluFuEDpakAAC7mOlRFbxGX0hZi3zGENCVVnyFrSy2F4WlTS8behkVThPFJgcwQUjqZBxiJsMlKYB4NUhRHSl1ZwR59hE2QGsGu5HYRcnFBaBGXwZHpOBwfg4BXlltbIdNos7BUoo/kKQFE8gIaCHCarBBNocmCCcLO+gXk8Ygv+14oOIRzcYGhKHfja3QMmEAwC0thCyzPM4SjzdOSHTUwtYEk3fmgcVgmq7FYnhXHxYygjGcxpDiqN5uFJqMJEZgzXHWz5EXiXBNPvFzpUoAdiBwk0EUVzwRMRt7BRoubJJN2CzSkiTyvBUpf/l/UZ498FybbkA3sccKqctOPylyo6cdTALQZxUKi0YR0HBgeS5CJF1A6oHISQS4Yh1rVsUk671olCtQvtzIqmtWQFtH28YzIjD7eBajvo2QMnJSUI9A0qBV1thLgeVmZR4giEdLHMS85iBJj3EQCzLHHX3kAPO2JQQgwyDMgJhoRBSPf3N/MIvaVHnkBIkTwBbJ5RVqaKQtoL5CmZST1PKgthPpp1cFnFpGK63H/iuH0rf5Tv19dn7FzzeA3qTPKF2W4Qp8Dwo0fSyaZ3lwJCWyeoHXpyXkbQHxRfUqhW1wwGm5igisNzDMgQocW52IN06FXmgWBUEQHKzAr1UFhVb9cqc8+CuDMSLQY4Pvg1pW06lrSD0l87IaWmOGWQ8hlqeZxeAn4AvOTg3loF7i5FZRg0YBCsAoQ0sTTvhWb0jThs8pFgwCM8ABNo5FVdskwVQ6+WX2VOCQEs2ZqPPErVTYgFueFdcMiz/sMwGKcGmw8W3bRxXQrTlbnLI75vhwn+aEmRU3Yv2TYt2XbVgJzXuq9k5kAQgITerXK05zv+j7Z1XtlI+Ah5mB/lr6OfkMpAwQiooAUETiSWRy4kcYVkECA/I56H5pWpWREtqsxLSykxtEjaAgqtWukCzqJRWuXIBRCbuMeE9RorCQQ8ArRHCFFVEwQj6O9Bz2VK6jgEOF2i4CT7D6aRTMaMTmgymNg4dOmvHVcHhE8MQFq+4Ku7DP2aY7NM4mrjuuhQTSoAqY5OQgcTdG8RcXjsoAUkGNACiJ5hXaqwrNAbx2Z84x5pKrtDSuv0zpRLHkVJi8z5O2TU6HKFfl6sZbiJHtVjxMkoskK4Jq44NW8BzQ/LheaBflariEQUua8W5UOmV7VhiC5kt7FsI/rvYQyOmA2aDs+VpMMQZP8aI4WQyhEsIlnYQIDSKumYj28c4GPuJQ1onhiOmMwhRSILAOfyXxOWeMagCBQHxxxbepI0CErtcpYPddyhb/clE5+Qg3aSKZ6qco5aXJiUnRPtP35iXvgC+krTr7XG/EeWuhDEClMkLDwMAtIP91B2mfEg2S04YkEiC84IQyyODUfX+DmfEjQWw1lZ/KXahCIk6oqmTgndP2adaySYHIiKxAhChFwTNA0Tl7g+ZYqDUKM0Gqy7msqsoOiEMoRhT+eVpFiigjsxcJ4119CBbCRZ2f8hr3uopxJpCeAPS8yBAjBf9vNIy8UyTGwPZ6Rk9ieF0ht+Z1XDM4TBg3mZjFNSvAOGtOsn7FUHYYWK19DCjngAo5ZYQBPA9girWRwYhF4ZhmF9WGY3cMXS4bFEVqTB87hJMIAZw49+votJU3PAXmACCOUJh9clic3vJoykaOSBh9VfU6BJ7KUhcTjow69NnY3TqvF4LilRhw3ENEoJC84o+gzr3epRgEaKfM2TtUtFBDVHsHqLbAvKqQAlkU8wK3fqFJcpzkkoKpggstM0CqD5dqzD0ELJY4oR3G5mzy0uVmyPbk5XoFywCQ34AUTDGOA9CXgPPHB9S3zShj6I8mi6zmpzBOu22PPe7ag0QSZKoc4zgCtxkH9nR+VP+P7gEJ4FyFXvsuO9oiNsi0SkKLv5bPWPbdff/w6emNvswkmY8aWrDjfulTb8Ub6TXnaFynIrHfcQBKKqaBVUx/SpOw7/mR0bPTR0Z7YCaeAvYCeCZpcWhx3IM04tjAbZO8lcl+Wo2nsBWCC46GUno+F5BFH/arhjwWIR4mnlvpoFJBVSt8TEUAa0RbhgNFwaoK+SE3p+8WWMiMrV/UK20UhI2SM6jWjrQIHo2k3RhdEjkwImRJZ71c71HDuGTtkqcyPOR54yd/C8O+jHpYQuJgHOTbSGRdVjgyGSCcR7SHYgWCsA+SsuuM282B5a86SRC130QSh4yCoeW7pfie/gErp3RBji/icUdCKlL4lADVFzKT146VSvW6Tx/CDRr/EaWqIIbkx8UVsIU0U5vuulER+//SaGqYO4sQEjOicciIFaV2bSJNKRBVgnUwiNxED4Eo0jXxDAaEUS0xNvlzJadS9i/M2h5KiO0jgvIO59rTzgD/ed3p/rDmGn4MgwQWo/okZqnzXhwunfAN3x07NGwwvEFxDcLUOmsuR3EnXtyhbOBibovKTswX3d5kxz4SCHIbFfC4RsRMaYxLfYDq684kSwsAAcRIJx+IwQOU1RfC8L8Eu/1zt9NEUKu15ilqBGj+uOYefbQm7G3RL9i7RyiyacuOKoWOxjeK5Fp5MnHGeXQm0KITPw7jMo0BC27/k/paOI+bShxiKGma97CGODFSFqgbApYiTtZ7HMUsKlNCkq/tMZMVpyBDoX2OxVIzVC0nV0khK8bbJb4v7bvMZp/uxACiXPBWO2S6veQyPhGHGjHF0p29DJIvScCYQBT4i0vCsuvggRqVNV7RHco96pz1maZc9Dkh4JbF4ILf/9miL8WZmdXPGIsSWmqxmbC6N8/FhlDhS8Wx25i0FVnpeCNoceBgDnmKUgCicET8tkqexwuLjnCcZgaC8VMsfGgdo5Gzz+g64qz1W0RdQnypwBqE9pmWsmOn6jLaQZhoBxcqwkAySu7TmM1xEei3RmT8qL4ZGNKtUieNFlS4MpwHSbdkYXKksrXNOjzaISiw9eN/yy/r48GUA1nCOT0pQ/L4ODfQmEKRBTQitgJyW42tew01TMijQ3QrMR2+YjWq64jp7n80rpT39OMXyuMX5zPMAuVjnjUgFIUSFiReaNf7xim9FhxwF0VaDgCCpyqLIVqo1O8THFLOsWI+HYMKV4EduZCvAyfQDARLtgMP+2VFaIoCh754SRH+b6aFffMuVoZIQ9awnRZP10bUwyp2fcR5TZNioUEx83kXRxD2vA9LmimeY3PpcA+5c9orFTaRC11ParKbMdi2QkHLI3J6DqUQz28cG5L6SmKQ30YawtUAa0Ntw93czm/oi5Ue2utz5zaD0I3FaYcBlRSMFkQSnrfx7vvhFqehafJfg9fcqvgH3NlPeInOdB/GAHHCkzZQekGfW/IbDmj9cEyzPWx9c7+YJzTIt1afN2sHH+5iIgKQ4wlzcXk2iKiKQoET3sc88tgjGsubdHf3jJNOrbL4OZvNa8ocmPHOjCdgZWGKzFk0fu/PDWgIARaCST3a3rDi9ggeBtEoyR/lkdHWWSxltczqSoRdAcN0zzjEee8WRk4BDLM+wPGbZQ0MsepuGoFFjNUvUiD7rx3tlTNCqlpViQCKh1VJDXI97YVZIuzBv3k6vkmyJElHhDwBn59EpGhh0t4uJFoVwnmCHd9poONkEoSwYe2Fa06ojoYQkPB/sILfGwwuy+IZvmEOshhXC0BSPJtGYm8/zgghMCYC0QqALlFaUaS0doNobBQFhgA7vqYDRGRduRcfxeBjx7mF16SNaaeIqxn5b7l8vhgBWcmsnPETMYs99u4gZsQwxc4WDYgLpjQE47xAofHxUZPskocW3POMaJg/XEy68BMxMLY5nXulzqu+GlG4GihDCKw1W00gSFgYZj7e0sD10kelpQusLA4mvwTe0JOXuoqUrRIHfVO6DQA3jEULc8TEAgXlSJQ1NZAvGPL1hJXKzaJL4uo4Nwyof1pG+7q2BgnEguw6HDGzXPe/Cg9+ZCXAcNOkr7bDPydHGQ5zpgpXzpGCHumSW5crQXFfwC1UPV9IYT+NMwWpnRVoNAO1Bgzbt9Yk5TnIqd1kAn6UphmPSOZsMqDKRhYp2wBIab3FEDUtwJYqKDQdCUb6u9PBKXnJueBfpyvmjpUoCHleKcN5eSeNcbdlXOqlcLDl8d2nPjKkRwpdhdSUBw+mY++gIOFTx7rsMmulTAgn5IsC3sAbKc3UwnGWqPH9IeiiM1kpmpOB7EFYoTMYQQSTyiD1W48V79oHR4zGD+m8xUohZ8Xp8Lp8/LhC4U2ChgxHxGbE4orGEavlQ3jXprCfcMcqHoDQ43w0gBXwrNx1G+Ng0ixNK4Y5RBtIMB0Ia4X5N8DlGYBZd31es/20FiVaFuF1IltTzLq4io7FsQRy4LXpXZHE8MTSdYGqEVN4h4dA8/mXYR1lnohpxEKOsQ/o4XFfEEa03hCRiUg3h9ObgShLPkoHvGSnGgvaV9q8XQxxAoPhp9ymAYyqrOKVnF15ozht6oWgUKT/VZBhGV7cjN24faTGEywjf4rwAY2BDiRifiBeaOBZI1qFlLQDL4xA0SxUwur9IGy1nNOJevb2KPoPkwY565xxgbJXU4wFJOgrMZjEeFR/n7dc3naTwIfQ2b6oO5ncrlyNYGBxd/Rb0lTpWKwQhlDQE8oDUAxCIlWi8i8vGjSv4EZURqOidoLWhtGDQXqoEHCCNmvWCokiEuADOBoYCkkB5IGkxSaBwtLiZ4ldUn8kYO0O8xlrd07RXHR1DH1V5MSRwjokMsgTtPKgk6WvLAp8szxZcEWa/gqIKN5l3cdGcOgVwXqQ60c73gaHOZGYm+VPHXwnqlVZ41XK+GRvTiR0AVyrLmyEy38mMIBU5tnyJgYWhtdSksI1zglgFmcByiNPLYR5waTD5iAHdR31IKdDMrgeGaWJkCdeBniaOKikJnqjaqMRdokVZQsvlBjGcIL0HemSjvjKOLs+wZPa/VT569tH0PFHFpB+YfxeTysg7c771Rx6OFJbl+/yUcp7A+3EaegEIUZwLhOYDVS68RxbxQ4Ag68gCqY8gx01k7EqiHgVKFs2O1rb9vAYS0AKFSQUEN5hCyjfgzhEjNdjd03jDCCPajpToD3dEgdIs6GXpMASU079Sa86HxHmAGOzjHo466wSDMIrRvsdIVIq+x+A8sj4QfBBreQpHMBCQijICoOv+VZ4VUnKXZqUlRLLDR+gzVGOeNheNFrEpzYFfsbFwhhkj9Bm7gdLFNAqzSzPXUDIXS1Q1wNiBIssGivF49LsijxEW8QVH24DNU1hJTQeTmmXfkeMyWYpmeuEpoVBg5EpgAVFimgytIXIRSn0mxrAImZEJrXtGD0hsIg8kfVz7QCwaJV7jYxjaITu9QNQxCObIhXjXLw9jlwqO2fX2vKjZrmQY2L7lGxHhI06c3IMnk/GjfybjXY644VbOHlFcaFRm97epFFbYeWhR/yUOkviI+I51FdU5juylZDB32rQoERMlgKLOZTRUxpU6UDQt5hFNjHDEkLaxAkKSZPFKeGVNSu5AIZUJLkVqIceXPfde6QpgiBF+Sy+8Qf2mbRhVUEpJ/E6bZccYIBAErKjEnO77n8+zKvCEZxuuq73f+lp0KQSoOpbN7av0lytltoN4LNMlzimDYXFmdVdwYJ7d5S5GUB21QwKsSJjPuCT4oPPQBvRLyugtWQD44vmFJZZiSa+UpDUDOgDPm2SXCihFNLoOh7UaoR390s2AQuJkF0IAM6KHjF9JqmS+AmqjHBbkGRIHNErVgodilmbuqEuDPsMnlnLRNypsdANVbTNvEKFVhEQbZyAISTMFFO5mSoF7cq9nSvWCkpPGFE6ZEegdJl2JmMYUBOmwefI88ap6ZncDzudZsYBWMgmjJqNo7dHQz7WKsnsX7LEsRk8hovH4BWkbGwujBCGBuL2KTz1v9zyfB1YeqA59mn3LV1OfyWZ1nJKUQOEEYoaeP9k2nDm4TG7h0kgwCAiq49NlGY8TWbxWWACRRM7S1RVksJD2vZq2Co3Stj0AdrhGg0gXld32LzpXe0dbUFKj/VpnpKYk7R3xvVUK0rj2qRuMmLKy0KA4PRGPcDpWQVoccoGDMBKmHMKkynySPqLU8gyiDoUJwKqiWZz5ETJZpCjFkmOZ5QVsngiRDjwXARunSUb6RGRyq+8SqoaPN2uu15K3U5IwpHf8U5c6TDTkF8REujOevYVDdssx3yFzEoXiONJyaP1NKaxRtWNcM7ppsiKqlUpURVlGGBbMwcssQXH9rYeL5I0qV/yFfkd+m3qKb0W+RIyVyoPgrvdkrfDrlJWsAUb8lpWMUQR/5Y4XiKeDZARQMB8vmye0FMuXa6Eu96lCuoY78+RbFiLbs8uOcA4hAfGRoeisq93ZnzS8BEVrkjE8W7En8un7NgJ4nHY1qQSaY2o+bBMo7jm5iltHRwpNQ3hX+afmIgRkRQTlm6r0vKmSWNpgK9Ogd3vwjeil95uj5K4adcVZdOWNGSWXzvrG9YLWiCG8ilfkMo+jHHdl+xgbIJ6NolCQXPQLYMhsYE7pM/1Th8F8FjKjf0gsigWIBxFGZqi8rZKzvfbO3XVT/UHnQQOhE4cbkBPsJSfC2TBQgnslB650ak7B0ff2V/rnRUjcU6JzId5+JPnuO80ESIfv1PeUsNa8At5xAdcHjXBnde5lSz/etJEgnyP9r+bF5m17xNaKVFJxqyJ97C3VHuMNTxuhbU5bRu1jhRU2CEwp1pcdcVEQMtE7hIUFkNywrQgEzqFCDI3o1AK23A8Z4mrcRySAnZFhfHkgBcRQebHbImoj+KR8wPVBQ7uT0JGL6X6ryAggAtgmKYNmhA1xxwZfuJdIg3sF5xs/ysSp6Vqm6VuQL4K0T7ccgyCj0BJ2fdChei3+nM3wgapdESGtFjcSnq7Alc+RQ1DgGkXyKq0EAA1RRRx4iKSSQpC45cG7+Cc2OS0Vq2SS+nD9b6iWiMiEz0RgjRrhwmgwGeCSUse2FgwYzLOQhlFUhhbEvVjjSmqyhBmomFOLZ0rSEOYXdlJ1+4b3mVfIWznutHOmweGqfAxpCttsaH3pbiaNFVL8I+JkDotgnOl7duzuVDTOkTnjxA2nZhgw4hpzC/QIdIR0zCIv9MpxsE5iNuRjsQAKEaQwEIxLIgo/D03T0Sviz4KD0C8gW/vGaGSkEmdGpBoNMIyY+mi99mGMeXYlwKVKAFPtDKZCRP/iHzvztbPMrX7HuM6jC8GVgYrQD9WoknQ7KUfOSNGEQ3/r0h5w8WEBOuA2KSVN6s+iygQkbm5XWJsC4RhOZ3amD4qWWgQEtCSaqlGFYEmbJerWFdVLFbdYBOSamSkDrk37liLap6OT6GLgipcLKCmComJd4hjh8cYQ1G4p1/aiiW/GUZzYZpwXt9eLTD130cn6bXGyC9+lrxc4h97cqMmBwxgWOjLUd8QA/VH0X66R27x08Bxdz2DkpHZhXA8YualpeT2vdsEASR99T5KDr3V1U+NZczIswD5tWqqFu4TIsLwXCL8h6HJcKUXqI0CUtFBZCUiEYB7sIUFkWsrNZnIpCIIQB0KDDKdqlqp5Cupjc7yG9DZKiMXitztW3KIFUJGGMJEpCAhJ1gPvKtizQo1Xn5ZmZdehcWDAIOpGdiWoBo7q8rHATxsud6q2tNr32dApXdmIyBcYVivaQsakgHjMGSzECqKGwlSjtSA4BCD0oPCwgbY16/h0K6gKq7uPivjA5HEh95C6uAkc4B5SWBcqUd7CAUmcSWgAQGkUhNfD7gPJGJJEEZhXvFI2CfPaZQsJaeU99BNRRLahVbofG+c2L0rLiLO1MxVxkt/oA0fRTToQYtL6RnsARV2AEASUuDJ+2S/pIwlKd5dHCfsFRF3zCtFXkoUgCO1gFjMMkCZxsXgX/1SJW9IRba/5OZMMgRvOUGkj4RDQBQYtkY2emDpyJkGbVEa+cwxpE2O40IPRzqK3xaqnjguKZi3AJFgkF1lE+ASOEhAx8DoLRoims2rwcbE5MR5bQhJ3sjWlgMP2zkiUhz34BOXauNaN5v+yf0hp48FSahkCv3UGAnuRLptg3D+GcXMj4mnLTb5z5IXp1swa+m79jFUZcZtamR5LY7z4vCTYiCiF8yIigGaLHi1iqCm9lFvoEU4GiEh1HMK4S5hn0LpS0vPadVpQYc897/Mnmax1nuSxYJohoySuOeoij8eS7ACXtXBT3LEiXEyXKLkJvsH09ocIKh9vhOIIYJkrZrrId0g3clBke37kJxyUnhf2S+o+Rl4gbfmCtIC0L8kWDDqZjGYK6Jb35CE8ZeJxpKPnXYEshMa5MOM5qGzFh9SKwtC+BYTRFkK2oGUv6C9CmCXaKb6LzENGhHSah+qIjggs8D7nqaOUAtF8PUCSpUM6E5T1EFcgl3a3KonsERkz+TzRNIJpHtG0wBgmnCCFYXf8z+dRqxQdFjBuAuNKh2eoeklsntcGFqMPy7iz3BhvJDfU6NIDp+PeqC/vij1CvFwp9BohI3DCwEFIAi7ovF+rEuWCERJidC5BckVBs6gAiqBdROGIMxFOdzCvPK3gWSFL14DVYfE/EjSsTIt4/vEPsYhFbDXzSRkkwMgniA5oW0cBT8kQocVTbUEleJojiKfPAHnaBISsPY20tI0mUUVALISprlgpUD++9M73tJ80L/acWdojnY856T9u5OPdYrOyrd8dRzFxRSZ6C3I0ZORwAQeM/FPbltf54MiJFoetego8A5Zu0wPHwZRBKc8L8wtoeUGBySCnON35zQBmlxXeElIHgCYHbbiRw1glFiSEaVpN2MskH452pVmDMAxZn1DFOECckuZYa5EORDEM4gGESFlGiqSDwiSkx+6aRlevQ5aw50qwHkZvBLixiB1ES9pcODQimVTK2UOaVGnQjK5nHWpYTNbzFNmMjRWFCqXcohwy0fQQmAgk4+qqVrJN8qtf/5bf+lt/8+f/C3/9+gv+5ncV8rkYrRaUKADK4Ps2lJCJS9tXYo8MXOkk+e/7Q3/hz68/628qeLtprXkWJG5XGimOfqIFpxErQ1MH/+2/v4L/uX/zO7vyqz3UL3AMMEKeK8Fata5fQOrAIxGuIvTXv+sv+Bf+c//OX88qSfCQ7AzJUYCu6Vdf/c7f9dt/69eKfioKrlCD5xnGCD24Cur69e/68/+F/7y//deq6zgbgq76zZ+3u+r3/fbf8tVWjLOxwZUO72ZmAe7Xf8G/8T/2X/sf/x/9f2yVlyY/Pbl0pD/vsaa37I53HBNIHX7XX/nv9c/+D/9n/jd/gkT4Y/4P/41//7/0H/BX/wNdoTcfOt6xVs2bItt5mn7rX/Jv+U/+N/4n/hd/jP67//87/+F/5T/sb/9n/5WoxU2/lmeBz5VgrRsbKw3VIH25dpX+zP/Y+neC/nH/pX/YH6nMC7wYyomRfv1n/xv+o/75/87/zP8I/wryP+H/8N/5z/xb/5l/r7/6n7H6srw9Ygi5kqi4lWAq85//n/rf+QT5v/1X/kG/z63IIbnz/J6/+t/rn/kf/c/873Q1/i//i//Ev/mf/w/4q/+RdBxmDoO++QjZsuQP/I3/qf/x/9+f8Ccc17o09+36nnpENaJOIUJcTBt+5u/HPxLT/Pn/Lv/6/8Ufdw7+x/33/u1/t7/4r6T4YcHMAb0UXjW71uC0tGHF+LP/bf/F/71z8D/pj/vf/af+sX/tX6fBtLbBufz7P1fiQzRkDulZMZayVVD8rn/U/8vuYf+wrtYIK8yeRwbO8kf+5v/M/9r/5VjTP+GP+1/9G/8hf/nfmrk0+cbvhP6+f+X/w9r/b/6rXN35s/+d/o3/m1rUY/b/zb//7/MX//W7L+YMyogNJ4qe4x+mV9cCh9X5Vyd6oU1lQwSeP1l5UZ/4vM3MqNgEWd3I5d+L7Ka3qUs/726tR2gAjvSNQoif1JmgADjCYLlsuDY/N3h+dCHY+pW5R4dajduKlMr8QBz/50oU1DK3G+FFQsil2YgF+LZ90W1SetnEfKSV+ACFkdhqizee+RJs6fKfxwfaYgAnuQhNprANSqtyufuLo2luFhMg4FQA+cFL3xdKa+FpdW0LCGXvWCxLYApDFms58HJ2LaVh9vXBJF9EswTed7cDEmZgXxEPXJ5YTkl42dPhnGV//bUJNzg6j4/OpyS8NP14V70JIcbwpkQEPFci1JrzY9H2OLAETPOdBaeIZ3WE6+Wng93irnNjTmr/FdnTPU2O5jB2QjGYZEGKru/OhrlXYM3i9Se/pdWoa0sf9tdRA3i0hoEhgiDuu/SLNiJTcvXX2T7+EBF6/mTXrCwRCPV2gyEP4zTseD27luYw/2FvvXgAkJTjYnBU0EqxZIIEwPKbbk+V0hS+PHYMPu+65bCigOdKWAWkRO73rxfv/uHhSul0DLzm6bCiLm57OpWqoxM3uo3zBMIi95yASg11L9zwK8eIEFmLw4/DlHsY+mFrDlRSSRJIqsCI+25Pr6U+zNztz6F/wdcRV2rQ6pBsDoSGfaPLqQtf+XKkyYz5HaqEzoTLBcMuIJLIMstveTKfvvW/L3cwv85OGDO7HhCdm2dOdr6UjEui4+6KX68xCJSMrC0FfrC7uO/NUuqOTmFSRUJHxGOCgBoWEQ77mPK7KwFGyLod79Nv1NnLjSiMtJlpA5CkB//K4o9ekBSFBWQuAjdIce+HlWyUf91dNA6tSrAIgchiEKYgjCjjoaeL2Qj/fbHZSJEUGP5cCY4+OiNxRaBLYwq7JnyF340TNCWY+RVJcfub5WyS6l5XjCqSsFCCujH/K6ESrMKmt9lk1btO3Zg4HUhQT1R/Rv2V/sJ4rtEsfEZZrcwEJmByfU9XslP+fjA2dlRZaQjAMIpGqdcs1nZ9OTvhYwcKWoFFTBDyXAk5hhWgwhx9tfiIG3c+8m+YqS5D6ojQnVtouZ5Xq5k5+hd7WjHdmUNlHGHydr9m+9EAcHHPk8yUf+YPb6SOKECtxZu/rWU6fN0eB19n8WDtPBJafP+Zy4uZCl++0WTcJcp6wtkEyo0ERiiC/ME/mQpffd5tkdZq4c+V2EW4QFwEuUMhm6Qrm01odXLDq64uZWrp+I4YlZAg/V+8YAPIeT/q+SFLlF9cyFD3C7VLJZFgMIbpVHd9LfPhUUMa9xvRWR7DprHMhU/sJDNZmzBZ1XMql4RmHW8yF754NJe0KKsyrBfwXIkOjCt1JZRsAp6jM7CnPhtHUjRwC/h407esHV39rxHTFNWAXUIcU/h3DasjZd6hn5nKLh1B/8yoqkiXDT/WKmD4uSkOeq7E6lNY/7LLSeSu0quynXi7mX0s6yN5Dp1Gwo30sv3liHdPV4Dw1TdwkEuvbkKeK/GhSYna0FwBQgbRSujYTKDmK2VnMUi4iTaov7RUAZb+2hmDFyBNL9hAwC4992Q+YLmbqxmr/o6tibKV9vzx2bWKGJYu9Jz/vmhbdyDAMHAAxzrelypD+Ye+SMvBxcSHIGIClZZ1d1cqQ/jfzbgq1fVupnHf3fs82aF9WF0LD00r0XtHK6NNl2/VRebWBVKRAOq9843ej5mLLpE8IRei6T7mSiX0c2//d/e/v3RfwUFiG3+tVcrwd4+leeBDNnTX21KlCF84lkclFtFSGfBcifbpyIt59WfmwgUfM/Pl3zZZKY6WnnfqjiiKcEysSROCV57x7E8FiHYsp8TQ+bq0VunDn3WWGN0V7ucOz1aQxMXzSb6iHjCZBTOICQwhPxJbfZXRH96pR0fDnysBnFeBVuEbAsVbPqWQGaXtSM2szB2frqQ2/TZMjqjcxRAMb3y70UqQXBbqXn/1fy+tVX6gG5jZqMShcG6hojSu3moET531BINBGyMBTY93zlaU8NLTBpCJ6Rv2XIk8A+jlMAVkjVdSseV3B7G75lS4IudRCbPYa9R2JtqU52QYFTuAUr1qtoFkB3o1FE+3qddQvLhcaSr/a/LeZeKWTW7EhxYqTPfq/aJD3N2Q5/h0l607plFWEEVuy8d0+rOHObaxLEToKN6qtCadOxx7NiLHq8oND4UbZ9aqIuI3NL0mNivcr8DVzH/NrFP2e4laLqVsU7+V9J9HwdoIVfs/V8JqMucpl8pDw/XFlDbnB8u4QKttbXhQeU26chJPiDQMzZBoflfZBZqKAofLv9VS5EEPkLmEET+oyK2j1w0gipUqlZHiESzl38ob/jQa6Qx7roQX5nBGeyU3pfZh7no+USlXE0nZcL8Sm7R0Knb7Y0KsvajowuTfw7/WKi6+6++BVD3DxdXKFPqsToqTI17D4cWK1H1Wq70R/ty0JPFuEA61pJfwt/MmcIWcwu3KbNKlI+bwByxjkg8VG+OgE2Qm0Te5Vj0RXUgTEV8sVarS5znnImJCMAMgwo75ypT9zoxFmz0ILDiviFKaBCre9z0tlVNHY92mxFC8V7FZtCdGP732ZT6v1CgdJqXQMNYxulZNUYspfYH+xodWK1Zp6Y6ldNb60GyFyp4pqu4v4LkSWVuaDAboerSS1sfPl50K3YSC+MxyxcbcbhBHFmnJVrGJ/CEHzUgy616m+ClgemLsy7fvE3+XM4tzv25JL1tX53//+Pbx29jEXCk9q86kUs26f6a4Wv4z8e3Ttx8TM4vpxHw7Jm7gcyW0KJfaxEdTO0gwcaho5mXvoTS3u+b//p34O5Mm569h2Z6SwF2kmtbjn79++zYxv+Rr7QAKs0Sa5e+sphLTX/47tq2vs7Wpoam5tbNv69HHn/9mEdI7AiApB9JJiaUfL2/uHuhpa2kqD63dG3ZeejWRTge4uAn9jVz1QDBz1KXUL/15c+fAUG97a1N9U0trV+/Iiedjs+Gi+w0VRik+V2IUyHpepNU1LT/siY3p5Zyi7dMpHdYce3R2ZKins7Ojs6t34/4bL8ZTeumYOiHWmCCrYnH82fmd/V2tLQ2NSVYNbL/w5Ku7UWd2ojiqmkpH8OfJ4d46M9PeWF3Pof/+pB5YRa4sTm96l4adYzc2tefMucOsbeO5r0spME/0oLxIiI54OpW5G2ls5/y4v7czbzHazgIa+0++CszH+Q4BGfhcCYvzuKL+6FRqp1DtKZg5wPENrPV7GuvOyUcHexqMexVLoOPm4RPvUukP/yuCSHOJTb+Y+3RmuJmyUCSHNfQfeCJtL33emihL6EDh4HR4B/vtaFcsFmJKNaSIO498XUw3vrSHX7kbq+HrmLvb4Fitx9rQrLjl7u/wTZUX2KhYT0ArFfHulfAGfbuvqQytxoQQy/df/VkKAa4vR/hzJZrGOHYWb3ie1jwX73VQq7DEiNjzL8KZZ17ubzHtpeiScj0nv4WvZFZO82ImktJSL0q/rw7mysQeY4n27iPvcUt06eeZJsShoe5j8Irv7UidOiIsfEkQgL9u19ulVMPVJGJHMPfcze6YWCNmxdfRp9nL4Z3hqTjixQ0ddL1BT3CHtvBoMEaXqB4gQ8DQfOqX/x+jSIrTH4Sd74hKoJafWMVzs6lt3m6HV7lKBDkS/tet3qRNlZsonnul/Ej4xYXzmwkSAySkW6xOHG9AwYLdId8KG45df3r3/LYmdgOJ7EIpcCH8vqsI3CKQWWgql8Wd30rpRUEfT2Jt46F92O22hFXJ9UJovbwS2qj9sjUYQZAUX4S26Ov+2JhXIptAMGu4tOgbl6TYkOuDiEvHKEY8+D61LdKb9WaO3BDOWM9MaHvc7OIsFNoZgS0dCT7p8ntBohqUqRZzZ+u5M3bSkxvsoIQBzO7Qy9TOFAiYxPAGgktP4dRyeqFlIfGPQi9lGrbQHWcG8J2ha6v3DVEAvh0I7US3mc4f9lsZhzh9L/02sv62R5bCcyV8Fb4Ezchfm0urKb9QR0vhMKX4NnS7rRsICVUbiRQ4PT48Gdij3jBzp2N6xcrDJhZoWiqaJziEGpUshU+BadYt8kMIMdE0QlN56BxN9Xye+NmusEVt4UweegE5Xbyd87PhqcCV+RliBHqSTnPq/hXWojeL2A/JMYQncKaP8oe8hF+OBWTQcyUQR7s+f8nUTq5auFDPNZheunQ08ODI3hwpFsKR2pzvYqFHCVcHHd0PuvA+nZjYgVlAOlO9QYwdDLxaog7sMmcQhvAX2IqXSmnFR2nzQjfrv22KTVMqnSQfOQAgHgpT8LszImC3iPhBEO7ffUlO+bSmD4tZ3PfBHS8bTcGFPFfiEOIP/NO/7UuVd8OxRf6OWMefoO75XYeZwz8twAFiljs4GyY+0U5jBJzSeRGvW80h0eGCG0kTmTUHdScLkCuGgGCbICiHOY21eN9cKrFXwo4HzfFlu3kZ58eR8Fnr0yANN2IidSvZFJQKn/vLFrtQPepZpFrx3oojPiYpKYiDniuxQvz6r/ltX6fMnWwwZYSUiNPz14PWX1frVYv5tCc6kRiCDLbhe9CitxfhCRJS9W0KsXylPjICZqXILVAEi8Aj0vhM4PYkN4KrIRQF8+PrbOtkSgEolFacDoG830QNpkndwgEIEaw+6GK/uSGV19qxfFDLvuowI1IocUw4gfSmgKzutOxZFx+1I6VYVd1J5/ux5M/6z/+un4crve6TtpCXiIFz2jAftKQVyrQOaonhtxC1BW2Afm3w+LDzOjyWTuRQrkih0O4QXGWOzsmQ3y3Mql7HCeLUwhy2aSKFKKWCzwedeF00U7Ll1q0RB1MAAYAVgvZAP44jIEdEFhAF7fx71Qpo7Dib4FxcE34F1ntvchkzcnQkL2gNue6E3ue8b85/42/7E+p/ThdAkPCAbWGY3IOQVfgR582lNYVJBdLj5mchHhxCZCP2VGLxWCxEOS2TjjhMUdrsXNAvgwMqIQhm/V+SYPNkeMzbQd2fgF7scVH4JesFD/lbAWv2+QGvjsSCVqRvWhKjPdxWMApBW9O2/fS1a2f3DlJGatxb3pMNlz/jv/G7fodj6b8+kgPMKNrBYYNzAdD7YzKfEAkh4VZzIhLheEvIZ7yxRuDmSGNk4TgyCpmJSj/NpuSYSJbWHwHJNRLfCiWdj5MIkMkc8Xb1gsDv28bAR0Ky9Xc+AbCpyiAmYm+Vz4X/Qs7kluBslm1eDPgs+psyVjYKzPCBywsoaPz3t7iaxvyfK6GoC/sn05o6ebBAjnjWg/J+wCuO5/yBeaXuLmfmtXwI8OGAScKE4WVgrJ7PXb9HMdJuhVhOBnSyh0yzT7wAaE5mxkAWHyiFBumgRqkfD9iL/od6V7VyNmAJUC0TiO4gH7BDcaaZFSMllA8CKP+I5LHiGiXlt0rwSuZTTNxMIc+VINbW1I5urT7sAFJhhCCIlEsdf/3jfM60Sx+CVdAAEouUdU8EbMoVTXidEATP6E7RGAdUHjunGHSVJVhUHPWPW3nLu2/bPTmDLH89zfMnzbYGHGcZtpz3pN7GdAR8wjzjQ9no///Lf/W8rnr4AmBMkKQSsP7f/wqpCkdTO5w8tRseByCFCQah0exUwFGOvCkvSHgTQrlnttF/Nb4yhIsr8Vno8Y5RPMOhA9XQmCC16kmB1rwR/024Lw3mSBEqVMNswk8WVvyUwvmTxlpyzwLWoILtoSCSjhDQ4LYz6ADKd8EfMfUZ/xXd1bmED1O3pwXmbx0EopP1LOy5EoDb9zq1qTeLLEn44kgIg8j5b3v+aUaDQGynCMr04k5px/zduAfalYzRoJjbZBk/cv+hfx+3Cdxcmb4kJpBlMvZHtIH1LgdfZ5GwIn7Xgv8O43oQhWyjtCVuuiJysOVv+y8EA24R8Zj/Acri6JRT9tPdXzr3epv03xg6n8AWL8yk9Tu2PSfFeWgXHCPezb+yS0G+KOQAmOAwK/r3cL/aHdoDi5Pm0vuuirls26ZJ77gSR+YwbKSosJ6H58eeXgoLk3ICak/1ElgQKbZih3pIAlLf9jOgMsExf3/JuycaBgUZgc4Lu4UvLAHPlShDbXyT1hGOxQvNuK2rJTr8YKB73n3Gw1yASwr6rDhwJCqJCHDa/bfWd+FnH+ILK97XE1zH6fRSC7HIWWhBCXYue2drk2yBNU+7VvbuYpsDMRq/h56vLj4z5V56x6XYUC2S7Qp8ZbS/Pdknce2g94bX1wJvzxjynw84qGePB8k2MH3n2KrlYzL/4qLVX51L61XvN+a0HJ6Tl/bCtHdSdQrC51WVXnw2iP33ITxTrKHFSnlaxsMD70aBe2RI23oDd4ux2LOwQCoIDq4EnT+pJFi39yp5vNlQG2LyTCgPQZEvW/2ot6UbzLEMFr54J1WPmWWDwAhNKryXva1jnjQq5PzJm1tSO9lw9nwyVQuLOBk86m3xbvsrCFZmvVdp1FdiIa/Ve89wotnI+4QzqHiZRz5lHiKeLGHD5r6VI+Qm6uTKvpAUh6/t3UNxLORlmnafN9zxuKyQpWLD9vEQ16RyE0w7V/3PRos0f9tK2HZMDU0FhsJ1HdrSjxMBqSOZvItfi6lNHYxJl5RjqJ14BJT/RuJkK+EpbAF4lZgFeMhBItpd8u2+RxANy5Ci1Ad8qteEVBZXR0DspoJtYME3TuciS/NcNnMwkLiDK8ERtvt/baYJBewulYq2hdn8FqQ6792Wz/Naju3xPvmsSz+/6qtERDTkMQ8YNPoLEISD5Xq215qfy5tQAXoJwNeUMd+4Ql5EzD+iCLwF5em6VQ3Hcn8CJCFhaPEmNgEnEb2fGoErsRwieOxIyTdZWpC6vOlgVCREN4dU6UwFqIZvYcGodV9CL02wqYf7+Pvda7u99z05PjLEj3zjZsz6DrksXORMCWI90IDjQYZRetlrgcY7FReXfLuifu2Ski9VEoAeRKd9E/aDCQ1BxeomE3BcnuMZ5kV8VD72PtRhTgMPK/IZXRQXSblk1AtBMxK0/bO+0cKqvo7Hcj5gERthIBVBtXjPZIOZ4q/z3cW9PGwmjA5jIRjMeuuAgslNDMHwCWKWxeyxHCtFOUoc2UEmiLn6d7J6NVTefl6jGYx+z5SLmuaCbsGG0CHFD9LpEFRZpW49LGurhOrbFy9s8ug4ExvOQA1OTCTrnwk4n0ew2taVgBUYKVTkwwX2rAgoYARCSGoelYBR25JnfKxPZK4YAtiIJsbiw0KCXoAsu7vaPWpjiUqSKfPN3fABO2h2m3BKoB2F7F0tTYN0/qurxS2m2PyL0nmTnuV7/vb56Wtc9N9FJVEDawNE0J0aJDP3Oo3z0Oycr6MHQwTtrEGAgyveD8OTbEO+3lzg5RKFF8NaQ3HBcpnngXszo5jYlTctQhGYUuwiyD31vdhkuK0yhqO+o0cT5Qb1Au5futBjbFcDRVBmfRujIB+SqvqWffeYmkzNYluHdAgqcEy+AWkF2qPh9+cP6PVW2hBe4yM6MLswxFUG09lc/9X3kpSCIaiZvzkrPSBhhO84kZS2CpzXMK2OgAEejLsZxeUcapDbINpy7ZKR5uJ3343a2ZnKGGa9t2x1i7z0fwyPR3NatZ6LSVgi8D1hbGU7cJrEFYE2Q3lUoggo8el9cME7jKjNYt+aYwgOglxQ3Gac/m3NEhYpYt+lcaJV4t70Fd5kkS4rikJcJdV43jBIaIJzO6NYPJgT/C45DCJwWHDD/Fo1Dq/LIbLjjW9cFf5gRbWxSS5OE3oRAenjWd+N+nJHTIS94URacnmBIgQNTd/DR6xpwncnAnfjP/6fNbrfN/e65EbUK9+N2JwJz/2ew1oPwePCzPuUGy6zWJvG+xr5yVEEDsWda1UZU2K3tkXesbwrYTKyEVvDlw09D0PEQOT9m7af8qoNxtLAnNkeKEpgwXQgeBZy/TuJ7/7ruQo9gIoMNRw7V9Ixq5Ks4Pg0Sl/h/cqc+k8ht1tCTXwBU3zOhIDojowhsUUckHcyy8Rfw27tTIGlZELJu6ozZuuNW97slS9af6QcVII0+oYoMk3x/cR2G4nLwPe7Sfx5oENjimXqqncISNu04NkRDzLZx4/+k3ma0OGwfAPGqpv3jBGx4vPfR7eJcxJZijGu1J4ccFasz2AW5Uq5SmbDeDcq8ZSDPiIJUR2ozlgcUFnqXWVSXvPVSLnSEUOO/vroewMvw56bcYsh7n68GwWpvHWZ7UjhZduWve+vnNbxQIdQ8wHNf/Z+GB5AlsP/QoQWION6TNXa1OPiugsF4UTL8n7jH5uci4RQ5anzYnXG0kbMRAu5b8NnNAqjK2lfEDXDRE2SxQbN9zylPZTwTHxqy4ylYX8SVDPFPBx2XzLwZ49vT2AkAT7GqrAsH2URI2jRxBT7ntV81gR117xnqxdZUEX3OHJz6Lp8EuAFjCSD2EgBktzIMhnfNaAYECVMTkqt1siLG9UZKzvI+pDnStyTqyQtYFueffdlHzcDjy96xkYC9/hcE4UHdmZ0EBBkz0LQdRZAecj3pFAWFZknEGkHGLBkJU4M742B+yKLrd93T0fBLyMtVazqFEQEbWgBMiIYETzINBv/y2mJJrQodQLC7EF1xuoB2aE8D/iKZiJT31wpWHggJM6LsTiA5hMk57W+QWLyPRbBTJ3TgedFlMuTnvFU4SMpIMeMCkqACLQLvqFQfeNz3oTeeCVLYxTDeVkuYMmScfdbul2mDxKmMeLH1RmlIyQ/iVHPOKFWkH1MC2jRzv7y8XmMU2bfwyj9ofcymww3lmKxtqDvGYK2nPMOpcoFtUtfbFG/rD3pWyi2Qd8VDfanroaz1VUIFJAUAGQgkY2Bsu9+Sydi1MKiDMWRPqAwBMo/r85YO24iF7yL42hUYpbVTBbnYjr1t+8eym5B3NIxL8m1e71y3D8Us28/fJfwzZJnh3MP6HA5FBgvDJEDNv3flkPLoqKtfdSowIjKvypgGKhnFbC5u7QnBgWsRItmCky0/KsqjRMmfPEuDpgjd6pqGNJbhCixsuTl8OgytT82J2xl0OobrSgqJJ56rElukO/heIcC2+gdJmw1gRkGBLgWCGeoJEH2m7vzI+aW42tQ/ll1R6LdnnuHOZb4gNlnn8dpOvla5j9ihlw+rAH4ODxyNQkMWCZD+y/PaDJjOu/JoIMVScoRrWVYIg5zJGzMeTpgBBFtg+9IXkqTyGVAevNIaeQ7KaARYPwGQJvK+ZPj91bDHnoyZFIOuyBYmCLKPa3SKvssYu9DCotkyAs8jyzSbDmpbho171tFdZ1ypvMeLhQAMrkTBDnm/bJG0Azlcd8rISIpANGkAEKAxEHo9uGafzChb5WveVajAX3JolXmPBMCNRjciaRQLNxuyf1XCgL70eOQgwBJkDqqV61VlspLM9viXRw0r7ze61T6UdSPgdpp3xkBnwm+5n4kih6ZJZEpNuv1jTzBBZy48C2lLyX4isTC41veey4FYq/vAZeC5Jei0lIVEwOTEgdVC3wgw4vx5H4ZdW/D0D60oiChzuQbGMuv1hlN54yNKBfeIdD0BWiRm+NjAbbqGfeMveZohLcNawxnkohgNvpamlfL4M5VTzJz6ErslgZR2CzKU7JV22He9+A5m9AhYLf38Q6QxjJZxy4AJIWCDr4PFSIBECW7E5zGK9eLwNr8LozueX0UOdWJMeXC9eqM62hIIj2gYGcAcbRxRGCFFd8HAcGo/70vfNj3XXYISIgQRyS+Wx8/cyZS3ff48myTmSktaYHlixcwEgRGmMrr4k/vENztvmRdIAPomUQeGaSyzD90CUuT3HyBL3s/YIbaOgKf0Pcy53LE04qL1flvB+dUUn7wHmEyrxxOju/bU/PatzVYA+u5zdMsUqspFDPvnuZTERjNAq4hWt4WGaJLM4j0aUrDGIAkK0Biq1v0XZFFwqCmb97X0CRkXK9rrRLGtcSGc55pIKQMOi9i9ly9ALbAh+Kv3jBHRpiuxzgHqjGWD5tOyBe+Ad4I4xoBxSqdA8tExzXfT0NF08EMgX+aIjGmyPsu509jZEumd0957tU/qoQRo1ZoTihtJ00n2k2+zTokyK3ouyFwsRxGC4NYTiPXVYwSLXkDhaEMkjRiQb7lH28G6FgGgNr2mbDtmLNKJFmAfYXsVXZW41xu5lEyOmJv70NwXS8sKcFUdHNMYh3P+F793itpSQGxAhAqQxwlSmCEH+64KWGL4yEH0hyqWJOTxwHmFB+wgbTYRYAh5ya/Lnho8utAQml86e74xt+z9eYgj3eEPVliaV+QTETqqL6YP1NMFJsYe3WfMtbrhSKiYBwKRla9H8kiuXkZcUgwgW7GPAmDAQEi2Ij3JXsJGiHGvt3sRGzG4gzGNEbkwECVSrLsiwu+21+/Wst8zH7D/7bSEFqkADEVqklcmJ4YwOh9ncWnITFV7IQ5HLb7eHZ7LIWZl86quz5o6fWWHGgXRtjrF1OkOLX+s5M/9laYAfPA6Vn2VPQEoD0WPnOCmAMCpZvU6Lv1U9osG9d7K3N1yLQqglAsPkgMQQTI0uK7f/FjnWAOuCnJZjPTjvvMqQwm5xSE6eLzHjmf88C0+HLYz+9+C5RthTHfNv37pxKHic9XNxcMFeOcwkbWwojWb/onmF4pN+/bETYb5j+XtGSaEQu+gSTjsQhxAKLBt71WmlAElNGxgNvkoBySF3mI02CMBDAmkPxv3fQYGMnDQd+V0Z2Y8CP5BgDAIh1icbqLUb6BIjP/74kHwC5wywWe2/6926HYDe5//fvsltYKHFoK3HfjdIqX56cBJ0gFf4vjwx5d8x9NgJ28XlIMykh5hXUBYOOCZ0wTJMJt8V3TjOVFEpA+luO0gFEUk8AKOFJ1pgzI9Nbkewx8soWFCn0uxcRkptF0TxBJNFNo/s9XRWQndOg5OZ9alBzSK0As5AFN+wWedEljO4z04mEMyWQuHmJ6fz38fJwvzxVfS18LTv0ujEFhXjAgEin876D+NNELcEGfGdc2mWmbUIlj9eK/LhM41jnrGwOkAtfib33h9kolaAEzCGokByanbHYHoYiS0Py/B6kZoZMgwK7/GLj7uM5YIQJLNyzgMpe3OeUHqEN2fgNkJjTpg8QQDK6GV5YBRCrHl58ZSL8KsRAjPiB7VnyPzQ8Rl0XMKNKBrTVpo9/Q9tf7xuwOHblR33iRi7If/J8X8bvJJJzd9BZe8DM0jbe0YNqA51n7UraOB153USeM8NFuzWveSeWt0Q8eFTjsFRAeRE4W/+PLk/ktiMjmgaJ9Juims8Gumg+ScKqs7rKvosUNZShiS0w4692oHX7KgzQ7CSzkDv0v8pra/zFCS1swpEkM4hIMNO56itWFE3B8+YopTQ7avonAx/bn3Hp1Xnmvwh5Y5EHrJgF4LJUgAmEgAVcG8ioDji+TiXT7SM2VlFqT2PvpbXPdJv+RLjKKEYRzLJkTkrV4/ztVRDCWsHnVl+9+zhw708QmASFIInUMQiAlBGeCv0UA4TXM+d+eV3goMgYBIqJQfyg4ZBVwSCeoQ4oLwKSoFe2m6bADY+cjlibUKwEXfeNvL8KhMy6XBEFSCiJfglCkoOJ77nlHnHACDp7f8xDkwW+sjI02kmlJeaPkG48ULYC2TvivDxyNRrIAltpVMBEgK6Y5dXgLWumXjCHn/KwtbDUKWlKN/WKlTE4s5AtQIQIwiDdASu/ikgXI2T0Xtrd2P8M6XYK+aMX7YcuJJukSYlC9hEU3rUfCmd+6nYAcSEGTD3Fy7fIXmYbm/LOqrMBMUBtTaxTAMKARdIav61301rMbybh/sdh/H9OzghkrYTkoLYkEiFuWx4gCOQOO434poByh4pj/aYrFsiIiVK4zrU/GaBbg03CK73pQKH7HdxZbCvpZ2CjVkWD2vvDTN2aHSCRTutNUEDlYUIyCkiCqxTX+6P2EKeJO4ZCfeea8wph3O7xVD/g2AhYgzC50SUJxu6+QD2PmUL+r5H8Fl0ghIQeYTQtOsDSbmNPmee+4Rs0qwJtWvRftI7RQ85ykQivD+2wiARPJUhSOzSj/4mIiRylx6MgFfguO6UEihOkwxhKSe04GXEfiYgVe4Q4gsADyWHBK88WcEEfwImLo5ICp2r2G8DH248kDnt1/OAZe4YmDAsgFO9UTr7OQc6AemylqGAv4thjf2kGPsS6/JdWTwcplwI6rUj/QkZzAx9xP9aBeLTrTvSuBxZXAOxgH3svsa5c3s0Xbln1j9US6DipGozYLADTFZ2EFeLnHyS3OuFLA3chnB5LUd4wpcRLJEEBDWq+/mJWdLsIo7MSse3nQZRFLc2GopU52BUx4s+QdYwSWwBLAztWAr6FppIrHVKtJGAcCtzDzObn8i/NlOheiRLZc4HGPz61SmgMhN+6NuthHiFqd0yU1JwYgDGRyeo9Z4UAMmDyaWAiFljS94nQ4tYm5JyG3wRIqWAB55lYrmaBs+OCv5ZO6l5pY8/UsecfqSZIGeEawhIEsDiMMSqg3suL/7wH2vBw05Kf9hV82JlQWM0pkjEFiaQxYhF3SEiTyLq4BsxEtURK1akn/5bqBpRlyMradClg51KkQLhEHsxMHAZhP7+9K5xQnk+ehRxxSsoRDZTtX/D29n3foxzD1BkIyNzG1Uz5kdXqCWocYgTf/MuCzzhZUlEjCObGLgEA68XUEhZydCwFboY2MZyYwz5X8l64RNhlohXZJY5LLXCwAwk3CGBbwHHbTDpIYBrH2sbCfe0WFSwQ41j7lj/ooz8LYIFWPXArfYGE4b8awYlFzD6WaQ7i6d/5RulTIZuMrf6XkHz9bSbdp4k0BeTDTH2Wz/df9M8DKi364XXNBTwsP0mg0J2dT+qEKPu/jgtcQ1gLIB36FHfe4G3tLvRGAejnn321L7Q4zcHrjngef/87/fHKo1csl05j27u33jckMmCJZcSdDIh5aDdmbHhv2bYI6ASAME6KRjaDiMysB7Xomx8RED/XyHwNAJ7r0ToAIxzQJv0EkcdpCdPztAdYEVAu5XQoA3YgSpVYNojEkQ9yz+/zV66f2dLmggvYtnDOPIXJBD4f9LJ/RHkQJMAIMzQagns57aXUrF4kW4ZyKJycorVanLtdb5ICTfgHEy/uUIEatfoEbIAKzPG0UVR0BqPFTQDMsXoxJj1jgTC9zXkt6/sxygIyfnWZ+ndH2Ughqt5Esn37Ie+h5H9If3iLf3KjTAah/NitIE75rEHNT5fa+mF7FU2yfDsaJSk12K6yIPEwVUuN9YdddLB52gUdpnIK5dCbv2Z4+EILDOt/LznX1XZ8U68ZN7s//+mBdiM5+WYNDXXeuBn2zrTwIi3DMBID0hbhguuWvrIQ06tlY0Se4vHTn3gfdXWNDDKGBjdQ6XGe6/q8hIn51IK0JbupzbpdCfnbkIgGrBbtATJRdz2Q7zpyrj8zBdtv/fB5mc1hjkShzh5eDfma2I7QpVGyGmZCfa0Wgo+kCVzgQCQhq72Fnm471CFDZJILh9bsROE0uHIY116Byh9W9Cdpig+8Nhnp4lQUEQgywEJI13Q26NGC8FfEc1CBi+2II7dSuXESCjRRTTmjhLCY38jPsG/CwYh5jhvaJsOdDFtw9sOZwUsRD311a79Q70OxOcIEAJjWxS/nzYT9TG4DObYtdDkFdedzkBk3Q/Yd4o8e5LqPFoI859urF4ZL2W+IflmJgJagdPg4k7SBBxRsATxKCoD/s03ZpjzE/pa0ieBh2BPVivWmVyEsohI4yzIrnZ8OODDQircNClHO8FIK7fJdv15/GnPJH3MJXb+XYpWSp9q5yzjx0JI3jgineDLzvU3uZ3YPVOn8FpcIX8aRhlMpzMuecEhcKx70+Np+QUoFPzsm/SgcaYKaXsDvOvBIi5m6tBQ2zJ+pQjtAl61lS0pyKx2bC+N8WgRYxhTnI0T0deF/6QccKAmmxOtCIdm5/iwkVcsTamFtRA3Lj2zDhv7bFaLLAFhRCNKA0P1z1Wd63GWICYMD3cmQ5QoZDHDZT8XGYOx+by3xSIpWHS4HPY/O4HC1yULAEa37g16tOF4CMPSPU4Ps2EJojWVQkjTvcaNrG32thw/sNkpg1MIaJtcX7QPjFnrJAMEEIF68zO7ka+o1QGlytqWUbo+ROLQYqf1hAQGRV9SL8wB/I/CCZSMwmwHkJZhMOeu6m/ZCTGsO+BymxmWhcwUBh+cDdx6/qDDJBEIOlhWeBjn4apDwgTqXVMOjD109f7D1okvRMuBRyn5xARnMktNTAqgBIWfj5h7F3rAR6uvKkmxzU5CwSYuBxKPraCWWrY8mlRHgVSj1xOG9R4JDf/TMYvSNsn3N8Kfjy7jMNpqzSzgk7t7wv+S7tmyWt9/Hlq9gYznrmlGfW+CNwqS6AHU7WzulQR+92B23nYmINPffPqjvYZXjQpnF9kHDzTPmpDGdN7Pwg77OSfTpkQpcQLEAG/wv/nhzvcmasXBBIx3r+hHKXfpxowEVTLqTQVPAGTYc/rwbfe2inGesmZuQnPxveBAufvdxNwIQaITTi57a9DegwzhJvwuldnCd+U0oiRjGN0vM98LqLQiKQBVgEr4sPhd8o5N5G8lLAckoAy/CDhZB8KgCtWrhkLo2++n06C7YFEZOkGRtsiBo+r4XfD/bjgU5pjZGk5Mzw/aML4dSTHQkqtoqwlRGAZ0/4Elf6dW+ozkztuBAuxENXJlfClV/BYy2sHaFJPegYmEvhbnFPdlF1fB3DW9x5fHQphPeJiWTyLy6XnVByvPs5QNs4FeTM6pk4MoYUtGncOnrx7eE207JVNO16E5ZVX+u0S6kVP/njfHtf2oZyPxuesH9fndrUEkeGuAlw3LLx5MupUgrIi3uSJCWVRmMkgIjyV9dSGOZ+3N/ZXUdeoYZ8587Ln+fTQH5bbyiZ1QK6Dtu1kgL9ysSTw4ONsNCyjFz70In3odZ/sUhwehcXEcuUKdJd1MnoIzNhXfZhw+VKS7XmsTTuKfbn2dG+RuIl5KjYu+/ur/JOv9Awmb8glcYCzp8sJKyxKhGAedEwz7A8xAEk+xdSuovPxMc7Z/Zt3bhxcOPWvafvfPy5mNL9AS/EqBZK2QmZVN74ci2dYWrs2bXjOzcnyncfvvjky59VRRt4pMNIp5SOIARh8bVSSrffGn9/8+TuLYnwbQfO3X/3K4UG+yZlBlwfFAlfOHdEwwCDIImPLQbe90loVE0dDf5Jx9GZ8aeXDm3p7+/u7u4f2Lrvyqux6RRa4lMRstppFmp//vbErtRyu9KqumCAlAnAk7+gEy+NHi9VxtLdgqneyj1dIHWMrVWu8rktrNO05kQ1tYHB7q1ShQr/EoFKOn/Se4TJIgRkQwxtIXuAK3ciTPFUX9lbwlda9s+naOfCwvT09MJiapT3Y5JnYIpIpsDJfZTSQgrtl0ULVo8L6Gu4Cobi7bWKHV43Js7gdN0TODccrX+qYoUvHkzh7DlogKavFSr7jhb3IOTB7+ltUxavhi3Xvzq9JNiZ1Upt0n2QTo70oTELmhziigAEIeNsWiylwqh/Wanxn/sDnS0dMh9BmJhhgGFoqULj//cPQ8RYXKmEEQYAdXyryFg9aqbkXvefkQxzNYqqm/W7/o0vv83flOh0Usc3SpUZ83VlYdyA3CVTx5/K+eoMndAmMIRNjiHQiNMQoAIIYKh7W5nxX/j9neoJczKpFYeBti5XZr7+Q6rESIjwLTATONjGPeOVGDM9pBrKBwHnqzvXOqJBdB/ZD2u//Nq3ToEaKY4KNyszrhrZZdItQgh+roRBiZjEYQLfKUI1QpMI9W8qMf4bv+n6VDUspQwYMwbZtVCB8cf8/fwvJNGleuRTNsAgQN+PCozbwtZk7EbAfcn0Ot4iZu158Ei1fvNyX5+NwU8EFuc13KvEmCygG54bfQHH6SjxxJxc6ArDgbLKL8DQ3foK/PM//pvPmvmwVQzLVvlsO2Yq8PdXDCf5eCYskEPPWMXFjw6Qx2Lv+Z/PIxtEGmJFccnnLyJ89yXdIB0lcThavFZ5MbuZHTKRz0SQKH4RNCMBDMxA0NLZ1cDLgiEKDEaEwNxLUv3LSvzV8EjruRmLy22Tlbbh97f+deeSJZgEixiL/Oj5UmnC95LNmLX+1wcBGhEyJpmhq/UY7C/6v3kV9nE+QkwBXpk/08lV4dRq3DmbmlPA/aKZVq/X6g58npmdm3qxI1fmplB8kwmkiadqqL+9WlFbtP/S35dYyBKc5jmMiDd9q6wm/Zv/qvNxwjd8Q8Os7UVl/R7MuwTeSes+kC6DTqj89f93b8bvDk/c/LmlioqJnbGBB5aUwirj1wWd9yswjebU82Xl5+NLF19NLT1tK3MHyLHlcdMUz81VTiz8Y38Xbjbj3tUQvICwjeuZdb+vpI36v3xn3PPsSHYbAiBT471SBW147slJrSHXWVxLJOMYNZGEJYCSft6v/vb/r4AojRC0q1ktPlJJm39fBsv2iDHSaMq10OdKMB/i9oyvXm+LI8v1v1h71SwkWB6TFsIQB1j4DeK9fyolpg7+lq90PT7RJbUsI1uABBzWVDHrmtK/+88cpq6gkh9nxs4jhmDKX5yrlBgdskjphOm3/AvVJGJO45afhlGS/OrVHyE8Tz6jHOn65h9rFdOmneb0hbzhPjj0ujaNbHUf1q4U+3bt2TNcV3y5djUHcnxUHbwOILOBT6WKMLTcDzwYzCYA47iygRo1d64y3nH+8u/E+wpC1RkBCMxEJgJYRipj6375CW6e6ca1uwEv82scLMUDlswrym+5tuofV6QAZDUC7n5TGZ3R4rV6A1XGScMYak6x9/EOTYu8u9a+5ztmVqdnV57muudmuqWKZK+ErqRDAByyW6mA3Qd3G5VWJopWQAkmBBuPDX2ugPi9I5dIHETTt5yxVYkIAGB6+4sKSKv5Q6QR5CCC//GOs8Dk+rzMKHalhzngK/7nH5eNKRFXiYoKp+YrYd/M9hjlgA1KYIS+IFHON/aaKWBcsB6WDljXzGh9z/eVQbuf3JVGyKmzEeepx4WTgMJktvF31vFncyKWgRCPsVhqRUWIqRjrbyxm3cfeb07UcQ07kWQthz6mTBKtXzgym3W86RUpKtq4DHIq5EOSwhRRiBbDL5S8+6O0RxI+BkRaQRBvHMu+WiPpYUWR+Z3geN9zH8F25jTis8avKxusZ+5drvXbcnt0pPRAb4h0QsvYWG2qo9/LX17OMuau5Y1EWJRv/MtuDB0ZGs00vm+O3bsEdvScSQKl+clSlvFrX87X161+YuaHLPiFORqs3vshX5vKEUKbO72UbZuOmKdLbp12wnPPUq+HD80/lputfWZlenlmq0V7V55J/AzAKKZBGRkxIITFPc9Ws9ucTJ5wK0RoqC6j5I+y1rRFxFI8NplZTJ+oY3hLkm9oQ7DCVAPkN33KrsO41RobakAxqAQ6Nb+TlsYbTMhWvGVQQ4THBfA97vG9iXAVJrEasMSdj7Pb/Jq62GwGLqEsoUzoEiL7/D5Vf8Rd2gI7snKx3FUemTz+cvWh2eHSQ8JCJY1rSFkOPcNiia2w810mpq6+3l00qZUZq0Ys1YOSAw7TKQvYoJazE9lsG11uQzVRzTNCBRUHWJGi0z6gMfWHx0qZdBiPe3Kk0YRQkhN5vvCciU7D2BVixat4JTWSmecpvacN6Yw8lMKJpbDpRTYr8oUbvck8kd5zXS2p4hdeaXmoTCWIaQP8cemo9c69sfbJxcbyB+ZTQsCOYzUneKOS6yFL3c6XC6n7+Wp3kdCxdXg2QjaKLlEPyRAJUeKOMz/T/xh4uTOWqYeYHQ6xIKqEJBS5NCzyWNORT6nn1fSTfl7NUZO6PGj3cXK8nfnIMAyikCs980pN2uHTm35rLQt1YJIQqcPqt71IfzbTN/tiQ3wDSQFzQpGbfCz53GQepLZ37Uu+feZNlH+6ur1zZrY3VM4DCZZAo+tBuuSH7qW5F7k0eW84b0QcqaP5Pm/ddiLAI9doesSQyN62//18irH08WhHjKKFd49+VKGoY+kaoEjZEwIVIDSMvJxJMVa+X+uLmZ30sOAI5dgBd5oujBgyMhpzkiIEqZHTDi643d9lpoCFowocAay48eHvNKP0/XKPlXmpuUTyMoqJOQmm+Kp7f9jfTaLZCRsMeLt2ofVCeQ2w6crI27WbOaXNOgOOMB+AE4sQQpBgctehNzOlVOz8++5Qu2iTSCmJvNuIo3CrcEkwNeMQYn742ng6OzUWJ+5tLmK2oQhvOc1gdORgDAnICszi/jNf5tPJqN9PdzezKoug1HJIT975aWzxSC5hwgDhwjhwaao6lEJzRPFpV1Yun8hp1yMHZ1JGiqLj6Me5lKZMPdrTmGh3bS/IDVtXhqPUqPjQZcnCgdhMBnMPTK5c7YwtyvU/Xnsvb9vuvPbGDQRohnIZk2niviMvJxfD3Fycfny0K6e4XYuICIZrI03DupYwa9xydnxuNax/nf96fUs9Zhgo1PVImcEygKFXreaGz7+ZXgmLhT+397YY4ptLqdvb3Im/+mPAoVyg6MPKHJT5EzOOMzHidK/HzQ2efDWzEtoR/X1woB3nLUSbcsG9EOk3KF7XfcPvEXMRGs3JBn6u/vnv3I0n8ytvOs185DwWBwykEIhEYMhigrM4fOrhr8XlkkfdlcXfj45taqRUNeEh82sPVxTEpQ4JAAoAEC+hIErmse5911/NLK2UPIQv/f1yY09fzPqUJtIjgRnyI5i1YDokc7UnUzTtPPX076KH8LXVpcXxO0cHcyZEECuBkyxVr5we75bF10Xo1n4xnGkCK0UQai5fvPEj61h81p9DzISeyByG66UOQax159lXf5eS/sinUSefn0w2OhEalTgJlCplnCDIjXxZIQ1LTzqoZSQ5g9Sf+rm0vLzwYV8eBChdWiIiTCagHIQaABxr6N13+tqjl6Pfxqen//wYHX185fT+jXW8LkRIkhTQV10gQIzgDmov7XHblsPnHz4bHf0xMT09/mn0yf0Lx7Z1JrIFXMJA9ELYGJgnMEFMaAJEkbPzsVnz5oPnbzx6M/qjbP3kj9H3Dy+e3NNdhGzR0vwESR3lP649H5v++vZcf2RSJyB5qqZG+R4wN3Tz5ffpyafne405pRyvlnfBlS3Nd44cv/5k9Of0Iq4tpsdHH105urkVQc0BbQDjUBYyxFuvfxj79ePJCeddlz2g2zZsgFsLpDA8VlA4IHhvAABwTQGdASq4AlQCPkkkkEWioiGSeVywKASEpu/HtutZgemf5ngKtqrJJW4dF+2f4D9qP3/8vC5/RP7x+qX9h/az6K7F/Of1R/tP9e/YD8KsMjC/nUeNfj3+h/wP+D/YP59/1j+YfYn9Ff1T/gvz/+gD+Nfxr/X/4H+7fsN8bX7b+4z+4+gD+hf4j/t/5L/e////6fUp/jP9n/cv3////0I/o/+l/Yv+x/IB/O/9L//Pah/7H//9wj+7/9P/9e4F/Iv8P/+PZ0/2/7If8r5Hf2q/cb4F/55/mP/1/uv/X8AH/V/////9wD/nf//2AP+37Z/SX+of0L9rv7H8Q/in4//Wv7T+z39x9S/xv5L+y/k7602Pvr61Pvl/3d/f/2n/Me9H9g/3H9r8Tff9/Vf3f8ZvkC/Hv5j/pP7J6ZftX/I/yf+670HPv7N/z/9b7Avsl8u/2v+B/KTz/v8v+6+on6H/Uf+j92X2Af0H+X/9D0Y/qv/X/vf+Q///oRfPv7t+0fwAfyP+pf8r+6/6L9xvpP/b/+h/iv8r+53sU/N/7b/3P8b/t/kC/l39P/6H94/zfu//8n86/mF+yX/I/Pv6Jf1I/4v5/j6OyorKfhAyE/HVTX7/KeTG2fAWlj/HZUVlPwgZCfjsqKyn4QMhPxmM31SySBi6E9TbH8hAwVlPwgZCfjsqKyn4QMhPxiZRnL3E9Hyjf5fhPx2VFZT8IGQn47KisfMdAPWdNyZOnIXqb80QZa10hJyVYdaLxON7N5S8Z11yIa1a89FZasa6TthAw8HU/o8T6n4QMhPx2VFZT8IGQn46fn01hQwqHlUwHg+/k29PWCPxwDYkdQpUBVFULEwtdwBqqYdlRWU/CBkJ+MvAqGcYSnRI25wz4p0L0jDsAazaFa9qQgNGZ18RO2DdCGoFi3+OyorKfhAyE/HUJKEMHOmsW9fC4DVmmh6NDR0VApI2eReaEHnHNAmG4WCQe2Bs/+KfiiN7a5FQtQGoiD8r6G6nMM/iuZd+eh2VFZT8IGQgFWn9liTNTfAu7E/kesE/rIsqmZW5vtdeFpwIzu3ycG7ZDOkwca1BfYXBRy5++lqfKjntXqwULrWdLKYG7X3DIT8dlRVIiyJsBNaCMqiGNypghta9YhZDukNZKU/6mVLB9cKFD3aiEgg7ckfD68KYkokD1fLivq81NFyUa+QQyHZUVlPvEGm3NAjoFwgfKO4Fz30AT0+ggjWq62Y+d/Vy4mGJ2ZYwwMQH6xnRziHyvfk4wNPhPx2VFUay7EEJCCcVtrU9eIxa3thRHyncFMgJrLaTejAONKKn750zxZU/GzI0GdvaDnk7h5+e9jKEKcc9nKy2debXtWScnzuTdRRYF7CCXBXFbax4FXrbzewr7XIV1h2JJml+ktntMNTDseJ1rz5P41Ec1nhlRbdMlzwZipXZhuzDrgLvVzhDMl72PMU55MSwz607YcscnZaqH72gFFvU5oAPAfc+abDzrG7XDXNZz88PdRBR3O8KzQfmu2U/CBjusw5RThvMFHQLOh/HCwP5oTRgdggnHkuUDdgaRss/hRwwVlPwf/c0SYuuIPURXP3YITNMEFHP3YITNMD1XOtn2dqFRWU/CBl5VdxYxjEFHP3YITNMEFHP3YISw4s/KkDIT8dlRWUk/PV7/x4pggo5+7BCZpggo5+2cx3ZIksmIGQn47Kisdi+Sx8ZLjTNMEFHP3YITNMEFHP2xAJhx1fHZUVlPwgY5yRK5vcPdghM0wQUc/dghM0v4M6N37lifjsqKyn4QMdqof7FFp7OxRz92CEzTBBRz92CCdJNC1Q5au8KNMNTDsqKyn4cH7F0aOelWmCCjn7sEJmmCCjleR9khaKSj0JmmCClLKispQzIxuQpzlgy/NghM0wQUc/dggg9Om4hsqjobD9HP3YIT1amHZGDya2J3Sv1vE9BCZpggo5+66gEr7Q42lFZT8IGQn47I1kTNWomWPQyH5FL9SZGE80wQUc/dgRdafZoG1wV74EiAn4QMhPx2VFVjTyDLkAbogE/mNwivffxutVnK0HKjf8gGgGKN0HjuvroMv5AXpgn1s/Ek60ImerkaAn4QMhPx2VFVjWpi5agkl5EeChruiFcKAHg9AT8IGQn47KiPa1MOyorKfhAvh54zaUVlPwgZCfjKfNjyKK3DIT8dlQ9zzuyKsVEMCNcT1p5CBgrKfhAx2z+MbWqO1eHYITNMEFHP26nun8Eed9HnazxyYamHZUVlPvEWm/mTQaMb6ZXo+bBCZpggo5+ETeWi+nG87gTgtwyE/HZTHPlqGnP0npDtU0f6MriARM8YuJLpsYW2W0BVBViNnIbvip0qXnr40pPPF4O5IHOaihAEgcVdP5jXHGm5xbPv047MorRKzhVmiVCvYoKCiw0AhLFQFSCi/f4cZFBAt431W6Ire+29jCKyJjQCzUPwilM/NKaZ80v1bJqVatm2phRmH4guVPDzk0VuUl7UgcB8n/4jpWIYNB9Nguz4TclG5Ijpi7UhIcYXigwZi3ET2/vsbVXfyeE/SSL8rsn+9ky3tMt4gfHWoyyWGAJqypSERUijtQQqjRSj5XwYdGzgiPH+gqK4JBUVH7V9jjCBpKrLRMELuf0KziUfawSxew1ayVc7ySxXFVwVuB1EqikaUZona5BM42UafH7eEhvWWgHWe4wgcCUKd+KxUlJdNBh5Ker6e+MP8AqQtybgxiv9y9LHoYbXdiMC0z57z30iZp7gOzesLjAR/mlSTePNg0C5YteYAMb8XXfEN+6hlR8bButtSr53DkQW/QHIGlhMda4d6pKqg5O8JqlQgHWSZdqxxv00mqslSelrOuXgtuh/IoH/OcKOgrPnTaCQOEw8RQ8F7dgkHoGX5BD1jaoiuRxIUyqS4YG5IjMd6WE7ZoKfoqLWDPzPutZm4eTxALQ+GGC9s9XKW8poD4h90pSHCPxkXbtGfYLKtcE722FYYguUdOzpnIXu5cGBD4wpZyfM2loU1U2osHvnBCPxlK8M7Be+SnKvKgHfIUVNVb2/MJW2BvmVlUTXdffD88j2wEJDG5Ifo5n9lotSkZUKYjpmzIVDovghDcLzOeX2nBvIRmPZA7xVM3Ap0wgBYqYKQMwSJfutMhaCLCq/rdqtHLd/+DwaA/QNcGA1Q3LlBnbRQqKUjkouuqR9+tI3/bmNavAlu7YyYxB5JB0VQFIsUoKFNMAtY9P/Tf1oZDhInDY2QjVq7r3Fppy8/gNSCFqeKm/u0RxLcpoaOEtanwNbJ8xCmowg01lP3IF4xHuYpO32/w2xVVFbjmJoyP1O13CMXvp0UuAFvqXsgxma+CR0z5qg1wY+ex/NvedFh1dmukPbEz+Z8waXinwZa2LvBHL7iK8RBe6o+FMZwKsrXp+e5Vr+mJYi6ErK2po3GQHNBDar8A1m8lichy7cAyxCqTiZqbDCuB1CLPtisVFX80miubb9y92eZfTs0SXRncoAqEYWRHnpqR9j/TZVy2lWb/C/1bJDLKr+BgeivTDwiPQz4fzTEzGW1X2inUbczampXuzcTOB7QTiTUHG+N4GCAAA/vHbACHetOIt1aTKFdo52v2A2tt13rzUBuWb2AUVdxY/b0MP9/X4/XnCNMAcMU1dUvog2BgJKAoSAADEXCe6drojq4bPiDQxP42MwOtMfjPDNOzfkyufolp6HwOSnHaUUcSqabdFBlW9nvkJzOe/zucoCyYmN4KsiQ2VhvoVJ2ZRGg1/mZFPjN9IECTj60Yo3MJURt7QM4uDl4c5jKoeU7VDief4/5JYvYRgAAAX8reCJOxziWjCzVOa6pYZzZ5GW3tbcvauE55YTmVp8WJ5oEC4DxLdpyi1GpWvCX7nNxCYRxw/nSniT+T+2oTKYdwAgUZo1dcgnOaxBvp3CIXZ8KtjIu1DyowQbeFeCQtYMpmWzvAyVl7Ge/HBkKzyBEG6HVYZ8Zx7LR8R716vIdB9rIQ+PlBK7fpdRYs240IAAAABG98aLZejA2QCFPO4taR6l9AK5+C4sTQ0lX9DsNZZC+L95bMx8SZ5K1fLamF5Reuc3pPx70JZl8l9y53N6ZOj/zfjpbEwHJxWZeCFvbUb/3OjUXv5p5FipHAUDSOysvS6Ylf7k/gruo/++klyL5RddzG6VIP87049ZQVvWZMAAACcRFJbRw527jy3UeFyK/Sv1wSUgDu7mch/PmzrWrTSqU/GijVnQOVsprcF95u3rKnXXp6xU5Sl7RKWZ1I8bC3B+ETTjNAVutuFmAtYERkL5AyK2k4BLg0mQuLn34NGu4FjSlW7bwpy/1ne1QYxU6C5tuhoQ9U6mvikWOsBO16SQg88rzFtSvRkzdSKDZj4n0pxRxViLQdkU9ihk2YjD0rUFus4I0GMgV6PGVF3Jg36Hm/09v9tQIDqht0L8cuFLwCN/4ZVDfLtEy3KQLm6mu++UQKHFEjCBMmTTNR+UFsK95NaH0Rq7bhGqu1GzqA8L7ICA9buUST7Dn1c75Cw4OSAahMHckx6ORsYXZixfVLtRwUDrMUJYPLqGZDoLun67QwYPYSvUH/BHFGfd0DAuvCFs+6ZwPNBDQLPcWRTu9pKy9eB0J+IaUBnjSglTcazwd+M4XPXSAZKIy6zi4OruF02FB5VQGP2UvoDVQpWILQKyq1AAAU93TWn/9eLzm56FtXgw+0BJaOHOSCg7loA7gU6AfGXZ17ZY9fJqjAf6WBuyTgltNJ4sKit+s+9XdipjS9U0fJNx1YY95TlArEzw2bNCh5NvLyBSzZ04iuV0O29kkGuQZa/W981e7NUWr/nH41J5DdFcPn6ZwL3Srap49wWcIDZUoNlrbvV+A5iwwfBgTiHCS1NUK+KnY1kOFDpSALKgH3W3kMQ+GH9Zp5G62bzIcAZ2bSiEFFv8PFlAWQAkrwg21CH1KwRgwsEr4nPkZzFsQ5oimX/QTEPgpQr15eMFufZZN4wHwu+5Jy4HJXRWIULJBTQBj3HJSAMNsVmoIadKKVkI81nl/b7EpZjGwt+wi/SgieXHQYtLJx78rwy1Id0hXXBo+gtuA525/0ElzGe0yuaLr5/8j2zhjnzYnQGjDDme1d1jZsCPkQl0+ZZHmrwFRwMmNMUQuuxzQ+19ZUqq8JuHk4yJd5wj891FVBVcyd+84bf3Y38P0kxo3sU3eSCADizv4PyP0ZN/HOFNb3Od88X1C5Jerkz/2VBKRS5a/Vwr2xzQ5T50Kr0puo6Rc2c/0WK0k3AdDhoSLEcHWWkVtiMI7wuv9WvlWy5AbsMwO4AAARLuk232TLgUy+gyLIJLMLOLKI6b1vWQeDD+lKN+nMtxTtUOBQB4oOCYm4EiZE0qz8PL4Z4a3U3T0ZKOv80r1SzM6BVgCCa5bh1utAUIEiBxAY+itWja4nYRf5tuUvNpYFVUbhQ188qTdyYkpK0zftup8hcxCyy0j6DuJ7Ct70YCU74cy80eHIJcBvXbhUYncZrb7UP1csVDKIlE2KZxhTSaGpYY53VOrrh9GxuL7u6Iu8e69broR523RXJhMdDVY8encmZxwIMoiMldFuiDR5irTi131Zzx6n8qozl4nHfiN62bVhGrty2oX9xYp+u3yAxvzDJaH1gZqcrqz8aJ4RwMhDtUf3fuNu3t75EJCpnwOwhj1iQOdALJckdQDKParLSsbyM476qPsQ87RPUdGlXhMYEAiiAYuJ3phguStmq2dFelD84Zou+CsKkz8hYlL8JBzUcmkgRvGODnd2DcVzJGiciHhv1CGDu66hwRvaKEnkpqC2s44WQrPo6Z45Ogf9ok8lRjEyGjp6ESVdlATMc/xhLuxjilG5F9cSg2VZOfAd/6RzTXe7d8rr45sH2pD8603EM8mj7TqOzIwo9BSr8J0thAxKSykNAAtLpjF7oDpBt2c+cUuyL8wFn8U8E4GjvLkji61XyWKpvApbYJLQqexFuxdYmbUXUU/YlCpIJK8uK753frPI9uj+3aGt8j+Py/Is3LRrHpt1UaVqlgqE9wDDJPtayeXeld5onRGW5oYPnmR8wqufYRVvUwOme9o7LAWNo8bKazX0UJcPGPGcIiwzfrVcC4c0T8uhtAAlJGKoQ17lb7ie89U/CNTdXxL6q5JhHpxNwSrx80IZE1K8dey1+mEQe1DUZ1mbh66+TOtK0Pj3NUCbjrqwa9+EBi63ATdQfMGO7Zjc+Pe5DbNptIK7/LsZ3bkh8c0FgyGwHLC2t6TArvezE8kG0wqRyZOr0L+p0aiHRGM+LZD4ozal7tuEIDeFIcyLwIbeKyyGkDxxx4OVfOIZpxcd1U9Srt0jGXS6MSodrs4kxNLaAjLQv/uBf/ekmO86gqLYm7Csr4/CSZ9C7vEaUIO4+585quhrp7fGAR/wep4xqO9T4jPKVokZRQTUosO5SG57/tVNvVvNLURozlESOwwfOr4IsWNtFakcPmSHGqdP5lR8aWassrx4EpisujAn2uGrCfayUS7lT7kG8hVGwQMI9NFeUD+09tRSXIZbHb8gATRQEaEXy15xm+xmEPSUmvPU1q3YSMzbwHKGeOeu4FHo6PUq7IvLzMniQzreKmJJo0xkp7P84F020vD5b3ygP4EDcgChTh1hSogKsNPr8JZgM5eh21LcQEHGiyL7hk41SQnma3gIKjNkm0K4MwQgWX18tfmG/m8hdY2Ncd2jgWwAPK3yCj4WEamWdhiWz5JpY8PNPxRhdMOviML/8zli6p0skFpXtJ9V28cHTgY6gxhQWtMmtDwP7+rE1ESnLi1DtzT4KSbJG/AQXtrYkT2oFKM0G3icoTagegyqk7Fc4brpSqVm9LpLkZoFsVlY9Bn4HT0cTCO5FKVX/x2/bBjbEHotCub8l7E1MtHZzsTyMFhRXW1F6YX2Won0TRhzG7bB42Gf9AlXQFMXPTt3REQOYN6qAy+qVurJc+bBLfXrWxr+KPvJUrQfozj+21HPkfAgXG15+gFZV+g1RKU2RVMhAa/9R2N5JniCCK01AbA0KtPvVO2q9mu7u73RAc5M8f+oTXDrIDU4D/s7rBRcvmWaT6qtuXlvEfiBMsE47+bWa6GDU5alqXi/XjvwHyhXLEJWNb/z3WjgAAna4GCS2+KFnqOEiZrpkvmJDXYSiyRw/tKw4i7x82IawLv0ZXA7GNp+TRkWols3nZyF6SIusjaNyD09BnzJt6v6P29nyJcaGVtKM2B+7L8gRIIL5SvZ0isuFmuniLOWwk0nIDyJ25SUDsPSd9MKxVLifbw/ES7E+yL7hy5oko4x3NGmJBBY7Pxr77N2dVz01zAv4w2SN+SMyGNc/nh7Y63cN8aqKNQT+Z/du+R306C8yUiUv7Wx9r7bXkgIw+RgbikVlrQgWjIJsu5dDCZrw/gzxSAHiXn65wmkV2l6CwiympOOflw5mg1WIcT2qOZEcEQpxm2G9OCDSGtSEYKn2n+SGkLu0q1ofHU5TJoWa/gH60X3oHrW3A74wG8b0OYm0Da+R/j8UPVa7B0eAi2qUwUnMjI/wo3e0hftiWa6BpmUmkx/P+rEqw8Z8LI2gdTQObnzQ5tEaQ+VoVA3MZm8HvCPqwEyoKOwxDRQNmrFI+rCT7bA6iFQWgUjYnXJZuYlPkPVtkYLQAF4Ppwl+B5wRRhPYwY4g3e+WuE/gvtHmULLA+XSwASWZAwqIitSavQJEwFEN6gJQlv4uWim7x0s+GUeBnAgpbrJWD1SfUWXGjwvePEW4AOuliRRFpFFFTc1JcHsYeN+shvM3e7nJWOR4QkvDj5CFPAuyRoHuRU/LKq9trQKDv//xbUFPHraSkMfYKh/AUTXSzVpcCRiVA84BcT8nHGg5K3j4MVKIKMlbzEt9yMf2p582sMiY1fXkL+a5Iw0MnaZHKlk331pCk7TsOnNzFZo0w8H7//+LfTH5TOjBArJ29sHlSWlidH9gQC7A0TC/qPra7BT7/Rvdqc2USrRaWihqMuWxJ7T6jEdxz5LOA5M03FgbaKOuY8xdDAcT+Obd1IISEG/JvIlcLvYuGj+HXpofPN7ssrHbFbjnmJRImtH/vm8wdXWwrxQsk4bjfPh+gr5EkneZ5DD4O6EhsEBoOI2rEVWaP6YFwdDViW0j7AzeG3oPqTnjQdp7HU6O8PZXF8FUWk0fGa5rYWVrgINsiNmueiLsQfwX+e5vkT4PPCMpeAwq/lf5ksfMCwfqjrkBjQv8DX2sQFfiIs8xf0OShYU3w667qBQFRxjBH0PRY1lK3isH4FJKwQlVGchJGxDfzUZt2CTeGibuYa89R1NGwQ2rEzLvQEzcfpHma0CgU/WpJ7jVqSXXPTtWZwxmuqeo69rmDmn7M5iNqpaVa2qUNprbyAB1zuad7LIPrXtxt5XKq1imOdvWRGMVi+Z7Ngrd9X0rirubZOzmbi1GPf2cyMdyKDbX27ECITYIgsp/U6K6xFQQcvaUWwce9WgsF/tEQlxYalBlQDFLJrFygWp0UxgbPPKdFe1ptqcaRdvjjnEGGqaOEfrZJLFnDEZ4WrthdIGfUITvq7S5ictoXg3sKbDjnOIxVBii40M2/Lz0N6DtehvLDREcCkeDXWskegZG34YbDYrqf2IK823R/wnEvDxPWLr/F/57nX9E3S1l7R/xDZHnU4NGjSmWUapcvo2IVu9eFn1TsZvhUGA2Utx+ekLh4xsT9SiuCuIPux0ev49gpndqriZxpDCdTBna38HGOWpaBIQeYcZ8C0SWqWc7hQ0NAFFcltf544U6XkbrZ9pRY5T/OCIM4FdZ5NoPUCA8wRJWnDADAdOFwUpt03nUDhrGaVEXKeeBKzXguSmxvJ79Gaz2TmGhir+RdFzD4MVprMRW+mNZbKcnz6Y5xQ+w83zwCLXVBAWGRKbpfJQvQ8Mlo9a9eLR4pV94KZ1pIRKCBh50mk2Qb9iyRVt0G7wl0Fv63/1MGWXbzGw7F/I49hN717skExwmDYFOXg2tASZxzXy2jYNORaBpMhSWndCQcnCjyrwn0/+HcgBr69LAcwqvkmeAYpllyYeZMlJFDK1OMF6rnkwSo2+fdbk5yYJTq5poz3IwGMs3cFTXOXliRmCvhVwhIo/3v2XCGF+dl2gPXs3Xb87/MYYNg1F462DiYqrNN1MsY5Z8vQGm88BbuLKFvBJI/BD14um8Edz+au/m6yuTTKMgpyNhlH86yVwV1Xin85jlWjJ/DeZxdlbWl06rFdCzLYqkIoSGsG4y4nLWTVaj+bHH3ErJ8/C2RgeI2DxIc3OdlsRyegJVFZFAWcLJoTANe248Q7uS5TWCtf2Lizt1DhVSnf+ynnWRNRMy6OAVhneWnwAyd1EuBwGWLsAL5eweJXV5+KhCsxVPZBAYQQEPEi+83zwgiaVkJ2TvIdWc5XgXglz1N0JUHGeZ4jX0heDQqcowpGOnDV8AxGuDPa+c/GShRbqFKxLWm4feWJXBVAwJANW9xigfLwcwoJRWRhxMCneCMDYZkS+wauVcHjMLjhIlCbkgCiUOoye6VDGJ6HoOnxn31P7AF+LmZdFJ2frrCli+REW4OImlyNKu2oD7MUXON8GHuodGzIAXoobneQKI1WJnEitYnRBCj5iwiWx4Z4fM7cnl8Lfv1wF05OmnYcq7B22MOow07kUzFZWmYCfbotEViMCVQ8GnYMzvBBYib8+zIef7cj1J/Jt046S/vgcZXrmyJ6prT2/cuK7vdNOjyhJiLFMeoilz6JkNZ0ZLw3wIq0c1XhgUQ4tG9daihWl2e98ywjUBMx97EfWmEr4BBfYNQBi9BZ43MUgKyggxD8mlXDfTaty5fjdKOp5f6FiB4Iz7e5P/uo4/tmnbyCy15tRp1Bja4tmcQzpEZ0SLk/xVwP7LTCcM95NdGPCnbWKX6of+lqEwXLTPMmDbgABDjwJ4YGX2EpO6PgPCwHFiFR6bDLUB460gGoB2KnzQreqp7WW4Rve5LJALMuq4C9Lv0oIHhL2FaE4zbwoklytaQ2pXAlqqMYhTLvQTrahcfgNcj4PMCIwWE6QHse5zLmKbWFa9wEja7M0kdsRWhJu6j67uDybf95lpUPP/9jQU35cL3ayvu8QGV1uPaiBcwmlP2oI3I8BdW5VXPZr4lmj2usztWCrNTY1taYzVDVzVZ75EMWepgl/8TazRfcH9pvVyZU+DtH+EectJjbE305ysO2LTlKGkqVghbvSzHHC238JV6rqTbhXe2VLu969DKqXuTmYARHtmw/hYutAUAOqnJcbkR/uU+lFDdJjk0jxNbwD3jzsxMH5cH+VZBzxgul7qrviWtQzvMWJq5UD3awjqvw9Mv2x2pLtqyVznAncUKjiI10N/eItLYM+EJ3ZC3p1tVwqaGaqDpg2EoqNHSYdqir2VaSxH3VpLAJsWH18zalkBJgfaXSKFCgaH6V+Jsx468RNrMrHwVxqwx9C0acGVo9p/yP14z0Ztj+rRrKggLQekM0lTssFgli4sbqEjoCueQvQ7g4iaTnj8L+sFgx/fytjZkvsk/cf+m7tPdm4kV++SGkVpilpgifyS6xpI8IQcHShZXlPwxVk0eytxWL6YTKoLqx+wJRTKX7U5+Dfu3bHQeMLnMqLojsRlEG92qFv5/hwFhz9UB4LYA2Q97FRSqii6AyxwSEscbUR7xibyPslEFYlqdsyQnSOkfdUeOIS18OzzOiE1bd0Ve2J2sJ/VH3tNTNLc5hpgyZJiXXY379iB9lQVmnE4gU66aNxk72X5/qpD1o8ptdLX2q7LSZ41xzlzzIPFcKMcmBgOU1ylqlc08lgVEjGqlgwkdtwzhevEYv61y07yLFu51+duQh+ajPSuSABa5xHxXdtw90TWd6w2MWNXv+KdIzHNuGE2696c5yuO+d5wy2Tte1VmSMwd4Vfye+Ej7OOd5Db8kM+L4+FCmnMZ2OphMkuCjZWBOtO+DMrtwZWIg5dp45/UlzRW6iGURpmjKvjRZgPQ8u5nTyGwxmt9tlNNtuP64L1Y0UQyFdlh6U8J6xQGIOqixxV0LC4k2rQMompHr2gA6YHJ/yBzTiF+glD6d/YGTmqDOxczHOxp59uLyAYkQy9PI74ZwLeWS48vxMe6JbH98iAwdkqtrKgfM7diWuXZGbjmVpZsVm8iCmJ3cn+gSVhXZLjzG4btrG4Xu/KFEYIuRC3Vo6yGq6ZLWH3gh6zSfd/yZ4kWI3vo+HQuhEwDekr/JAdjUg3JC1vy1BYP0gHkr7YrPJlJVCBjkQRV8VwZKX88QRocCvlcekspxEEydr3Sm3W7nkDNj2lr5dkkdotzj+PMsy5/LXv8M/nTsga5XXLxlOh4wMQHUe+KsQ8RMbrLELzvzyJoN99iHIEe+r2KJQYpPoprhJ4uN96iCFJOPyuCU6pafQ/2v1M0tn3k3KQKFZvVbqPhUUvpWZ+joy8zC7leHR4y/GWAQDKvYm73XbDrzoe2doWF4a6KUXvFykf/zMfPVvRfW2GK5tP0HTt6deN3nxywWxBRSrndz4lTJS0Z+wIrWmKksbrAiwSPv+D8gau9PFnMYVFe3zsSexXqFQ/L6JtYmeQnX1IsRD94uPhfjH+2fCCpTCeypry8G/8wZ8zaLnERnQcb4vJz6mN1HgDnhWNQ2Ot++Vge6cdJImEqh7GGJXqbEEYwqoDqPE1r3uOSngQqdmIeisM2QGzDPHOoifOWWT+ElNS1q2U4u+O1BSGO2+uBSeQOV4HqPPRKgbFk0HfW02vFPyiFa7Hki0fUn5yAo57Ye6zfUu6w7iI4xSkbGoxdRFr5jcMPKMW1ejiFzmLyB+NdUuqYALvxr39xdqx0g5/1bBECTFNkAgdrAI9kMxNySPwIVVDvqWamXFxmENAn3gGir66bZFVpOaZ5J0dOCP9PnAoq5am7wPa4yn4rQVD9XxBgD/2lMk3jGFYaLILSUARKcLeCfQRxX7bDFf/6JkSMYYXkBXZZfHiJlQwkcdddiTH/oL2tG9sr8GImF6q/s77c9itOtMW0rx5AICDLDr8LBhS1soXSI6zNIdCpK0MYaS/6JimiT7fN5EFiJIVOLbP1/3N2/OgQqdvusOJstctP+oElDiVB0g1MLOt83+HCAu1sGf82xMcfTfTAjcNv5z7CFGSWXe5oIG+dD9awN2VrNCdly+V1CeBj3r0IDbJDlVnckTnDsgi1GYFrnxOy+5YJ3RnpRCdEYd9NgESLyvTvZWN/VCZgh4J6VeSACliB4lApUNVx7BjBpW7Vsu/0YPszV29JmXg8vH3xeKe6ahWkjLIMTYX8Qh3nR94nI6F1jOU4AWFFCm39Wtvue6Ocjz74oTfVWTH1sOHyzYmtYhhI6hT+eVmnR2WYo0JP7KZGUBj16UNHxEC5ZCI1NPHYE2o7kUgzU8kb4l0QufRe3Nvnvh16mfov+eRsC2bgSq2Zxla3bAeR7DNmT6ti2N6W2RlgHcFETdarzpp9M/zP/b0oYpslrd+5HoMHs7QfRpYz5rCymtTDQ5+cn2bNPD6iVR7nCi3oDBIEtNQM1HmpoOEn8It6gc0LtAtFF+xsNLi25ZnrwlW6n5odAREhAAHRs0Z/jo2dDHFQiRRsVOeKg0cyXjGy+AcY0B0PptKQ1Ho2jZXv9RKkJO6hmTBHFQR1c4Pg8BzQu0C0R6JRoDeQDyuceIITV7MnypRM09UEad/n0DFvrGVXqv1g215MI7kJY6lWYtBCOkHV1Cos+XgIQGciPBzalw0+ES5YbB1fEygg9pjp6pbOVqI/hscpn2Rn515YB+vy4LcTMKeQXNNJlf2q19bL+RW9OJpLT5LbrZNbIL5wBb9XzBPPf81Dx5bG0LCpb3JcOdfe8VUH1yNMTecoOfvWAQQX7eC9gvXJQ2A0YMgOjD+kBfcLPjSEiVtIKhPoy+HRh1FbUmIKs1yMLg1UFLlewixNpqTt+bVoLyVGmuU83BaKR2Ul00AZ1jDwgTwxbXal+PEx3xI2z8mp7Q9VrZM3nvDUA5PFV45rP2yZHCfkNOR2ARBCd2RjxPTT6hklIRxkxi/NJHsDLSZJLnW3KP6iR5kE2DaKqbtlk/ooI0CXQxnfv9XaZRkEB/jC1alOSe5mwZVmFvioLhHFoLCFcwdXrBb8BkASIqhJDCKBl6iHACi5tEulLojKbU+UgW2zJqUGi6oQW/+wge8hPo6nQwTU08WQhcBSCq3hOXrBupdxV5uH6pTKSosSOWYNp5Jwy7oXLPlm4oM2AA5JQjkHq8sVXNWx/3hQHdknEKp5Z9q1P52D0CwjMJl4cDHobVU7OBlRJUX+sxLsqXZV9+JkVzbLxFf7X97JfldKiNgC3edvp9iXhUnsTdNLD/+EBCZCW4bv+Yr4X8adpxkDjCsWZbuD0IFkxXbWSUFCpR5fdxmHkguhCBoo68DbFpLDVj/8GNnoKLzJRDIwJS7tGIyVkle+0px++ysfLIlvP4EzoBN63OhA2VynYLmm3BSuUNL5sdeX+afGjoymK5YtBICyKenWmH7t7XIo61MfJDklny9ZuaBlGtmalA+YMSukbZTAE0eIVQK3+NOeLG5ojEhJZ4dgOYZVZSB2JuoWln9W3ec/zUP1vMemprgbImfNv/hOC/SFqNGbRfL0jWIM9RMIQb0p2Zc1+Pk5llKZ808CBmV09LtZUcN/J14V8LdazhmFa7Aw8VCwACWZQFJ2s7DKmLihhhxPN2SCh93f3FPNWY+XvcJ3LMrJhcTirkHea+Bow7UA8ksq9bqBB568WV8JCUjemluZ/oKG9SeItrqXba8n+8KgsGe/6nFm7Hn+UbVDQ0Whuvb/siY4UhXk73E6GPpGReYP8C2iZFSyS2jRgwiPjv1Q/HKNlV1zsibJFo89xAgmtEwddqMwbtZykh7LbDuHkN9VUDJqXorJAPRbwJPFzN/l55BuCxDtO9TEzYNFWRIhwiCCv6Iq7WhnF3KTNUj6K8frMtFEl+e1xmup3UoLov1b6IrbJYoxCqV9C9Q2LtzdvWHU7OQtHTZGIm6BOrh/Rb2Ib1c3IGjtM9uwlURrXyghthtgJYi3vit9NGWpPVnFIb6mR3nti10jf+U2aRtlpc+MjxsyejsSKcJUbJoiTpk5lM2rzcgzp8GDDgqUjwiyhWJ7adz797/KJ1nwFiUIinUd8KDxu+0apcFE8dbkQAAYzLfqMwavS5agKE7m6j4inolHn4jnzPGX6W/mK1hSddszLmFu8VV0BecOvPObA2KM17R5e+In6Wfe3OZ245yLOmRbw/OiU1dB2p6/ZAxpWOWhTIISmTdyesb8Wwiz7IzCK9KXrBLZqR1G0ArSXV4atr5I7FQERQeJFrhIhmiIzt8Z3chokWHkiIBpJV2MQvg5oMBWnGOrhKB69zVuPCn2IINPx6ZD0pbaZaS8B7ZmWWwX5GZE6iCdc6fAL9AhQ77P9jP8WhGrh2P7bdThS+w9wzVpzdOAZX75xScYOrNkAAHKA34AAHMYPLz2EwzdE/aHnUQWc/XgpCkhwiY5XQQljJq7VWkVHv8dLkJ2jBS6XBDGlM2KnSq6rVgQmrUGWXJ2sZ5g6MXeiyZuW9ysm5+LHDJ9dz7h6J+zk9kuYaQ0teT9tS3EcXC7RBLcuiStr6b9FOLx/rlzIqAFpxE3qTVPB+LXgcFqEACsfqIHDMiG6Gu8zlrOX2mDCHs8adNqHTQ2JHVqyBHYcsGXtYIP9tp/I7SqYF9P85mh3ejSB3VQCKMtA5bvsIh/PcmC6OeP4MvUdXX66AN1xGIrf6Q5AbUDkFUPmEOksp//2dsGcn0Q/3+KVD3Je19dc8hgAFjbf1AD9BFasJ36qgcnnUeqIrmVUbEqmAAP7XXoAmVLK1F9AA1DbHE3HbDVfCcRNHzcjqeJ1kkVoOIpu6pMwoxFBTxDFAADQbSezZdGsWR50C6eYK1CWrJFue6Un5IUWDNCZB9PQyBmFmVvCgbU823bcN5+cWosSfIZQLOYDC+mNVzyqTC/gm31jJCXzX1tTGna6tHAAAMNvu/c+F9mGTPx8FbzVqnGZgIzoSuNCOyzdSn52P/+6nQMBA3v5B1kwV6AXFPvRgAAAA8K9nhavhDYsvhTWSQCD3wjlJv3pKrEvGYu4fPV7Ynq28s2881AWA0es0rTCmq/LzjlmoVxV7iAOlEfE7zTWEjV6a1r5t/GnLRF9Jd1GVYADdI/TeFrGBtf4yWLng8aqKccBlDIrd8Wfgs7GZBtPgeCUjkxxECvfygYrZxHQdPWWqtNCitT6t/QMVpl2V/mScAuoC2wAACFIRg70VoAzBqa5oLI9nXiZ12AxxJkIhQCUnuzNK8+Mr/VepVKMWsyuSTCzmHrz4WsoFl0Salr1tuy8WY9wFJKaZSHbMpsGZOyLfR4L0L3OrtnFtRUDjKsAKze7WZ8oOmUlcLYOPwbcTuGPJrpTfAx+229P1Va3hiNrSBpjHcpfThQvg2IqauMfk4g+fO5jorBJxRK0Yd7N/yNxLxxXTpC3QS+G+IgAAAALC/VsjwOpuiIg+Ps5JoayVHVvhQoW2+MUmix4GEKRFwLRaBs7SJyQXZx9Ydgq75DO714egYb4lhxmWni1f82DeuFbdMlutOmaD9j3rYCf6arE580gtuTbADKorC+I1yGdANQTe+YJtIQb8MVMJ8n9XZj02AgACaYzULxng6Zf+LHKlMlVR5nFjEqgwpR7RA2R1WsUFWuTvqQGR/lOIgcsDxgfla44GA/8ny4Itnc15Jf44uiRV8WX/SrG+oPsIsVIF7ltgF7gekICPCx1oMQVqE90dO9zxWoYvf1DyD5kYeiR6/hnxlEoMeV11CQ5+/8xLyzPSY6DaYIs6ZTvuYeszOCTbCW1Lu6j4u/ua90jQKmlIh2YDzaiK7rp+AAIdqtae4mRPtromuxacsDiaVhFd5+NPVz7+XePcX/kv4qDYWO64D5ubARyCuQXzMCw21m0/fE9UyW8t1T+fzWnJCHjg+dUUJv6BPYWa/cqNFp8k2KtRq+/ytABGMghCIe695/EA47J2TA9OJ7v8y8unIYDR4ICE6rDdVvPmZ4sV1GNCpaHINlbTI+OSTCzmH3MwZWeDQEq5o4xpxaJNS1627uKRfYUSPkxNs9i8qQEov8yKAEsm4lKe0mZ+pYwt3rRF8TTuwUJ7vvE8Cs0f0nmdVwAAC7WQsRPar8EIyX8EYBxRBRm/olZjTJxyb4Mf7+VrkcUk4iQ/jJ2xFUtt/szsHVB32XXe4QPKGjG6VttTp3/yGHtSGw49svfBfEZ5btZCfCu5MmCAK7AAB7IlAB/tK0FxorTR6y/5w5wMYgVbGadrKzKc5bFMlvkg6cE4/5s6lccAkQx4F62E6X9aK8eH3W5iAiJ6Ggk7zypMjgc0KHNwcmvCVIGXTs1KkxJPwUpUtinu1lUqmFV/+VC80biWp7Ewc95rGJ1oqhbqHSTp9cGu8J93yGh0EiZGAHFqAAD0qjQLMpTMMDxms1Qx488CizrTpWt0z3s5aKgHMDGq2LBVvqKz2O0Zt95pY5T5ibc4A3pwh5x3twDre4fBRr0qRC0zjTy3dstDG4IY8FSNZ/w09rA8N9EoyIOGXKKoaTjiiIUFtgBFTR6vtNokOfB49cEfpzyMKT1qBauxTueRBWABfx5iDkNKGEi3d+W3kuNW062L+4xkPAACCPtW1msfjFu/IoyL9x/LbUJHDPGMqKi9fpvy5fJH+w/4anF+ShdwkZmrSL+yGV10iHWWgvcbtFE3VHaaaB4lheVfYErjNtUc6Mf3SWMydqjyWWc8hFrpGsu5od3dwgAAAUW7VQfSvoVzdju5cDU8B1BwY/SYVRg/zwzZEj8gpGnRZf54b47wrIq+4Q/PvYMawJBHVqr1Rds/QLLoRcD1yIeiPcXbBR5iDKyH+YOqjf5+/FS8mtzKqHd3a3g+s3rk+E9nwPLyrbZge7fuT7YWg71zLqFVnLMSYc3JsKHiPJHPgVteAoIQKe9c+uBP0bhJo8L1jb4imCSooijwaj02WrmTB5rXKcy1dwC5am1xChEAiJJsgS+ThWUehnIthJrNFndN/RwaVVK/6uTRNuY35MAN1EBgIxP0/ZQgoV8k3+yLPj+jl8oVC7F0JKYaPQA+lgRUgK0Ad3AACdktNHGNgWrUTj2mWS0VTmmzMgGB1uXSUdM17h95UBGFCgS88c82sdU0weXmhd7qhIAAACCthiUJqeoZmwLHKlauvhWFoiG9c+JSR5LEKx/WPUynk4+yYOxLjJlNbjdMYAq5UWlPn2AaoLawaHEYciYvBoUTudz9KY+bGkckiLvwIP1qs1Y8CLrLQ9qwL+Bj2g2Shn0PRgGzDThkhPYYWUWUU7RYVIX3vAQLjzMvRFfBaa3uAXK2SX6xx3BLaPVT0XUYLDRlcCiHGIv71byRi3RrguMhr5uQWj6fLWA35kEjsN7aB9/kgpUogY5mh01zYqjbySKqpQfDKVLV6Ogh9VNjWd5FHkIr4+qwSOSV6HqzVvZSC5AazQWR7OvE0WwnIuH42DkFzFHAiKl68zziDxR0hoFQjemsJOtHWUOjnSzVJ+Izov8zoh6uSWhRK4BwL2RCNXrczGbd7CGE32NbuccfoAHbo7AUCc9QNkPAOn2gKvjOgi+9zfA2Xemb2OygAAAAASK7HQrhU5AJ6OBZeo/fdPi5WctZZWm0MN7NolbAX0ywT5p4ZJiod3Yxevuuf4dEYioHdMXBq3yN+g45oWYmBX1R45oLQrBltpvL6f1By8Hlq0e+tRl36a9wroAXIxbirZysjOYgv0IVmmangbLE4QZT9K4aT8NJyXHRSOzYaIbY6Ep6AdGL3dwJTINTOf3/SYp1XC/zalf3rEvUHggV5T3H+dQcJYpYrIGwZeEhgrV8IFhXg4NsGrC3PxsNq/JQIIpjnlkTNXuOJE59d4ImUmpHzYoSLkw1FE8k9prfPDsrkAbYYPgr8vnxe3LFOaW9v8PDSqKFhA8kO9XAl0cy3sFHaEPP/BMsXK99nHspFyoJjTwBX/7nkW4VAKQEbUmtlHE4IfjQa4Gav1QYV/jfFRItHmEpefXM3EacvTdXWObqI6zECkFjENLvkO2jXKbyua2DNryv5DaRl8T9g0ijYE2r1mi/EvrX5VkdITD93AqA6p/jqlzRwvLuWxgyW1JiNomsAU4utLGj0qoE+G57b9T+WboDj3Fehx5xdSBL56mQg8E5nEC4AvvClEpGM2/UFNvgIVkmSJ/f767kv9SgrpaG0K7vddkJ4o2uy3zzHY9k9tx5ub/weKIJy80er7TZHSoc4VqcPTbslXW1a0iH5hWt1fSYQKPsMrpklhgd1fpdHL1dl36XEpwt7mG9NoMXqT7NXRo95mS+THQS9u+nZfIDeuO9J0nE6FqnnAMk95Zo9X2myOlpr8O47ZGnzAPWwD02pDp437uRrjn5zakHTajmoxEaIAMBX5kv73N1duI0mGtBynZIkMQKxijNA5mnFzcwUIhvYrbkLhc9NULuTphx6QKjDB9dW7mfvxMgJv4/VuctyLudEWqlN+ULbTOlErogU0xYJ6BsshCIsowsbip5HX+jFgvZTydz8qwVFpjhMHhUvkPbYMzdiyNJ+XzVynCCuZU13xYy/vUdl5/cvotkCGLEQiTrMLJzFnGTs5nnR5kNEULfV9880XO56x7R1LgtJoD//DTXwAAAAAAAAAAAAAAAAAAAAJbw5iM+261KPo5fH2WpZcenSBtzuy+M04ZLqub2uz7JfjfuM11QBSV42lE2ahbAsuxQBFnnFxTJbw15isvk5HdbeMdQU2h95Odishqj7Ub1jwou2D0GUndOyPGtSLfsxHgyf3ADq5lZ+kfq7PqdD+8SAf/TJSOFEhmTeL/QHNf6zEU5AjzOawuMQcTos8lA0M/594qQOGNRnDZnfliasrD8SdVCwiRlFpcAtQZ5m5Pwk2oeLMFcVck/OPIeYeazcJBbjmZwXGBv7XrZ7hmT3LsZdYWSf451zYC/AJVMlvMQz20qLLxIngiQWF4YB744duxGvkIjwAAugIPSNb9tN2T2bROJj18PEptfsgYHq0AAoT9wNVH+MY7cNniI+GUmijJg3WfjvRlGAU3l8snWaZQG7/AM02b4HA8UklzeC61yanmmXPDICGE3CrcPwdir0gPzoC3iAeqkry/EINMZEXu2iM1Ieyy4v8A5E3W2AAAOfEuBL/6p9IcaJJ9QFqc6menVHzmReAM8WyHfJRalMOMJmCuD1WBku0x1WntCt0ksN6vOo9Ec3YlMCuMOhPQWSoqwBxKWMa3jFPbRAH9kCIEbYrDbjFXpTq7IlD/5gN+Kud85gsB9PZ5s9B8kC7UiTW6v15sDWun871FEQ2AAAQDprE/AUJTbLgLJ6qBn9/21sGCqyhVMkizgSrbvk9IaCqPlgD7a36LOiQRFq7EJs9/lrYSUgMx8aI4/4o8iN5eBeCEVjDem1Q/4dZFMqL4BEAAAdEggfimkRZSkixViOCp8HX61Rwsn2Tx9CmbjxOG1XHkg5E/rRGEaduaIOcAC0YEx23MAyCjApwqYS8KR7S3luVNozOPyocm95HNs+xk28fPamc0HuA0oa8puWlAADIPl8l46ZUKIMDWUCSwUOCbHJgaMkkDWHmHBd2OU45eRSWk/IK0nmbEoMSgTAW2mBHTzimh1pxM0Z1+S4sBHyO+HMDFyL3gAR+5uFppPLLmamSuZYPWRnfMSmryLFgU4GLo6ZTO9WAXabfFS3PdUdKXJdQtGblmF/VlcQvfqLVvKPkHUVFLwRg5zRMU1b/wJJFjnmNZvG4PzVzAbdE4KoBL5nwmE1mHUJA0t2YZ88zy8nzgYm4O4ZszaKCyvy2vWaGkCcVH0AEyusWQUtIUJYY3WcM5StmbfMWIz8D8EKrA0RgTdENDSVtIh7L7h9ZChtMjB7yjq4PhkI4DunXT1H2GdbgXIReGRa7y361sM5oeRN+M+qC1fmtZLxcBMXhyPGH8QAhuHTE2rzoV0K1fxzIk27YXjj0WRX1nbuyyXuT9+UjF5nsBQ4TrppxxW/f36DFEmr2OmcbRk8XeOc7H2NaG13VSP3OmGq9lHgFCygay/kmeivjHdqK4iN20bfR/MNVpTMTrtEHNxJrzCLzrTVS5Dfkiexh6ScMGYPOX9+IZsI5Fq9pCueurt1R3rgXFdm+R72LAUqCqRdqLTIrA1kINkk7rWYxTWikaiemzeTYcJ+qPl1rk5VAj3gbb7QLP7ZKbCuC1IerNb1zxRFa5lRUtWF7S8hl2MZF0Dxe3tdIOqbCErvWWiIxE1PcrGBQcL04gQ7CoDB7KfTkQu20BUcU/JbtU90zpODrJEkqgXoDnsDx2TRYfP1BMBe+gPMQtroqzQL0ct1f3HQUH9Y4kJqznQqcGoFCvyhVYLEuwC723vpweu1e1O9BJZuKMrqeRz/FQ7pUa6Qv0mj89kEK4U5d9M8zA/tsozcXsHSnj1J4pYo0GPWjpAC/yeg55DFChglE+f2+PbSjEiXElft8q7eLzIBcMYeSrj+nkimoSeyPLFwCnkLDo3Jyqx13gjLqhOsWznN1GhLvI1CyVQ7a64rlv/rZ1zPLweoq2kI5uGNHuVZDE4OBprNpHRpuXFlqtj9M1xEh+5SfvoM+Tt6DvqvGlHaR7FLHg9s5f6QUmqnSgB1T2IlqlCaeg30kqTdPKjI6ertIlFDDCFfAl8lmjJ1AHLBflYtKwOEHg04GxCbR6KKhug5uPMSOSHKgDk4DqDw3vtzLW5PNl7wfX4qspVuE0vuba4yyyiFvTHTQZ6Aox1CyHo/eMzrynD10UPBkUKzkkVCTzElfIFwJA5nzxaag7oU/qt/W9JgjieuXCR8sUDotox6+Ottw/AmzOaPfry0jr57fChbbSviDVDuaCSnCzgoXUzkpMUl7VIeuSYN25qMLDase/7WNb9hFGpFMLMPqi1lTNjEjwv5u6wAAbPYR3Rk4cYr411w1hYnxh56Vr2zjkdoqD26m7hOpO2iH4oR0hSKyDtnX0iGJkdPdxINDdvzdUeYnjpGoNGxo5G4P+1CXnPA/MFng+DTpZ78+7t/UN+29JYmKgFG1ZvMLv+dWD80zCqYnTBbvwb5DHSZdEBzFbV1LyFIhWc72maA3PARqVnWOA6h+lo9Z/Hdq44leVL8UJPWa9a6w0exSwMmjHtF8gSFJqD5ZOy4q3zo39LuitVCPSTfo8m/HRPyhZ4cXRtPh4KUPbMSOfnrCco+rGFfpwn7tEEnOmcjb/spDwG1CI0Cb1Chg+T8quI6otzqwoNaXrxzMXMDuY/kKaunLokKJWtlOk58F8F2Z2kreizF/+flXTbbSs+UW1aKNk+Z/g650GG+pN2jJTv3MswqtYzKGdtSA1iCpkdxqP064Qvl9igK+3IVWxbSk6rYwl+hl455nH2SdE7qBXpTF/gx8qUTNPVdDc2n+QEaBYlfafSX1F470ZgcRaXxuPVu8+CnbQdZ798Bx5JCnB1GF41OYEAXuBTnwW3yBSkJHVEl/mKC8d3aQRxf0UlywTkDxweSbb7vrTFNc8D3g6d0DR66txBYBccuHAcuqcUQDy+IodhyoxI4QrRdtzAAu4bPE0ZAHC+BzI/Njn4rCQD2Vi44Cf9JTH9C6SaPVcoKzwT2RYzTEGYz9I+Vh2Nm/XQhQ8L8kXTfue4sXOGwe4D3rLwI3p/GeGYZ7YaJyCisDgWN2FUYqkVkG7wOVMpk29xTybNfrH9RmGdBGJ6s+A4/Lc+diDM7m0fZTEmdyal54ahl5ldW/JQaix5bICnJVKijIDxE9VDOfy+PVIJuzo0lyQzNpD+WAwS4MKjZmNNHNJx0KSX8JjNZAbRmz/p4N3ZixRp/EI/1wcgvmLuzOIPYsj7unkzEmrZNHPyiB6ABKrrmTvcOLK0pEQJaRXeG2oxnDy6N//QLLnv77YeMtbxN6dq+W1RWH4KEQ107APOhXq2eWzSdzbaDcBhSmYUSfgcOoCiXZdzdFsaRExJCP7UlLv/OmPSuu+SwBW8RcWEal9xxOvLAdzgYnTGFt9XS71ZCZ/mu5p1q9Cwd8XywrJarJ5q9tRyb4p+KzrY9aX3107k++FgGVLpSsx10KnsV+HesvzWgATPZV9LGItdwJ/m6n7lrfUSaDXkcmXYPTef7aUdhhevDlz06FZsMM97NLU7sWrIcmVBffbC8RYFjAoTOkeXnjTHIRXK59qjYKoS0UugVp3yQBcNY6x0yLEgiJV/BmK17JAE1RYgoiMfo5qVmEtU3hbCL/VErom9x8ayPD6uZ6AszlM3/WnWZCNq4FBjnOXXHG+6YMheimGPrtJvDDji6GoO2tI9rgs1L71SmyFM5xrOTnzn2lnW9mMbZqNGonueq4wKDgIdRww+ISXW7WdiukYP9ZqpjYV0WF9PC2Nb94xA1ruvnNYxwxztIVwbR0iWpR99EjQyYFzl16NAdeu83+T1qIE+zyEfQeZznD/JI6IogMI0yckpnV6p1diR7zf9EMSpkmodGjmvPJRBqYACS8QTrSUTs2CfBC2fqae07EdlZALHS0IwFpfIbCBPj3ECbqyreTEe11C6d+iFB+bgoeNh75gqw4OdMIQzma114itW9rhlxd+eGQ1Wf9WogGJTFWROn81eNo2+mwwz3s13XEKM5lUsKitTngEaSm3hSLxtrHsSSJh4W1QoIvLe0aDTMDjfaVWJEU/DeyLdPyJsnA++IvBwxCKpZjlgmyfvfJDdSdlI4/dmifbNOWzgVItqlckgIMK6A9ZWFNQ46eQmrC5Bt/Y73C2Vwn6jxHKxLsFWaosLRuyorR4dSYcLwYtcqo3kzoe+rfwaUvLRzVVLHtEbIWS/Tye++iY2KCmqlt2D03n+OZjzIlP2zeUtjHOxxW8osq+wnyp1ges3R1HVHIdsLbE9jZYU4D2+Mw/FpRacWgV8bqXLgOLrDkvK+tlLz9hmteFRdSynraUeO1fJSQOuxzLcAL03poXQaw/f215WJ7XHqRgym9O/GzeAQwSHVqQ2lIG34oEuci1r3vS0G1eOkb/3h6q6Qvia6l7MkLiPVAufM0D+4WzUO2OXn+eb1MxWUXPBN7soIiNb5gNR8x2ysZnnf8i0Xkj3CBV6pHJzbJpwlPtlpGkz2Pxn1/0IMpQoWALV1sGZKA5WyxNflo01HGZ4J7+171nq73e/HEcl9gmnZVsi+saAi/38YU/MFAgfDOy4r1Y1zKy5hOi/AjsY1dOETiHllJTZF7jQxqfQreAwm4/0zkCvjr7BDQSHejt7C6hQpgi9nUjdbDV+tIu5SBv0njgbRu4qFQzpxJdTBd1bage4c1gwf+uo6Hkr6+kVBnfAKm3TNReSTeJUeE8e21i21U0y5ZZLiKeOZIXVoSJuPMzMtFqCCd2A5iof0sg0RrsykdV1ROl0Xw0SlCNCU5u+9JjJtvcF+ynACFOyEfJADwbv0E3RlVQ5vHnNqDg/ABNMN2GuA0B+vux1QMbtyd7YX+/X7NsXutZges9e94NQA6B+FAON/ZFXHOBlFyPgP8txNzrhoqWY/sreY8acriPlAqnHwmQjD+rDXY+wKGfsQYVABURQyoFJDdhm2Q9cxJ4MUuJUqzxxNPSzM/Ht5vBnKEZAOg58XVEDE/mW0WIR5YtdIVIZSjZ1Au/vBjc1Gc68qAD/aVoLkF9yQZTvZDb8v/q0ZxF5dTllLecZqBKqL/w3C2UpUIcqgwd1KGPK7EJ5sWi4K8YYfXFw2NQcr6MANogo836kb6rw3wGd6axWl8ZdTZ1t1x7q0X+BxdX/lIak/4L4oStw5jKTXiWH/SVQ6J+it1w2OyKEsXZFGZQc85v41CjLnBUawvG8iCKi6UAzqPMqp/hjSgS3vucxF2sMwRppnHXuwhl+0HY8SxGdq+y+GItsaiBitIAFtfOGLMD/M8BrGfUpt+yhq4VnicL1aYYB0CujtUlbLEzlSXQARC6HQgBSP5J+AU9Dq+JBB30tw2BeIjKUnae9F4TeLg+IXdmIFpjAoVMJJXOE/Mt+ofQlwc9OYEMroW93f1Km8NSX4vY3fU6xL7oirK4WL/V4K4rx+aDn2dsksNLLhlJD94hz680dyTf7eBN3XTGeKtrdXXsRCxfOp/ANurqOV9sg3rDG73bUNlG7ALyxTGm58Y0lG0cmkIqFM4KlQ2Jk6sX75htaMKAxBkM7R2XRCfR0q5CTWXSFZhDlqZzKtOt+DS6zNnxkHgBYtdNCbV7YGSxF01xibPzxoepwvv5bH8SHMx7J1grSJsF3ozmVGiFrx7G7r6ryWayxbkNiQHEUnw9pnqDvUY+OFklibk21x4IsJmJPcJXUO663nAvPk0tpEY/ns77zc6YqPRuxYQXgWar1ogFcUR3kEvyY1I3Eu9emfoG7iiAy7G4DBstI3gLx5KIRMMvF0w6xz/XIPfkbN//ETZEQMw4anSsDem7Nmm8YgFOPLWkhPKGfSJSjvCxsYf8KLnvFB9N1ORWIdoNvH86B6oI2RWe7HB/jath+/sMxZwB4GQZhhqowUWchnNRccQJwfsjCrldTWUmTrSG/BpD+5IUy32GmCuTL3G2SD8ABkuCNAv8+SFCSL8RPgD1xKcHQi0205yL3dFTjXDP5Z86ZigHedpZT1tLCifDPtWQHAgvCkcMbzkkws5iANEZFT1o+n4wzL5vAPFpQkAKRP6nXAwe0hp1L6QISxEUihu8QSBbqlr3qWkdHlviImxT3hIhf2BM2Agd8jEEvPGSUHI13uxnzsXPTv5afgzXRrEz+KftTYuCzlCU5f5i2JeUP4zr16Cg0QUnM/Xo36EpJHARJ5+FUWXSpbhjnbuQwEvgVzZrbgBXGJbhYIqVExwTxRYIxwimqqfPU5LTfq0/KSrMlH70JaD+bhif9toWHPw8Z6gGJ3JK/Yvo/twCC/igumdE5AEIuc2vXG2s2bzIVdabnJXcHzKSPtomaUsmEzmMjef25CK4Ft76eBDAGrGQk4NrZAEyq+GeDd40Cmm7DApLxrD07A/QDNutmvnbfhnfp7syrMCUT/fmC70YUA0J0tSbx4THU8wciQdvXDq6U6H361qoRQXc/fwr2n/gTQ0bNYRGtLsvNnuLQR8wlSbzFezQjujoF+hgRWbe4qOzA/FCnEIVDAG0as9x1VZo3+n69RKqmJQQgblUS0xj9Hboj/sC+4W0rf0Rpkhvs5Pb6OtiZbxICtRDG21kT1dmR7PwWjONKuRwm4f/jMV9tlT/9lIz8lQ96S6JD3fCVFSOSZmzh4QmbvwHy9fPPPqTL8Q8qnCBf/LW5DJS9JzMh+o5DaCpbScLvqaWpeeg7jKgNYC6p6tICRKEbMzOoq8IAtXuJyA3160GNs3CrTe2xg23uiJ1B/4q1sf/riPrmBs1RCW0q+HrCX1xcMs2tsBzeXgs+s9GSe0MHQZRiSlmz5azFOac6+aNx0YbWDeYRxzWEASMVU6nuKsV3hBDke2uz/2KE0CFj6n0oo/n80+D2lFdZcIDwfeRPuTUOJvEb2sZ/rpgjMUEBBv8jOQ6zA30kTCFp2sBGEwRTbOW+iAAABbInA5vBvbsvG74EE1IknYoXaI/4w0uliLsyxEOy/9qyMdBShW8jPhIFco/J7PlSMgGr144z6KbcG78fkUTl8JMjJKAyif0LaO3IE/oL1xpZ+62gZE5dRy+oRf1zfU6SQbmSp+nqqN9BoWDkD8lxf/hQqREBqGBuO2cWJNzPnrOTzAEmm9g0rRHm9qWnKD4OHtXkYoKppcAK8zNUPhqhGBcr1JrDv4C9C213G2HZyMk5shYDhdBYAADwXiQQs9oi7DcwKewbQleOkMvwBWN4PNclyBEgRa19q5gT7VJtoYidNdUOWn8syuWxxqJt+egZEcl+4gG5qndp/nrx9A2hPH2OJpbeYy9hlty6X4hHWg8pgHXbQ3u8DT7YF9cANv/Y3iFMZHJuEnfL8BhPqlOiudKP/ranuNguWwZSAY5U9gwR6ssz7PZ8CYsubVSB8KL0yi78XkHegAiduCRb9qZx1ociK4lUfxARra5uRClw+EWL7YGp399uUVWEmVqdaELFUMC28b5MptfwkXtgC13AAsM1BXdHbR7lZJA+7m7s9Tjcnwo1awDu/9ywTJLqlqjUpYOGMTRwNUu6ZerdK9gDRxI1YqcDTbwIlIi8wxojkClw5zlYwc3UvFrWUWMzgJWCiBY5ymu6/zYubhIBpcAe3+heSGaqbX/qgT6UPRbTXKevetB2Mo0cfRg7kNQR2Z0Z5I/wTpEF4gXDcHmboYwdk/PTQyrXLfM8om13o4uCwNJ/T5bGvn919Q1PlGKwXk7QvnK49YJOVdz5a24rm3VHSG1kHI43jUMeXhEj26p2Hye4leyezUlpI+OpfcGQCWjfpRYr6PLd4brxlNeEjccnss/702rNaBlC4vY3s085ZErTCoQjDFZ+tE8hBupeFr3S8qEL+ojiHzCaGGnQF1yvhzbpc0V6v9V463pBirXhyupVrS44F5XYz99oWxg+hiMQvDwkhTj0Umu6BSsT+WBTBFjhcACVs10341JfFMC7OZG6DiMYd/vNKabN76OUr4OtW8gwholECV1N01pEcmlT/Y5/9u7E6Xt5Ck4/n9dMSNVwU1ExCA8J/RMMhetmBXsHK0W/ZzhEDIvUgLTLec1VAUcJP4RbzBIWA4MJvN6a75JMx/dEhItc5/A3q9jkedSr65ISMSREDZ7HS54xsXGFCeg2Q59eaG84N0AGJBFxO2abuRv8+dFIX3k+oKoesZ/HhV8e8ZSsKLMQ6RNlgCmFea+RkUb8YqVYUHXLOy6/h54RhPsR48UvPm1+Ro0P1WJ6t27UfuO9KhsvHLoVdf8EhkBGNOEhNpq2SBE2zqQ9rsJ9cLNuhsbNISxPSA/OgLdwGBOd14VYiJ3m+YCj7PFjkZvbPPLNEMFSKEvnKQ2VvVUYLf32vaB7O5PbWJyrRg+VXraBWcHjZGuSBrZ9EDOEBbm3pl+gr5SMzLnY+B1rAVQ2u/1/N6giqs8NGCMDwodNzugjSuAoxwjY9IDvw+ZZNXQq+Kd737WiqevkfSdePSVqwFrdmtSF2s56aRjt2n/ThCUKm+i1d7NYHLEoBzXs+bfxpwl1wuACOUDXQf4nVtg326nb9hDx6OAAMrYNKvR06MOeCqUyEHxHvFgpv13nze9MjxyUfsuvKZzOEfqKaYYKagKXUoxE1gFGBbviE1cRrikK5WwZFd0dtHvS74FZXtwjgujKvNW7TMhk/p51AiEE2CdTSWdQoooJ5nSeoAhbCOIrA0liqSqtAzFbetTvdilQFNzT/iwEobvZBiXpCOZm8s9hBImuV/ZfMriZKWkP4xthBG41aKahOLwATfVuqZdzlSNE5/cwMYrP8Dl7E6Wis7bNjiU8cIoz5ZxdC2m0m/Eic3GMc7ukC4BzQSD6p0ma9xeZsmhLILRiEjzwzXiWkydru+pClDBpzHftPn0WGVgftFqO1nv/BWsZg9oB+G7WcHOb5gGb3K+zJRRGLr7csPvrLxARy5sTg+zpkyaB6HuXOpFlnC7OHPVuz1R3hFZIQ+Mdcn12B21/QAAJx3GRwKcTmQEtM/L6Ap9w8pT/qQQqAmC+Qs9O1K5+IohgAdCafpMu3CzJLoqet42r2yKlkWsAb8WOSnEuyweQ9l1nKoEFyT0TB2rAW29HFvaP4R0+inl72CBue8hybFPWNL3lOMr/Qo2rLMfaYQU2fhgkjKyD2C8tArNckd1XjOmEyRUOzdn1f8dNJhxu/TDIq6Vr87a2MS64MVaJNGv5lCzIkRV3askckYx7NSnXcG+l66V0oZPe0XE4oQ1k++sbaGDkqNcoIF0SFYGyxdbf521g6TrMJjaDTs8hbzAwGQvBGGuAp9ur6VbcaExFNewmLrtl/QNTLEgfj4HTFtPNmF60P5rHdtAb0P4oIMqVb2DRBFEEq2HdbszMvOoOV0/tCdCBRCMU2xcRoFaKYGK/oYeZ9vpBgM0B9BcdedAHSGBocfAdE/KWzKGtstNXP3HUlBpQAfX9Bkv05+zdBnW5COiasdPnB99BG/zL8PWPXfj46e5MNJjiEy3YefII9q3pJe0f7DdjcAUbNBxI6aJL/WnnX1JoiEM9jS8BTvz/I5LQd1p+O+7edH/Halp1j7j+NFHzq9ccxVnTbGm+yQvrYZ38IfhZPfm8yxi950F/by3X5pP6JP+rU7IyIJ275qcvcSbDqMpZnabkONF0jXXxjsLMBtULFqXoSnL/DaSFMM1RAXyZwzEbLCPjahEZcExqTF+ZBgzP18wLFfFhyIkHHoF8lWzOxgHgBxjwsH2w5tR36iBmruJSmncHn7JMG+EKhqCaXKD6JBu39DBn6fXqHGTO9OS9QovNTDDrKMiwTIsPXILJPYspFXBDu2lDWf3n7yLpG9o3afyr282jwP8TCs2tzVsfzouPUBIzo6+k758Emi9BFCAjHdv1Ezb8peXcYx3qubZ+X9myeKfIwWfHbloB/tpfgIGVZLhhdo4Syds80SKlhgXEzhl/1iO9weO5IOUQNN9pmbOAk//lyyaJPwZeMnj6QLv+SlGDe0BzthOvhwIZw23HAK3COqRrT/pjiULke4uJipAxqdxmK9O9AtWC9Jp8uUyJzF+dL/JXwci0WlswOmkXxCKwnUF01XDEeyj2KY2wfD8gj9EQtk+Lcc4MOK54PB/OC6xvSaCI0yuZnpzW6EaMFRaqmthrf3aN5TTi09UI6QwqK+aMBcisO6SjcSOkQukVEw9Pn6aSUGGAX2ZjZw7ignGflvtOH+KNeOhbKByOcdn9TGv5J27b+0pZ7En8N+uu5m8nOoWYGhHSQFvuVUSwlPs/nAq/7fVGrMU0OHS3zR0kU5IA0IAFnJ+CHaEBVDc1xS+CATegLi7bUM+gAhrvG3MInRIN0lOd0JiN58OXmyYNypwdJh02MW1E13SuxzL3xGUMQ8klWmKJ6VdECBcHCpu9DTiCnGKtyJi2M39jd8mgHhhMGjrIatLZIJvKRqTiUsmLHLoIZguU/i+swz9sIf76OyeV8OLCSMHvl8LSmlnfoelFJvUwx6V7TDTxkuodLgvgdLc8AN3+jxTluapd0z5YQWGFEsrusiuW1DWM2gEI59aBrUpeIbB9/SuYvL7AZfquMS8azzBQedMeRyllGTmQET6CbCVlzyk13KAmB1oA+mWJZcnYhLHrp7Du/8qyfwtDBK9T4jPLKdYeOMCpBBKi/VnapL+iMzKvVjiissPW2E+od49G6jsfoE7s9caCI1O9Ezh/v1aXVA63polUP56dYtxLJEexDUEPH9RcZA/iw8cHsi1T0ChCAUQbpqgTQmmf+VUZUXG42B+AjIOtgJiL5YDz5mf+W6O8FTCWR7whgd1VXAm9v8RKnacEZAeSWczEumi5s2PFQHrLGUmMQ4qtJedEg+iuj28FcjCgidLManrRvhh34xYTY+IZFKhg+ognvHP1kar5qq3ScMiSJwZ0n8tt5Vg8QBg2E2Ut5CC+GW0uF5XaGWdmOnm1yDlVyrcgLmS6BRuSXPhBT2MsiXdIUfjCEqzydsQN3Is7y/vcjNS/FAUDwmxCIv7QgZQZBNnpfpSundp/ycn609QFI0C/wSBoCy+fC3eQa0mzj8Br25DUWSzKOigMeoWsOc1jjst+gQT6dKOavNtg42zwptm/q1X4sZYVp2zIKfl6t40YP9Fw+PxatCLgtvVRlVz/0WEW+ED5ZdNC7A0kgTk858GNrpqOhdDJ1+HSWSyYcCrPzOQHslCbHZ3HtbGLZK5da3fKMYuAaGI2qTQX+2ggRGLMZAUC2HQsPyy/NK9Y8Op5G/opVXgAujWAKd5Fc+hrJ5Avuw59qSS0MAP55fzeqm4QM7L4RrOGwJ4iV/BMkbU/sJk5gJNCCocYVGP62bGKwejA3Ivvxu+9br0lWFCk8LnsHIr5r6juCFxgssqCzf8KQAnY9Y11F9ICTbsG1E+mm1ShVm4L6bbBSI8xtdU1EwJml+Ung3Rj555aIPfPDzDL5kPt+AmCkiro9tJ+UseW3UxZKo9GhWbSlDWquF3SqIjcF4VqUziBSIwqmAqQEZnLb1qN6JzBjh3vEJCaBVFvSKyD1O4KVNQREgEVSt2iNnIYDDITSrVykJfnRt/N6X3BafVurkNvP17MkriaPYZcQJbtob+7H3E556kR+SyIVyCZqWoHEBfFs4csM2tssQW2JhyzJEIM9Qs/KT2O3VUVQg43tWn4gGFaAALcfKdeqdalPBw6F5ABIzbggJ5bvPHlRjogHOb4dR3aZ0X+eapqnggxfd2MutcpW9AYJAlqt4FGNiIA3ato6wLmLahr0ojscIIsBU9RS3ABS89usNnJoyFEn4IAXJ9+Xj5UmYjEdDLtV7LNLx/F8H7xDXtDEpLMVoJ4nipqlkoytv2/Lfl1hZj/0WIwaZefIxk3S1Fh6LhsbkVGoWE1/9ZXPP81YSaUmD2+xwT4thnXihLIvC9PQzV0JPf6t2+oDh0YjXqdeNiNKjP21OzCGHl21f1tgQW4LkF2zIgoXOT6jy7DFvCBW3sEWo+omyGfUZbZkdlHLrD1xYB+h/93jjdZ2i9B7oVFuFnMyACUTTDGazPIJkxZt7/WEBbiGc47FJzex3p9x4WhhbhB1NzwmjcSpJ7rKfUfid5jJIgMIEMVqijGW5sKm0Xrrv1Aquz8yLKmqQCeZORy20K+TAfRQx/SR0sTZREvY7Xyl4BMmg1Fh3A/t/ii1/RqCL4QSCGVK+m3EpnB6g2qmBevKA35u63sJg4qRoQYJR48/3EmwNbCu8GvQUat8+cUIYO4vQ39uTEpfZ93d5/ABCuahr4og7nBextnA3IFdpOOJaHk2vdx20vROqcC0ublUhSghJHBuiVM5tBWK3ewZtqew7v+ePOZtjHHibTdWf4oDcpmVTXKLte1adRj/jqIRcKwDkcaWIGO86Mb5e0rTUP5m9wBoHbap0ShMzpXCNdE1d697MWpIev15StP9JAUA2WEBPI0WocgBdnUffMozYFnPMfTPc9EAWWfS2SzzIFxcCrA/+QALoIWfDruK0ZUHTVyr9qYppy6+fj0VHIyvi6o6Vjd+eswbT0vaJ6HuloTQTwb7XW8+gihm42p4nlliHdqMVzyi9GMH/lCte8R8q7sKH5cqqhAZkARY+KwQofcYE7Hszrxh6jjaxkD9IO5CS9V/IP7NgSBhJ1Aa22KuqcnG8QdqG6DOH7f2Fe8pN5hIDjFDAAfy4vNDSpxpEe7QueC08x8qeS4MWwlP1k0nY1r53QUFQ2Bj1rv2E/OukdLkrzucwKkFLKgdunl6mGKPGLFGHsHBIoB/S/F6/RnhubQdQsrtrPj/n42+0vVZDyOeKDtJsAaMOR+VOHF9YMWAdyDV/tOZQM8QCBq7fcqRhkhfAtaL0IX8YQYeP/GcpDpoRphErF/bM4ezDteSsJeNw1cKjh9687mbQg9RMDRb0yD//pcq4Qbs7Aj47TR3zccukmJL6R+1Hc6QkxtYSELS4KiIdTXM6PWrGTNgxftcj/5krEAQUxMmGctrRs3MAeuDrYmM/UZ9n5IkRPRvJtOAOrsvQABbIEWtFw7GVunLPdENjkyqG2qzufZxo4o0IIKxSyYM7UjRQdwAV34l1E3Gt07wu2bR6GJexxdFFNereQ+x+uUu64njZ0KrQNl4cxXGpRuxvUYI7ioUDEVij7yHAC/6WxR4+ITOXBXupHLTDAniLZU7eXWLcj1FechegXBdATX3xxg0sP1AF7uRtrHN3iaqo1b8il38y+hD3/QfTlEJ2eBeeEWHT1jZpt6wBWLfJAORZNhwvSgfeCwL/7DcpKjligR4UrjkdXk47Lw0Fwi793+NLSxPyKaEbcJ14M1pG6LqpHXHUt4R2oa8E+u+DKuFqsxdszVp+7/yG7gn2NRk6IQdP4/KIn+WVFEnKObFHYl2qdI7w4ohQ8LTYJKcJLkX0vYzVgw/EjicHNbuvqtlVuyoSQUPQxPrV1R8+zhXIKtGRTHp/GmDEWDymztfojC9+7sGbfuxkO9QJNJkEz/oQD647nisnpcyp22pZEg/ZO5zR3yjHkwEwGYyoSrCiSzvCm9kKbTxkuPmzFMRlyGZzRdV60hIE1yxG/zkhOvOw7R1QBfHTRXdP7ZDRZ/QdEDMHBFs2xqsZT8ZrC2aqvXqOXaYUOaXKIPAMK5wvHslk10D15hO0j6sJPsmzjVoiSH9INi5b+/n5Kqtij1OWsDQJI1COPAqA+N1kjrFvPKdlcHhWVSeZdG2kkftbLw2sa+NwCX40b3SewufnCg2/R4RxMjmsTSDibDmSBRNqTKVQ5o5n/LOkmkwGnH8i9+Th6TXCRkgujaKgmc3dZA815zMy9us22YMIdyyjoLywSEhP5VotZlZs+EFHzWzCGyAU10su8nQ7X6qTCTUNfV1QtYBIiAyOA0wWz4fSZphV4H4G70qGHbl163G+cfQmQIjlEJ2HKIOpR0c0D0zwsmHtPRxQsI7Pilp1WawRdeloQAKx+ogFwulvIaPu9Ka88Ihk/OTKGGgLW1oEMw3PkLEd7ylW1K+geXAOX1NhHtsBCDjYgm4cRneF3IlPaQ2ePRnGthQZesm/ym+daZIZ+Z1HxO5UQ+logQcG6y/Jw/gtTlCKFHXysJEiI3VJ8qqmLcoGbnBK0d32LX2vTfIPEOLm9mgLFJGgFcCP4LLw63JaHGkOuZt4vRv2E4P0Sxa18uaNwO2A68u9kpXv7CYyRrK53wWGMQ+VwMWuq42mTYBgOtu1c2tCSei+AfO15TBCqvmAauQnTtoJhdU7UYttJeEFnKbTYD0IdpuTIvwmSxO9HZv8HJxgN4DfL2HFAwBVPDAlhadcOsQ6QGAY5fHZEQsymUsBVViWtS046dZ3zVl6nXG++qsGmX6Hp++X54SdFni71FPvn+027r0QDMPtMxr+5LgGVdo2yzjkc2GHB1f++/DhXHqxGuLsw7cgH71UVHzgBOkcGBlnDjkcaF0IkkiM7H/83Ee1IbPEw7VFlLa3Q6EFoFPBXcwdvpnyw25Gh4Vq40xOhrrs5BrlxBhYedzzkWYm0eKoaKPMXqq8OAmort7xYQhyRnIdvzHLk0K4n8H0IJWOx5HttMY2ECTr+r6BYA5gR6YQdCvXW/LHJdPy4OLMYtsSD60ZuKB6bW+ACbjpB94CwuNDj9BvHDcTshlZzY37/yUsoqPTHU0sVHF2+mWmmAgOVVN585TFd4J8UY67u4U9IoghjSn9yH3pFRoPqlxQ+T4sLuldvHGNifgGjIm6hFNHpbyGT6+pL/u8E7OpN+So5kyZL9JucUfux+KH4iPiC7AOQNQUN6IADM/kdRptN20hLQ1XORvMURDvi1X44fgzCz/8H8TzMl3Om7Cx4WPlrriQ0jnJ3HvowmSUCLk/yDJDc9jGzBIgXmzlbvY9MZLJHpsYgafc0RTSESQXJ5WQk/o0EXbDNzX6Lth5FC8Yrnbo6quvBV+Oozp7p5i3bTp0byNAFbfoEejhmC2zWisEwi8QovkM0zw4RZx8e2h2+0R39nf5NIIUlFo6x1A4BL0Bkth+sAdMI0fJYb896kI4nQJVyrdeIefNytuf9iIifbKGPEixGGcPiNpR0JnLsv1WnHmUitRQeEWpYV/PxVl1OdrzxclEVTOYQLLtBkGCZLh7RoUNzRRC1D6Q2tgfAdEd5e4FwMpj3Igh+IoOXqrtWmf21kwyG5HrU+Q41zfKjsKeNaTJqvHrwE1qHdbISACnJ3imRg7TN2tI6EmdTqOC8ox9A1Oq371lFdm9/yv1j2jfM6g7KM2tBShcpXfxU6e4nyUC7316L+mezr7Ag4zug13ZiHHkX5+OlJ5tlKmJyyfGYEsu+cPTduIPNUuA7o3vSIMIF8R56lZNQoCWtPRkMsqRm7y7W01vyTQzQKtmrvRDCgs1fRRpQdCgGYSHw1otfZ9vnqwg+Upvs0lc5gDvqz8e2/9Z++0GXhu1WZnReFEYJIqHDFB/eA6VScf4et0/iVyUM8Hf0HgE6LPEKYDLVbeboihoTLwYA7UDEQ7OhFyqmJRXQ7zzZ/M+AYmtlPXfvszvF+IN2pCRf5Pp0aOwR94hfYhUORQDfqePWlLqAZGsmAL9F64MXKGSWTlg5F+GeYPRFigAIOU8XPgjgI06lHT5fGB8iTyBdeyS4sI1L733FgxiMt5TQUwrqNnpDM4975n7oIbWSJfdS5jOAc24RYvBuPC881VOoC72Sy7YMtV8+d5uGDAMKKqDVMBCHMBgA7QL069grggzXjpngMrw8Q+7rB6NFMrSqMFY2WD2FKfntSwweoqRyAaFruVXZUdmTDbyHBIiM1rpnFsrrCBc8mcl3tD8yNWmxZk4vJCECPQTMhpkRDL0DlpPjlK5r0Ygtsx2IJ4NVcj0KMqHpGPROsmXmrF2R9YnI4gWaWXW3OklED6lv+X31+VAD3+NPfwJsQ5uyksVMhmvxAK0LU23V1y5qVK+2f95DTew1BiZwcuEVixK12aoduHBtLmmwQZDf3nqCnazSOfVmrMPSVO25PrjtoljGQ14L1REdZvJCpJ1HRPUVAiLtZnMM6wlz/IybDWQ3Dykv783FkIoCpUK0OepGq3o2WXEvCkKMFBgrQy/r/SHUtAKAvO8Lz3N8vMlloIBkkVw7ttwz5e/LYE2sKYOdePFwPifyyCEodL9sOZ2TguzkSHTbVQai22mgH6GQ2BijgfJl6naVgeXWSWP2eC04V4J7XoOHdYTNOPMFDIMNxgP6lFayZvjMOz7OhFffFl5JSrFi+i+LEcN9o0t0MiRVess/1Yrt7aKjUC/ZFc9khd++iYcgOZRabLXC9g/PvDLS0Lf4fCxZGqA9lrmJIXnq40y68J0W7xfwLKiSrMlOdVeqbgbQaxj+uYf85y3Ph2z6VRfGbtis/q/Txe7kdmNCnCZnQNaQYFMTrmJ3MZIg6jW2AiRDueB3Pspl9PqiMwfR+IANEiWt3veAw1cbMNjKcNjc2Az3LHmM41z7KJYa+mPtpbbs6AAjYhiHOU6gcUEB3qHhyb9T7OLhzV47xmvRGJEgPFqEnpEiAE2gYYGmmsIE9kQ97CzsGAJW4vF8Gvo5tY9nbbKPVxG0xT/U128eURLbEXBgR+gU4xnVLYsx6WIekDgAILA9fCje8OM0dY2lBVBvJbYrn1g6nQH4GjgdwsZfWeNzDQVGoMr0BgkCWnfYN1RU+C+WHrKYwPytvwxWs2/Tzp1wDHv6eLAwwhO7UCBR2ABn7we6u0LwCd6nGa75yNBIa6fbCXYRQ0afkXrEAT283w+dxHPhiTBsy3r6kn5jIFhs8mzDbdGr0gnBCNYoZb9yZaxlkBHbcohnSPQw6DogY21gAF6oaHhI7Z2DzIGMYeGkMvwc63DtlRDEw+AEuEvXlMEPEXSSas86UjRizIdkG+G+zEixxsJW6pgYVizHpYh6QP+TDu0WCCzS0UhY9Q8tnoFR98CGX/XNJ9K6f5BlduIUTEmgagQY+IDrOxGwleR4ouBOjymmtSI7DKumm8xOGBr50k+A/gmcmDyEAZEBtNdyAhExlPziwyl9Vz130Gaj6HSwEYBrmaEwDCXW95ybRG5MlVqVMQi0blMDcLUgteFSyfZa8WfNgbXK5tzmbXuUDFsiAWP0bNDrKz3PMecBmAuMK+yZVwt3EIG8fesyZtw1lJ/i6a6OiffG9LdPUOQ5ro9dpKvbFUsQOsRb/9eWhkc6hqWj7BlH/iuUIPsV1SdRn9iM0Y2IAgc4FD2yYUq5q5q+hw+OptFEytj2CbLW3CAFpAIw3xYlpb4C8wzjD6dJLA2FWQAQ9GpLPlhS+wD7+7Aw3X/XNIJBJ3Owog9E+/8ZT/EKznwoe6KnhXeWN7FMZsCUdCS2ElOJWGiVv4jnVwP9tDW+Y1zGpmFc9qMYWwQSj0gkjc7fZoWN1xDdb99+tj+YCBTlwNy5m0sdSzXa6+g9UMu3B1kG00dn6/OEYV6lFVf0whKYbbLST7OzVuVzug7Lk+IZ4oq8Wf9Jwj/qo9jt8hkIXx+h4Z0fgG5idebWr5VnsWHPub/yH3opBhZHDZZyRysOaa1IGmM0kMcSNIrPQy5I4ffxUsKqyFbQgqcL5mgbXrCW73evdI31B0pQEdV1VL66vMwz3Cyt+jM2pGPBRyA8aQyK7o7aMcYSi1YidA/w7UUfNehh8vBYfxGD81bQRvZeM6dbfehjzZJbbjOR215rlNFb2hmPqxuAZih47e0SdOjJCcDz8CIPMbZFyVl9jkC1LHNS+b2JGsu5pQGiZEPQ+2NNABToZmUYQabQlKp7UixzXV01icaXejFOm3hOCGFyIHKo5ZBO2p+S8oIUP8jmNjJtjzb5ezoiay1r2opQ04dUxvN905NNQRpZGl35ZP2rdkhRh+UwQ2DfRIMQthqmT+2iDhbndBrDNswwqPfzqDwpDvhAgNbiVBNOGP01lfTc/Vo5LyG32mDGTkyIwYAqCcSgvZ5ZNFhilxJqntMFxVf2m5UUk+s5qS6sAH+0rQXIKiDkZFtfwGQOJ2KksVo3ajS/UlXKVYk4YFEA6HEhUpiSjKdbGDpOg9gJydFmuF1MYaR7NyGXYxkXSS1ycdMCkPKR9PKn0I4in68hDOp+VraMpUDzHUGSM2sr0uf2hm6n/OSyM7qmUrviy64lJUFb03qVLABdCEnpzuTGwmtUmeGVZTl+r1h3dGCp1vCWEBAOzNsNkt3WUMkOdXmBkoTym1+n7v2zn8tE2rxHCoRayVxY7LSUp2rxgDkQWC5NmWRYPUb8DqOwxGCH014dhO0oxFD409Jqc72D8gVB6xpRznF2SpcwueVW6AnNPwYIVmN5pNWR7w7piu+26uoFZu1PqRbjCBX9EVb5sE2Z4ybmYu0KCnUlxPXfGHWdE9+lSVFSEC0K6ggx4gmdhsE023Urs1kYS4Y57RhTxJSL7LNY+V86UgvIFr1raiLufdkksHiW0Ow7s7PNKmfX67Wot5qzCWAPDXQCRgA0vzMUNBokRxUkLFUWFfkOsFZU2OucXlECfY9DnQFNGHtFgnkkQlJzYYBPoE/9P7dcTw5NvWasAdLMz7PD9GrM4j+n0BONCV782gs9eisTHszS6NapJff08joOcW6YNIfe9COxMQByzLroIWje5l70GR7jYYfmvim83d3/3LdIujyb4r+QxU93AZED+T5wlBdsNqhzwgWoSkham7HGLoEazzfqCnEmqEAMtlrImbDLhDzJxuAZQ0o9G2ABfQoeN66pTsDeqnmJDp5MyZM+xs8HThzMi9fZwxfy2DIm4DShHWGDnvb7bf40b3SLSftpElm6ePO6NZ9dbfG7cPXZkMTy25j/BT1Ctg4NedsTUW0fgTV4f/mEDmXzJGLU0dVVSAA4qhYtdw6irmJTr+tpPrw7I87KfVacjA2qEAr/t1bbO87/BLU8n25UQitGAZZZe3WpfwucJklAh9cgMz5W1ojKm19iVQvQ3X3IPv/P1QXuuh/k5NIIDKaI55d92r9G6/vuqyRU940Rt4t1v6BIiNJKVP9gaGoreb3R+LDBvCnYvC06/7uUaN5YGPsinaBGoDlqP+dqHPhcleAW7td6yX1MmVT1jho1/3VTymQ4LBttIP9E+rMII0hGeMGb6aLHwlVgILD+tTK0RWvXv4jKCs1zG3Qu10r/yX110Fij9Mc2Hf0CiLhjA5LvaI2JVFRppF5rL30O1ixV0UC6m3AV+th4eT0kFvyasDr159kR6FOvNCI8BARwVK/0VhOjTboW7lWPFMFUCvV1mmj9glzk01nHC7+IouuyhhjYCX31gwQWj28XvHUZ5X+DwMMdkiwwftbfFqVhUi+4VwSOJOlvCgNKcKcJna1SY/O2fo7Em2tPG/CwKAAAj7A2ch2KV0v2o24fToPzIAmSydoF1ToBTZ1EvAmUeCn1zKX1dzFqHWvspAlQyL+73M7JywGgo+Qrd4itZV4Ebg3XmP1auMu1RAenBjffJNu8rDsI4ATAzX7cQPQPXtels1VtEVrzJ+Id8yBP27sJXTLeXflRt91t/d5Rd95cffaY3kModrS5kVl0gCH74oTuPc1Fv1HevGJsDQNNPJodkAAAAA=;" parent="1" vertex="1">
          <mxGeometry x="214.76" y="493.75" width="37.95" height="32.5" as="geometry" />
        </mxCell>
        <mxCell id="ARdxAuYbh6Wd4h013KnK-234" value="" style="shape=image;verticalLabelPosition=bottom;labelBackgroundColor=default;verticalAlign=middle;aspect=fixed;imageAspect=0;image=https://miro.medium.com/v2/resize:fit:660/1*PXn7AsmHqikVHhz-_L5kcA.png;" parent="1" vertex="1">
          <mxGeometry x="460.92" y="491.25" width="37.5" height="37.5" as="geometry" />
        </mxCell>
        <mxCell id="ARdxAuYbh6Wd4h013KnK-248" value="" style="shape=image;verticalLabelPosition=bottom;labelBackgroundColor=default;verticalAlign=middle;aspect=fixed;imageAspect=0;image=https://git-scm.com/images/logo@2x.png;clipPath=inset(0% 0% 0% 0%);" parent="1" vertex="1">
          <mxGeometry x="108.76" y="494.99981818181817" width="71.74" height="30.000363636363634" as="geometry" />
        </mxCell>
        <mxCell id="ARdxAuYbh6Wd4h013KnK-249" value="" style="shape=image;verticalLabelPosition=bottom;labelBackgroundColor=default;verticalAlign=top;aspect=fixed;imageAspect=0;image=https://zupp.io/wp-content/uploads/2024/01/CiCd.png;clipPath=inset(20.41% 25% 21.01% 23.33%);" parent="1" vertex="1">
          <mxGeometry x="32.76" y="490" width="62.63" height="40" as="geometry" />
        </mxCell>
        <mxCell id="ARdxAuYbh6Wd4h013KnK-250" value="" style="shape=image;verticalLabelPosition=bottom;labelBackgroundColor=default;verticalAlign=middle;aspect=fixed;imageAspect=0;image=data:image/png,iVBORw0KGgoAAAANSUhEUgAAAPAAAADwCAYAAAA+VemSAAAACXBIWXMAAAsTAAALEwEAmpwYAAAXW0lEQVR4nO2daZBUVZbH37Td86EnZmKieyZiYqYnYr7NxHzt6ImZbzMfQGwVFyxEiqWgKjMrswBBoPKyWYooqEAmgkhVpggKCMUmFBRUJlggmywiIIgoKIsssq/KfifOw7JLpKh87933zr0v/7+IE8IHycz37u8t95xzr2UBAAAAAAAAAAAAAAAAAAAAAAAAAAAAAAAAAAAAAAAAAAAAAAAAAAAAAAAAAAAAAAAAAAAAAAAAAAAAAAD4hrT+KpJPjKtoiv/Rvw8BACinpL7kgWg+XhfNJ2Q0F5+m/hMAAL5QUl/y19F8ot6WN5+QkVz8Uv/G/n/nz6cBAJTRo2nw30TziaYWef8S8ai6TwEAKKd8ZfnvovnEpl/Ka8c29Z8IAFBC31zVP0fz8V1tyGsHJrMA0JDoyn7/Ec0nDt1PXkxmAaAhFU3xP0bz8ZPtyovJLAD0Ipav+t9IPn6hEHkxmQWARkRylZ2jucQPzuTFZFablNTXPyBS2f9JprPDk+nswmQqs0eksmdFKntdpLMSgWMgWh2DAS9Pkg/1jsuOpRH5YM/Y7Uf6VF19IjboaNd+ydwzz42sqKmp+XXb8iZ6RnLxGy7kxWTW3YwYP/1fRTozLpnOfAtJIWkhY6DqpYmyU89K2aF7RZvxUO/4zZKqoZvKBo/608/ljT8bzSVuu5UXk1k/MmzS2/8oUtnaZDpzDeJC3ELHQGXNa/LBHtH7yts6OpZGZZf4kD0lQ0f+eyQff8GTuJjMukMyneku0tkzEBfiOhkDFSPGyo6lhYn7syitkKVT457FLfrJrGht7W9EOpuBuBDX6RjoI16SHUojzuXtUSFLM5WK5S3Cyaya2trfinSmEfJCXkdjIJWRPYc871xcenzuFZE9Z/oib3FNZt2580JeXLwcXrxSGfnMwOGu5H2wT4XsNds/eYtqMguPzbjrOr14JSdmZNeqalfydiqvkGX1qt95i3QyS0zMluLOA4GdjIGhE+pkl8rBruT9czwi+37gr7hFM5klJs/8vUhnT0FgCFywvONr5RPRQa7kfbh/RFY0+H/nLZrJLMrzQl7IW+gYGPzaVPloeX9X8j76XERWNAYub3gns6on1f0BRRrBytttwDDZtX9SJlPmXTQGvTpFPtK3ypW8jyWjsmJF8OKGejKLyiO5B0WxydsyoOnPNIPL/Z0c1TX3un9pZIc24olRMRlpYpQ3jJNZNTU1vxKp7BHugVGM8rZE135m3ImrRlNdc8yVvF3GxGQ0xytvKCezqKuIe2AUs7ym3Ikra153VNfcoSVKK2TJ6zENpA3pZBa1BHIPjmKXV3eJIyPd1zU/M8XnAg3ncTOaTwywwoJIZRZxD5CwRyHy6vo43VeMcfXI3MG/umYvj86XY/nEY1aYEOnsbu5BEuZwIq9Wd2Kqax5co2Vdc9RFRHLx45F8/Gf9xqEArYJ6yavFndhLXXNZAHXNjuVN7ImtiP2bFUaQ/9VPXk6Jk6k6Oz+tc11z1Fms7t387N9bYYXlCh/yUCHvTxIHWOxRPbFWdom7rGuORWSfRXrJG8klZtLeSVaY4R7sYQuV8gYpsde65vIGfmF/ilziNi3JQ1uOWmGHe8CHKfyQNwiJB7/+luxcPsC4uuboveNaLB/vZRUL3IM+LOGnvH5KbHRdc/7uO2/8XHRV/P+sYoJ74IchgpDXD4kHvGJ2XXO0VUTyiW9iq2L/aRUb3IO/WOV9amxMPj0xxiax57rmvE533sSWRHPin6xihFuAYpW3ZfBxSBx/ITx1zZFcfEXf9X3/1ipWuCUoNnlLxkZ/MQiDlDg6cpy9xUkY6pojuURtTXPb27IUBdwiFLu8QUrsqa65TiN5cwn7SYDbHS3glsG08ENezxIXULFVlhztvq55hj7yRlYm5OMj7jz+c7ujBdxCGBOpjK/y+iaxXdc8IhR1zeUNCfnowL+8u3O7owXsYpgQAcmrWuIw1TX3WZiQf678+XfkdkcL2OXQPQKW17PE/ZP2d6b1mp/0Ute8UB95e82ulJ36/vJ7crujBeyC6BxM8qqQ+PHowFDUNZfWVcqOPe/9Xbnd0QJ2SXQNZnm9Suy6rnk5v7TRH6PbpJidvmrr+3K7owXsougYmsj7k8Qp/yXWqa450pSQT77YfqEJtztawC6LbqGZvEFI/MSoqDZ1zZHGhHysurAqMW53tIBdGJ1CU3n9lFinuua+SxLy4arCSzy53dECdmnCIG+A9cEqJQ7iohMtMMrqK+VDFc6+P7c7WsAujibhtlKJo7jfs8Sa1TX3eKdSduzt/Hdwu6MF3OLoEtUT61ylXp6exPMI6lpizeqan5lSKTv2cHch4nZHC7jF0SloaZlH+jhfnYJrAXOnEmtV15y705Dg9imCct3c7mgBtzS6xcCxk2WnXs4G1oO9KmTvWTyVS0+nY8bVNUdaNSS4idJBI+1zxe2OFnALo2P0e2mi7NjDWc9spz4R2WeBnhLrVNdcfldDgqMojcjyYS//dJ643dECbll0jdjzr9oDxmkNMVcZYlsS61TX3HdR/BcNCQVfIHtG7ZVEWp8jbne0gFsUnaOs+kXHA+2RAREZWaHHnVinuuZebTQkFHRhLEvYC/DdfX643dECbkl0Dzd7BFFZItdm1i0S61TXXHqfhoT2onPFs3Lwa1PveW643dECbkG0j1RGllQNdTzwuozhK5KgWXGaKOIWN5pLyK400+xmb+HuFXY75NAJtW2eG253tIBdEAPCtByxSQ0JHdqIbgOGy2Q7W6xyu6MF3HKYEqbliE1pSOhwd5RGZO+hLxR0Trjd0QJuMUwK03LEJjQkdGgVlLqLjhpX8PngdkcLuKUwLUzLEQfdkNAp4mLNaTpGvSrtY+vkXHC7owXcQhibI3Y4QDlzxDo3JHSg1FuffnLQuMmOzwO3O1rALYOpUZY0K0esa0PC49GBcsj4aa7OAbc7WsAtgsnR3cV6y50Zc8TaNST0q7Zn+N0ef253tIBbgqLMEb+oTyM9d0OC8BDc7mgBuwRFmiPuljY3R1y+LK6sIUFAYAjMLTGV+j1cJDli7w0J45Udd+6bnxZwD/5izhFTfbAuPbq+NyT0jt+zIQECQ2BtIsw5Yk8NCeUD5HNtNCRAYAgcjhzxUn0lbm+HhA4eGhIgMATWLsKSIw6iIUF4CNZ3T13gHuxhDdNzxEE1JAgIDIG1DINzxHZDQr9IIA0JAgJDYF3DxBxx0A0JAgJDYJ1jiN1H3M+IHDGtGR10Q4KAwBBY9zAhR8zVkCAgMAQ2IbTNETM3JAgIDIHDnCN+KOpfjliHhgQBgSFw+HPEUeU5Yl0aEgQEhsCmBXeOWKeGBAGBIXCx5IifHO09vUQL7OnUkCAgMAQuqrWmU5WhakgQEBgCF1WOuLRCdq+tDE1DgoDAENj8HHGlbzliuyFhdEzbhgQBgSGw6dFvTMqXHDE1JHSujmjdkCAgMAQOQ8RGqc0Rm9KQICAwBA5LlFWPVpIjLpsXN6YhQUBgCBymoOomLzli0xoSBASGwKEKlznip8ZEZbc33M80czUkCAgMgcMWbnPEJjYkCAgMgcMYbvuITWtIEBAYAoc13OSIHTUkDOdvSBAQGAKHOdzkiE1qSBAQGAKHPdzkiE1pSBAQGAIXQ7jJEZvQkCAgMAQulnDTR9wSXeyGBLPSRKKd8GGZdPPgPgkIB8cglZFPJYY4lrf7s9SQEL5jbQEIHOocsQENCQIC4w5cbFFIjtiUhgQBgcMh8LB0Vk6YuUDWN62Rqzd/Krfv/UoePHpCnjl/UV668r38/upVeVtKefPWLfvP5y5ekifPnpNffHNEbvh0t1zavFFOq2+QIyZPZ/8tQcTAsVPazBGb1JAgPASeoJkFHlM3Wy5evV7u/fqwvPLDVamC6zduyP2Hj8rGdZvlK9k57IPM7xzxgz1+vrIk3ZlJbu7vJgIICMwg8PA3psv3Gz+UB44ck7du0z3VP+jf33fwiJy1bJUcNult9gHnd47YxIYE4SEgcIACj5z8jmxYu8l+9OXg+Kkz8t2GvP2oLkIWZcnRsmuVmQ0JwkNA4IAEnr54pTx97oLUAbrzj3t7LvvgUx6arlslfAwI7LPAo6bMsCejdOOHq9fk3BXN7AMQkYXAXvFrEI3Nvi+PnDgpdWbN1p2QyOALiQX8EfjV6XPlhctXpAms3baLfSAishBYlzvwS7Wz7PysSVAOGRKZdyGxgFqBaYaXcrCmQcUhtfOXsQ9IRBYCc96BqSjDVOiRv2bqTEhk0IXEAuoEpkfnq9euS5PZsGMP+6BEZCEwxx24aeM25UJdvHxFfn7gkGzeskM2rtsiF61ab/+XJp6+PPSt8gsGVW6l3lsIiQy5kFhAjcBUHqly1plqo+sWLG+3/JGquxbkP1JaJPLJ51+yD0xEFgIHeQeeOm+pskaE2ctXO/7859+cIbft+VLJd7h585Z8uW42JDLgQmIBNQKvWL/Fszi3bt2y77pevgcVZqigvmkt++BEZCFwUHfg3V99o0VBBaWx9n59yPN3obs5BNL/ImIBNQJT470XqKlQVYPBG3MWexb42MnT7IMTkYXAQd2BT54970kYWnFD5YClf88L5y9dhkAGXEQsoEZgWvbGC/T/qzyxx06d8fR9rt+4yT44EVkIHNQd2GvXEZUyPv9m8VVBDZ/0tnxrXoNc0rxRbv5sr/0qQikxeoKgiwhB63/R3+kY7/zya5nbuE1mFjbarZrc3587LKBGYFpYzisNazaxD4igIruoUW757At5+fsfXB+va9dv2EK/88HKUK4yIgoI+KtI4LXbvKdvrl2/Lie+u4B9UPgZM5bkfOmRPnH6rHyvIc/++0TAAYEVCUwDUwUXr3wvJ8/5gH1gqA6aYaelfPyGFvAL+0qcAgKrfwd+4a135Y2bd97ZvELvflRXPeKNcKzvTOtcB9nkQe/L9I7M/bsFBA4GVQeaaohVcurcBTk/95HRIuc3fSI5oHLQ95atYv/9wufAI7RCgenR1w9oGVq6I7+SMevRcN32zyQnVJo6c2mO/TgICGzGHZhix74Dvg5IKpOcu7JZ+8Z7mlHXAZoYTM9axH48hE+BO7BigWmrFFVbpNwPet/evf+gvcODbvnjafOX2XltXfjuzDm77ZL7uAgIrP8dmILSGbd93jLl7kkvkpnaELkHKhVXnL94WerGh5s/ZZdNQGAzBKagLVQ4oLs/7VSYnrWwqCatCnliCWN6yQL+Ley+evN21kFLq2POWNIU2KZmJAhVR6l4b6V8Ls3qb9uzz15SiJYW8srGEK73ZQF/t1ZZuGod+/vg8VNnA5mNbd66w3MRCy0P1FbajPY+/vrb454uDLpP/gkIrMcjdOugogIVdxCvHDr+nXxj9mJffiO9e3tpYTx19nxB/dDU/PDxrr2uP4cuqNzSCQis/zvw3TF62nvy0737JTeUilr3yWf2Gloqf9/7K5o9TcI5WQmTFhA8eMzdAgrUdMItnYDA5gncumaa0hrc0NYvE2aqa5ygriC30AXF6ee9vWiF64vFqCnhSSlZIFiBWx4D6V2PVr3ghOqT313qvYOHJsnctgVSso12cXTzmbRFqhvCtIWMBYIXuPV7I63++O13pyQXtJA7FYNwlZAeOvad6891O6G1NER91xbgE7h10KoUO/cdYJmxpvfiWS7WolaxHxTtOOH2c/fsP+jqM7fu3sd+vgUENvMduL2gBdWpjvjw8WA3BqcF5d1uqeKlacHNIvYtQRc8N9CWNNznWUDgcArcOsbPnC9XfbzdbisMAppcczM7TdvAmAT9Tu5zKyBw+AVuHW/OXSLXf7rb93wyXTCcfjcdZtWdQBNu3OdTQODiErj1DPb0xSvt5gV6d1UNlUI63RdJx+aF9iqyuM+jgMDFKXDroPTL+u27f1p+VRVUEunke9CyryZBM+/c505AYAjcMghezsyR2/d+pWyAU37aSQMEd623G7jFExBYD4G9LmSncguTWctWKVtYz0mxg4lwiycgsB4Ce92DSPX7GJVqqlhKoGnD1oI/0493cb/hFk9AYD0Epi4ar6hedVLF4zQVSRT6eUEuGasKbvEEBNZDYGrR84rq3RioqivIXKkOrZJO4RZPQGA9BKaNsL1CrXgqTypNQFFlVVDbnR45wVfL7RZu8QQE1kPg5R9t9jyY1m7bpfzEnj7vrXqLJsMK/axdHloJqZmDWwKTwwLeBKaiCq/Qe7TqE3v2wqXABKbqLbfs+GI/uwQmhwW8CfxS7SwlS8hSqaTKpV1pa5GgHqG9XMSoCIXW0uYWwdSwgPdKLOpp9conn3+l7KTOWb7a8/c5duqMo43dvBRzUDeTykE9de5S+8LKLZeAwMHg9UCv3LDVszB0F3/ngybPJ526iby+/xLUqufkc2kZWC+/XdVugrRoH63U8c23x9kXuRcQ2AyBqY9WBfQ4uWztx67XcaY7oZdlV1tDk3NOPnt+bq2nzyPpvL5GUBFL65w0rSvNLZjwOQJSRG9UHEgVj9EtHP3utL3KBQlZyGfT3kiLVq1Xmo912txPC8V5rUoj+WitMDe14LTKxr1mIujpiFsyAYH1F/jdhrxUDZUo0qLsVFlFW5bQ3ZnWNabUy9LmjXLN1p32o6uK3RBaQ5/p5hjkNqrZVuXg0RN2XTdNxt3vgpFd1Gjv3HC/nDc9nod5n2ALqGsnPHDkmAwDH3y4wdXvpyeBC5fUPQXQxNiREyft3me6w5KsVOJJE2xOmjZIcFp4j1s2AYH1vQNT0M4CbpdX1QWaAPMy+TOn8UOpIxcuX8HmZmFF5ZWxbsFyI7tzCHqHpIkgr8dAZW+ySmhuQfWOFNxhAfUrctBEDK36YBq0LamK30+SnDh9VuqImzW/dA4L+LOkDq2zrKq5Pghoz6ARk6cr3WrUazmnaqjDqtCZfVPCAv6tiWXvSugxtRKUvH7sF/T6O/XyzPmLUgfoe7w6vf3dD00LC/i7qB2V9HnZ+CuIx2ba7c+v3091zkEvUn+vd1+nK22aEhawrGQ6c83vA015zZMKVu9QBaV7VExYFRI0q007EAY9K0Cft2HHnvvmk42OVPYq/L1zBz4T1JrO81auCWynhbaqnWgih2Oneloo79jJ04H8zqMnT9sZAXbJ0r7GKQh8R+DdHIuz04bfXlfOKJSzFy7KFeu3sHfpDPvxIuaXyPS4TBOIw/jlkv5HZhcEJoFTmUVcJ4HuhHNXNMstn32h9M5MaSyqWFq7baecOm+p6wYJP2Pa/GVy087PPVdv0Ww3vctPmr2Y/TeJACOZzs6HwPY7cHY498lonX6hTbepG+jjXXvl/sNH7fQH3UFpB4SW1BTVP9PfaVsTKjekDcY27tgjlzRvtGe/OR6R3QbdLWlhP+poot9Av4XyyFTV1rKJNz2pULMErV5C9d8kLNWFj59Rz/792SKVTUJgy7KqJ9X9N/vJQOAYpJ0eg9o/QWDLsmpqan6VTGcOQyJIZMwYSGUP0biFwC310KnsWPaTgsAxSBd2DJLp7CuQtxXVk+r+EEQ+GIFjILzffa8OnzDjXyDwXSRTmbcgGATTfQwkU9nJkPceDJqQ+R0lx7lPEALHQLQpb+b0c+Nr/wECt0F1OtsNAkEgjcdACeRtv8F/mgYnCoFjIO86BlMgbwGU1Nc/kExnFmMA4SKizxjILKupqfk1BC6Qmtra3yZT2eX8Jw5R7Mcgmco20HiEvA6J1tb+BjPT/AO4yGMK7rweEanM05idZh/IRRXJVOYkJqwUIibP/H0ylXmTkujcJxcR4mOQyl6lPC+lNFWOX/AjVAFDZZeondZgsIcokunMYSqPRIVVQFAhefWEzH8l0xlBfZnUXE0re6Ack18GnSN5p1z3TDKV3WmPm1Q2SV1FaEwAAAAAAAAAAAAAAAAAAAAAAAAAAAAAAAAAAAAAAAAAAAAAAAAAAAAAAAAAAAAAAAAAAAAAAAAAAAAAAAAAAAAAAAAAAACAxc7/A4vehb31Oq7XAAAAAElFTkSuQmCC;" parent="1" vertex="1">
          <mxGeometry x="269.76" y="490" width="40" height="40" as="geometry" />
        </mxCell>
        <mxCell id="ARdxAuYbh6Wd4h013KnK-251" value="" style="swimlane;startSize=0;" parent="1" vertex="1">
          <mxGeometry x="22" y="484" width="490" height="50" as="geometry" />
        </mxCell>
      </root>
    </mxGraphModel>
  </diagram>
</mxfile>
